<svg width="33" height="49" viewBox="0 0 33 49" fill="none" xmlns="http://www.w3.org/2000/svg">
<path d="M26.2228 22L24.3005 20M16.1308 21C17.3299 21 18.5172 20.7543 19.625 20.2769C20.7329 19.7994 21.7394 19.0997 22.5873 18.2175C23.4352 17.3354 24.1077 16.2881 24.5666 15.1355C25.0255 13.9829 25.2617 12.7476 25.2617 11.5C25.2617 10.2524 25.0255 9.0171 24.5666 7.86451C24.1077 6.71191 23.4352 5.66464 22.5873 4.78249C21.7394 3.90033 20.7329 3.20056 19.625 2.72314C18.5172 2.24572 17.3299 2 16.1308 2C13.7092 2 11.3867 3.00089 9.67436 4.78249C7.962 6.56408 7 8.98044 7 11.5C7 14.0196 7.962 16.4359 9.67436 18.2175C11.3867 19.9991 13.7092 21 16.1308 21Z" stroke="#FF00E6" stroke-width="2" stroke-linecap="round" stroke-linejoin="round"/>
<path d="M11.256 46C10.752 46 10.2993 45.8833 9.898 45.65C9.49667 45.4167 9.17933 45.0993 8.946 44.698C8.722 44.2967 8.61 43.8393 8.61 43.326H10.206C10.206 43.5407 10.2433 43.76 10.318 43.984C10.3927 44.1987 10.5093 44.376 10.668 44.516C10.8267 44.656 11.0227 44.726 11.256 44.726H11.662V46H11.256ZM3.696 46C2.81867 46 2.13267 45.6873 1.638 45.062C1.15267 44.4273 0.91 43.5593 0.91 42.458C0.91 42.0753 0.942667 41.6973 1.008 41.324C1.07333 40.9507 1.17133 40.61 1.302 40.302C1.43267 39.994 1.60533 39.7467 1.82 39.56C2.044 39.3733 2.30533 39.28 2.604 39.28C2.8 39.28 2.96333 39.3173 3.094 39.392C3.22467 39.4573 3.32733 39.5413 3.402 39.644C3.486 39.7373 3.53733 39.8213 3.556 39.896C3.29467 40.1107 3.08467 40.344 2.926 40.596C2.77667 40.848 2.66933 41.1233 2.604 41.422C2.53867 41.7207 2.506 42.0567 2.506 42.43C2.506 42.6447 2.51533 42.864 2.534 43.088C2.562 43.3027 2.604 43.508 2.66 43.704C2.716 43.9 2.79067 44.0727 2.884 44.222C2.97733 44.3713 3.08933 44.4927 3.22 44.586C3.36 44.6793 3.51867 44.726 3.696 44.726H7.56C7.80267 44.726 7.99867 44.656 8.148 44.516C8.30667 44.376 8.42333 44.1987 8.498 43.984C8.57267 43.76 8.61 43.5407 8.61 43.326V40.792C8.61 40.5587 8.67067 40.3627 8.792 40.204C8.92267 40.0453 9.128 39.966 9.408 39.966C9.67867 39.966 9.87933 40.0453 10.01 40.204C10.1407 40.3627 10.206 40.5587 10.206 40.792V43.326C10.206 43.8393 10.0893 44.2967 9.856 44.698C9.632 45.0993 9.31933 45.4167 8.918 45.65C8.526 45.8833 8.07333 46 7.56 46H3.696ZM11.662 46V44.726C11.7647 44.726 11.8347 44.782 11.872 44.894C11.9187 45.006 11.942 45.16 11.942 45.356C11.942 45.552 11.9187 45.7107 11.872 45.832C11.8347 45.944 11.7647 46 11.662 46ZM6.65 39C6.41667 39 6.21133 38.916 6.034 38.748C5.866 38.58 5.782 38.3747 5.782 38.132C5.782 37.8987 5.866 37.698 6.034 37.53C6.21133 37.3527 6.41667 37.264 6.65 37.264C6.89267 37.264 7.09333 37.3527 7.252 37.53C7.42 37.698 7.504 37.8987 7.504 38.132C7.504 38.3747 7.42 38.58 7.252 38.748C7.09333 38.916 6.89267 39 6.65 39ZM4.466 39C4.242 39 4.04133 38.916 3.864 38.748C3.696 38.58 3.612 38.3747 3.612 38.132C3.612 37.8987 3.696 37.698 3.864 37.53C4.032 37.3527 4.23267 37.264 4.466 37.264C4.70867 37.264 4.914 37.3527 5.082 37.53C5.25 37.698 5.334 37.8987 5.334 38.132C5.334 38.3747 5.25 38.58 5.082 38.748C4.914 38.916 4.70867 39 4.466 39ZM5.558 37.04C5.334 37.04 5.14267 36.9607 4.984 36.802C4.83467 36.6433 4.76 36.452 4.76 36.228C4.76 36.004 4.83467 35.8173 4.984 35.668C5.14267 35.5093 5.334 35.43 5.558 35.43C5.782 35.43 5.96867 35.5093 6.118 35.668C6.27667 35.8173 6.356 36.004 6.356 36.228C6.356 36.452 6.27667 36.6433 6.118 36.802C5.96867 36.9607 5.782 37.04 5.558 37.04ZM19.7121 46C19.2081 46 18.7554 45.8833 18.3541 45.65C17.9528 45.4167 17.6354 45.0993 17.4021 44.698C17.1781 44.2967 17.0661 43.8393 17.0661 43.326V43.032H18.6621V43.326C18.6621 43.5407 18.6994 43.76 18.7741 43.984C18.8488 44.1987 18.9654 44.376 19.1241 44.516C19.2828 44.656 19.4788 44.726 19.7121 44.726H20.3421V46H19.7121ZM11.6621 46V44.726H16.0161C16.3521 44.726 16.6088 44.6 16.7861 44.348C16.9728 44.096 17.0661 43.6667 17.0661 43.06C17.0661 42.1733 16.8608 41.534 16.4501 41.142C16.0394 40.75 15.4281 40.554 14.6161 40.554C14.4761 40.554 14.3221 40.5587 14.1541 40.568C13.9861 40.568 13.8228 40.5727 13.6641 40.582C13.5148 40.5913 13.3794 40.596 13.2581 40.596C12.9874 40.596 12.7634 40.54 12.5861 40.428C12.4181 40.316 12.2921 40.1667 12.2081 39.98C12.1241 39.784 12.0728 39.5833 12.0541 39.378C12.0448 39.2193 12.0588 39.098 12.0961 39.014C12.1428 38.9207 12.1894 38.8693 12.2361 38.86C12.3014 38.972 12.4228 39.0793 12.6001 39.182C12.7774 39.2753 13.0294 39.322 13.3561 39.322C13.4494 39.322 13.5708 39.3173 13.7201 39.308C13.8694 39.2987 14.0234 39.294 14.1821 39.294C14.3501 39.2847 14.4901 39.28 14.6021 39.28C15.3208 39.28 15.9368 39.378 16.4501 39.574C16.9634 39.77 17.3834 40.0407 17.7101 40.386C18.0368 40.7313 18.2748 41.1327 18.4241 41.59C18.5828 42.0473 18.6621 42.5327 18.6621 43.046C18.6621 43.7647 18.5314 44.3433 18.2701 44.782C18.0181 45.2113 17.6914 45.524 17.2901 45.72C16.8888 45.9067 16.4641 46 16.0161 46H11.6621ZM11.6621 46C11.5594 46 11.4894 45.944 11.4521 45.832C11.4054 45.7107 11.3821 45.552 11.3821 45.356C11.3821 45.16 11.4054 45.006 11.4521 44.894C11.4894 44.782 11.5594 44.726 11.6621 44.726V46ZM20.3421 46V44.726C20.4541 44.726 20.5288 44.782 20.5661 44.894C20.6034 45.006 20.6221 45.16 20.6221 45.356C20.6221 45.552 20.6034 45.7107 20.5661 45.832C20.5288 45.944 20.4541 46 20.3421 46ZM20.3438 46V44.726H20.9038C21.1558 44.726 21.3564 44.656 21.5058 44.516C21.6644 44.376 21.7811 44.1987 21.8558 43.984C21.9304 43.76 21.9678 43.5407 21.9678 43.326V40.078C21.9678 39.854 22.0284 39.6673 22.1498 39.518C22.2804 39.3593 22.4858 39.28 22.7658 39.28C23.0364 39.28 23.2324 39.3593 23.3538 39.518C23.4844 39.6673 23.5498 39.854 23.5498 40.078V43.326C23.5498 43.8393 23.4331 44.2967 23.1998 44.698C22.9758 45.0993 22.6678 45.4167 22.2758 45.65C21.8838 45.8833 21.4264 46 20.9038 46H20.3438ZM24.6138 46C24.1004 46 23.6431 45.8833 23.2418 45.65C22.8498 45.4167 22.5371 45.0993 22.3038 44.698C22.0798 44.2967 21.9678 43.8393 21.9678 43.326H23.5498C23.5498 43.5407 23.5871 43.76 23.6618 43.984C23.7364 44.1987 23.8531 44.376 24.0118 44.516C24.1798 44.656 24.3804 44.726 24.6138 44.726H25.2438V46H24.6138ZM25.2438 46V44.726C25.3464 44.726 25.4164 44.782 25.4538 44.894C25.5004 45.006 25.5238 45.16 25.5238 45.356C25.5238 45.552 25.5004 45.7107 25.4538 45.832C25.4164 45.944 25.3464 46 25.2438 46ZM20.3438 46C20.2411 46 20.1711 45.944 20.1337 45.832C20.0871 45.7107 20.0637 45.552 20.0637 45.356C20.0637 45.16 20.0871 45.006 20.1337 44.894C20.1711 44.782 20.2411 44.726 20.3438 44.726V46ZM22.7798 48.968C22.5091 48.968 22.2804 48.8747 22.0938 48.688C21.9164 48.5107 21.8278 48.296 21.8278 48.044C21.8278 47.792 21.9164 47.5727 22.0938 47.386C22.2804 47.2087 22.5044 47.12 22.7658 47.12C23.0178 47.12 23.2324 47.2087 23.4098 47.386C23.5964 47.5727 23.6898 47.792 23.6898 48.044C23.6898 48.296 23.5964 48.5107 23.4098 48.688C23.2324 48.8747 23.0224 48.968 22.7798 48.968ZM25.2383 46V44.726H25.7983C26.0503 44.726 26.2509 44.656 26.4003 44.516C26.5589 44.376 26.6756 44.1987 26.7503 43.984C26.8249 43.76 26.8623 43.5407 26.8623 43.326V38.818C26.8623 38.5007 26.8203 38.2533 26.7363 38.076C26.6523 37.8893 26.5543 37.7493 26.4423 37.656C26.3396 37.5627 26.2463 37.4927 26.1623 37.446C26.1809 37.3807 26.2276 37.2967 26.3023 37.194C26.3769 37.082 26.4889 36.984 26.6383 36.9C26.7876 36.8067 26.9696 36.76 27.1843 36.76C27.4269 36.76 27.6416 36.8207 27.8283 36.942C28.0149 37.0633 28.1643 37.2453 28.2763 37.488C28.3883 37.7307 28.4443 38.0293 28.4443 38.384V43.326C28.4443 43.8393 28.3276 44.2967 28.0943 44.698C27.8703 45.0993 27.5623 45.4167 27.1703 45.65C26.7783 45.8833 26.3209 46 25.7983 46H25.2383ZM25.2383 46C25.1356 46 25.0656 45.944 25.0283 45.832C24.9816 45.7107 24.9583 45.552 24.9583 45.356C24.9583 45.16 24.9816 45.006 25.0283 44.894C25.0656 44.782 25.1356 44.726 25.2383 44.726V46ZM31.4828 46C31.1562 46 30.9415 45.9067 30.8388 45.72C30.7455 45.524 30.6988 45.3093 30.6988 45.076V38.818C30.6988 38.5007 30.6568 38.2533 30.5728 38.076C30.4888 37.8893 30.3908 37.7493 30.2788 37.656C30.1668 37.5627 30.0735 37.4927 29.9988 37.446C30.0175 37.3807 30.0642 37.2967 30.1388 37.194C30.2135 37.082 30.3255 36.984 30.4748 36.9C30.6242 36.8067 30.8108 36.76 31.0348 36.76C31.2682 36.76 31.4782 36.8207 31.6648 36.942C31.8515 37.0633 32.0008 37.2453 32.1128 37.488C32.2248 37.7307 32.2808 38.0293 32.2808 38.384V45.09C32.2808 45.314 32.2295 45.524 32.1268 45.72C32.0242 45.9067 31.8095 46 31.4828 46Z" fill="#FF00E6"/>
</svg>
