<svg width="60" height="50" viewBox="0 0 60 50" fill="none" xmlns="http://www.w3.org/2000/svg">
<path d="M33.614 2H26.7489C25.232 2 24 3.74031 24 5.86068V19.9532C24 21.7535 24.9187 22.5136 26.0439 21.6435L29.5191 18.933C29.8895 18.643 30.4877 18.643 30.8509 18.933L34.3261 21.6435C35.4513 22.5236 36.37 21.7635 36.37 19.9532V5.86068C36.3629 3.74031 35.1309 2 33.614 2Z" fill="#FF00E6"/>
<path d="M3.696 46C2.81867 46 2.13267 45.6873 1.638 45.062C1.15267 44.4273 0.91 43.5593 0.91 42.458C0.91 42.0753 0.942667 41.6973 1.008 41.324C1.07333 40.9507 1.17133 40.61 1.302 40.302C1.43267 39.994 1.60533 39.7467 1.82 39.56C2.044 39.3733 2.30533 39.28 2.604 39.28C2.8 39.28 2.96333 39.3173 3.094 39.392C3.22467 39.4573 3.32733 39.5413 3.402 39.644C3.486 39.7373 3.53733 39.8213 3.556 39.896C3.29467 40.1107 3.08467 40.344 2.926 40.596C2.77667 40.848 2.66933 41.1233 2.604 41.422C2.53867 41.7207 2.506 42.0567 2.506 42.43C2.506 42.6447 2.51533 42.864 2.534 43.088C2.562 43.3027 2.604 43.508 2.66 43.704C2.716 43.9 2.79067 44.0727 2.884 44.222C2.97733 44.3713 3.08933 44.4927 3.22 44.586C3.36 44.6793 3.51867 44.726 3.696 44.726H7.56C7.80267 44.726 7.99867 44.656 8.148 44.516C8.30667 44.376 8.42333 44.1987 8.498 43.984C8.57267 43.76 8.61 43.5407 8.61 43.326V40.792C8.61 40.5587 8.67067 40.3627 8.792 40.204C8.92267 40.0453 9.128 39.966 9.408 39.966C9.67867 39.966 9.87933 40.0453 10.01 40.204C10.1407 40.3627 10.206 40.5587 10.206 40.792V43.326C10.206 43.8393 10.0893 44.2967 9.856 44.698C9.632 45.0993 9.31933 45.4167 8.918 45.65C8.526 45.8833 8.07333 46 7.56 46H3.696ZM6.65 38.958C6.41667 38.958 6.21133 38.874 6.034 38.706C5.866 38.538 5.782 38.3373 5.782 38.104C5.782 37.8613 5.866 37.656 6.034 37.488C6.21133 37.3107 6.41667 37.222 6.65 37.222C6.89267 37.222 7.09333 37.3107 7.252 37.488C7.42 37.656 7.504 37.8613 7.504 38.104C7.504 38.3373 7.42 38.538 7.252 38.706C7.09333 38.874 6.89267 38.958 6.65 38.958ZM4.466 38.958C4.242 38.958 4.04133 38.874 3.864 38.706C3.696 38.538 3.612 38.3373 3.612 38.104C3.612 37.8613 3.696 37.656 3.864 37.488C4.032 37.3107 4.23267 37.222 4.466 37.222C4.70867 37.222 4.914 37.3107 5.082 37.488C5.25 37.656 5.334 37.8613 5.334 38.104C5.334 38.3373 5.25 38.538 5.082 38.706C4.914 38.874 4.70867 38.958 4.466 38.958ZM15.1612 46C14.6479 46 14.1906 45.8833 13.7892 45.65C13.3972 45.4167 13.0846 45.0993 12.8512 44.698C12.6272 44.2967 12.5152 43.8393 12.5152 43.326V38.818C12.5152 38.5007 12.4732 38.2533 12.3892 38.076C12.3052 37.8893 12.2072 37.7493 12.0952 37.656C11.9832 37.5627 11.8899 37.4927 11.8152 37.446C11.8339 37.3807 11.8806 37.2967 11.9552 37.194C12.0299 37.082 12.1419 36.984 12.2912 36.9C12.4406 36.8067 12.6272 36.76 12.8512 36.76C13.0846 36.76 13.2946 36.8207 13.4812 36.942C13.6679 37.0633 13.8172 37.2453 13.9292 37.488C14.0412 37.7307 14.0972 38.0293 14.0972 38.384V43.326C14.0972 43.5407 14.1346 43.76 14.2092 43.984C14.2839 44.1987 14.4006 44.376 14.5592 44.516C14.7179 44.656 14.9186 44.726 15.1612 44.726H15.5532V46H15.1612ZM15.5532 46V44.726C15.6652 44.726 15.7399 44.782 15.7772 44.894C15.8146 45.006 15.8332 45.16 15.8332 45.356C15.8332 45.552 15.8146 45.7107 15.7772 45.832C15.7399 45.944 15.6652 46 15.5532 46ZM15.5586 46V44.726H22.7546C23.1839 44.726 23.5386 44.642 23.8186 44.474C24.1079 44.306 24.3226 44.0773 24.4626 43.788C24.6026 43.4987 24.6726 43.1813 24.6726 42.836C24.6726 42.3133 24.5466 41.884 24.2946 41.548C24.0519 41.212 23.7393 40.9647 23.3566 40.806C22.9833 40.638 22.5913 40.554 22.1806 40.554C21.7419 40.554 21.3453 40.638 20.9906 40.806C20.6359 40.974 20.3233 41.1887 20.0526 41.45C19.7819 41.7113 19.5486 41.9867 19.3526 42.276C19.1566 42.5653 18.9979 42.836 18.8766 43.088C18.7646 43.3307 18.6853 43.522 18.6386 43.662L18.6946 41.926C18.8066 41.646 18.9746 41.352 19.1986 41.044C19.4226 40.736 19.6979 40.4513 20.0246 40.19C20.3513 39.9193 20.7246 39.7 21.1446 39.532C21.5646 39.364 22.0313 39.28 22.5446 39.28C22.9739 39.28 23.4079 39.35 23.8466 39.49C24.2853 39.63 24.6866 39.8493 25.0506 40.148C25.4146 40.4467 25.7039 40.8247 25.9186 41.282C26.1426 41.7393 26.2546 42.29 26.2546 42.934C26.2546 43.3073 26.2079 43.676 26.1146 44.04C26.0213 44.404 25.8626 44.7353 25.6386 45.034C25.4146 45.3233 25.1113 45.5567 24.7286 45.734C24.3553 45.9113 23.8839 46 23.3146 46H15.5586ZM17.1406 45.132V38.818C17.1406 38.5007 17.0986 38.2533 17.0146 38.076C16.9399 37.8893 16.8466 37.7493 16.7346 37.656C16.6226 37.5627 16.5293 37.4927 16.4546 37.446C16.4639 37.3807 16.5059 37.2967 16.5806 37.194C16.6646 37.082 16.7813 36.984 16.9306 36.9C17.0799 36.8067 17.2619 36.76 17.4766 36.76C17.7193 36.76 17.9339 36.8207 18.1206 36.942C18.3073 37.0633 18.4566 37.2453 18.5686 37.488C18.6806 37.7307 18.7366 38.0293 18.7366 38.384V45.132H17.1406ZM15.5586 46C15.4559 46 15.3859 45.944 15.3486 45.832C15.3019 45.7107 15.2786 45.552 15.2786 45.356C15.2786 45.16 15.3019 45.006 15.3486 44.894C15.3859 44.782 15.4559 44.726 15.5586 44.726V46ZM21.2706 38.37C20.9999 38.37 20.7713 38.2813 20.5846 38.104C20.4073 37.9173 20.3186 37.698 20.3186 37.446C20.3186 37.194 20.4073 36.9793 20.5846 36.802C20.7713 36.6153 20.9953 36.522 21.2566 36.522C21.5086 36.522 21.7233 36.6153 21.9006 36.802C22.0873 36.9793 22.1806 37.194 22.1806 37.446C22.1806 37.698 22.0873 37.9173 21.9006 38.104C21.7233 38.2813 21.5133 38.37 21.2706 38.37ZM33.718 46V44.726H34.936V46H33.718ZM30.932 46C30.3907 46 29.896 45.8693 29.448 45.608C29.0093 45.3373 28.664 44.95 28.412 44.446C28.16 43.942 28.034 43.3353 28.034 42.626C28.034 41.5713 28.3233 40.75 28.902 40.162C29.49 39.574 30.2787 39.28 31.268 39.28C31.996 39.28 32.584 39.4293 33.032 39.728C33.4893 40.0173 33.718 40.386 33.718 40.834V46H32.136V40.834C32.0987 40.75 32.0053 40.6847 31.856 40.638C31.7067 40.582 31.5107 40.554 31.268 40.554C30.7267 40.554 30.316 40.722 30.036 41.058C29.7653 41.394 29.63 41.9167 29.63 42.626C29.63 43.298 29.7653 43.816 30.036 44.18C30.3067 44.544 30.6987 44.726 31.212 44.726H33.718V46H30.932ZM32.01 49.206C31.8233 49.206 31.6647 49.1687 31.534 49.094C31.4033 49.0287 31.3007 48.9447 31.226 48.842C31.1513 48.7393 31.1047 48.6553 31.086 48.59C31.3567 48.366 31.5667 48.128 31.716 47.876C31.8653 47.624 31.9727 47.3393 32.038 47.022C32.1033 46.714 32.136 46.3733 32.136 46V44.726H33.718V46C33.718 46.3733 33.6853 46.7467 33.62 47.12C33.564 47.5027 33.466 47.8527 33.326 48.17C33.1953 48.4873 33.0227 48.7393 32.808 48.926C32.5933 49.1127 32.3273 49.206 32.01 49.206ZM34.936 46V44.726C35.0387 44.726 35.1087 44.782 35.146 44.894C35.1927 45.006 35.216 45.16 35.216 45.356C35.216 45.552 35.1927 45.7107 35.146 45.832C35.1087 45.944 35.0387 46 34.936 46ZM42.6176 46C42.1136 46 41.661 45.8833 41.2596 45.65C40.8583 45.4167 40.541 45.0993 40.3076 44.698C40.0836 44.2967 39.9716 43.8393 39.9716 43.326H41.5676C41.5676 43.5407 41.605 43.76 41.6796 43.984C41.7543 44.1987 41.871 44.376 42.0296 44.516C42.1883 44.656 42.3843 44.726 42.6176 44.726H43.2476V46H42.6176ZM34.9316 46V44.726H38.8096C39.1736 44.726 39.4583 44.6093 39.6636 44.376C39.869 44.1333 39.9716 43.7973 39.9716 43.368V40.834C39.9343 40.75 39.841 40.6847 39.6916 40.638C39.5516 40.582 39.3556 40.554 39.1036 40.554C38.5623 40.554 38.1516 40.722 37.8716 41.058C37.601 41.394 37.4656 41.9167 37.4656 42.626C37.4656 43.298 37.601 43.8113 37.8716 44.166C38.1423 44.5113 38.5343 44.698 39.0476 44.726L38.7816 45.986C38.2403 45.93 37.7503 45.776 37.3116 45.524C36.8823 45.2627 36.5323 44.894 36.2616 44.418C36.0003 43.9327 35.8696 43.3353 35.8696 42.626C35.8696 41.5713 36.1636 40.75 36.7516 40.162C37.3396 39.574 38.1236 39.28 39.1036 39.28C39.8316 39.28 40.4243 39.4293 40.8816 39.728C41.339 40.0173 41.5676 40.386 41.5676 40.834V43.368C41.5676 43.872 41.4463 44.3247 41.2036 44.726C40.9703 45.118 40.6483 45.4307 40.2376 45.664C39.827 45.888 39.351 46 38.8096 46H34.9316ZM34.9316 46C34.829 46 34.759 45.944 34.7216 45.832C34.675 45.7107 34.6516 45.552 34.6516 45.356C34.6516 45.16 34.675 45.006 34.7216 44.894C34.759 44.782 34.829 44.726 34.9316 44.726V46ZM43.2476 46V44.726C43.3503 44.726 43.4203 44.782 43.4576 44.894C43.5043 45.006 43.5276 45.16 43.5276 45.356C43.5276 45.552 43.5043 45.7107 43.4576 45.832C43.4203 45.944 43.3503 46 43.2476 46ZM39.1456 38.37C38.875 38.37 38.6463 38.2813 38.4596 38.104C38.2823 37.9173 38.1936 37.698 38.1936 37.446C38.1936 37.194 38.2823 36.9793 38.4596 36.802C38.6463 36.6153 38.8703 36.522 39.1316 36.522C39.3836 36.522 39.5983 36.6153 39.7756 36.802C39.9623 36.9793 40.0556 37.194 40.0556 37.446C40.0556 37.698 39.9623 37.9173 39.7756 38.104C39.5983 38.2813 39.3883 38.37 39.1456 38.37ZM51.2941 46C50.7901 46 50.3375 45.8833 49.9361 45.65C49.5348 45.4167 49.2175 45.0993 48.9841 44.698C48.7601 44.2967 48.6481 43.8393 48.6481 43.326V43.032H50.2441V43.326C50.2441 43.5407 50.2815 43.76 50.3561 43.984C50.4308 44.1987 50.5475 44.376 50.7061 44.516C50.8648 44.656 51.0608 44.726 51.2941 44.726H51.9241V46H51.2941ZM43.2441 46V44.726H47.5981C47.9341 44.726 48.1908 44.6 48.3681 44.348C48.5548 44.096 48.6481 43.6667 48.6481 43.06C48.6481 42.1733 48.4428 41.534 48.0321 41.142C47.6215 40.75 47.0101 40.554 46.1981 40.554C46.0581 40.554 45.9041 40.5587 45.7361 40.568C45.5681 40.568 45.4048 40.5727 45.2461 40.582C45.0968 40.5913 44.9615 40.596 44.8401 40.596C44.5695 40.596 44.3455 40.54 44.1681 40.428C44.0001 40.316 43.8741 40.1667 43.7901 39.98C43.7061 39.784 43.6548 39.5833 43.6361 39.378C43.6268 39.2193 43.6408 39.098 43.6781 39.014C43.7248 38.9207 43.7715 38.8693 43.8181 38.86C43.8835 38.972 44.0048 39.0793 44.1821 39.182C44.3595 39.2753 44.6115 39.322 44.9381 39.322C45.0315 39.322 45.1528 39.3173 45.3021 39.308C45.4515 39.2987 45.6055 39.294 45.7641 39.294C45.9321 39.2847 46.0721 39.28 46.1841 39.28C46.9028 39.28 47.5188 39.378 48.0321 39.574C48.5455 39.77 48.9655 40.0407 49.2921 40.386C49.6188 40.7313 49.8568 41.1327 50.0061 41.59C50.1648 42.0473 50.2441 42.5327 50.2441 43.046C50.2441 43.7647 50.1135 44.3433 49.8521 44.782C49.6001 45.2113 49.2735 45.524 48.8721 45.72C48.4708 45.9067 48.0461 46 47.5981 46H43.2441ZM43.2441 46C43.1415 46 43.0715 45.944 43.0341 45.832C42.9875 45.7107 42.9641 45.552 42.9641 45.356C42.9641 45.16 42.9875 45.006 43.0341 44.894C43.0715 44.782 43.1415 44.726 43.2441 44.726V46ZM51.9241 46V44.726C52.0361 44.726 52.1108 44.782 52.1481 44.894C52.1855 45.006 52.2041 45.16 52.2041 45.356C52.2041 45.552 52.1855 45.7107 52.1481 45.832C52.1108 45.944 52.0361 46 51.9241 46ZM51.9258 46V44.726H55.2298C55.7431 44.726 56.1351 44.544 56.4058 44.18C56.6858 43.816 56.8258 43.298 56.8258 42.626C56.8258 41.9167 56.6858 41.394 56.4058 41.058C56.1258 40.722 55.7151 40.554 55.1738 40.554C54.9311 40.554 54.7351 40.582 54.5858 40.638C54.4458 40.6847 54.3524 40.75 54.3058 40.834V46H52.7238V40.834C52.7238 40.386 52.9524 40.0173 53.4098 39.728C53.8671 39.4293 54.4551 39.28 55.1738 39.28C56.1631 39.28 56.9471 39.574 57.5258 40.162C58.1138 40.75 58.4078 41.5713 58.4078 42.626C58.4078 43.3353 58.2818 43.942 58.0298 44.446C57.7778 44.95 57.4324 45.3373 56.9938 45.608C56.5551 45.8693 56.0604 46 55.5098 46H51.9258ZM51.9258 46C51.8231 46 51.7531 45.944 51.7158 45.832C51.6691 45.7107 51.6458 45.552 51.6458 45.356C51.6458 45.16 51.6691 45.006 51.7158 44.894C51.7531 44.782 51.8231 44.726 51.9258 44.726V46Z" fill="#FF00E6"/>
</svg>
