<svg width="57" height="54" viewBox="0 0 57 54" fill="none" xmlns="http://www.w3.org/2000/svg">
<path d="M38 18.33C38 18.69 37.9199 19.06 37.7496 19.42C37.5794 19.78 37.359 20.12 37.0686 20.44C36.5779 20.98 36.0371 21.37 35.4261 21.62C34.8252 21.87 34.1743 22 33.4732 22C32.4517 22 31.36 21.76 30.2083 21.27C29.0566 20.78 27.9049 20.12 26.7631 19.29C25.5995 18.4401 24.5014 17.5041 23.4782 16.49C22.4655 15.472 21.5314 14.3789 20.684 13.22C19.8628 12.08 19.2018 10.94 18.7211 9.81C18.2404 8.67 18 7.58 18 6.54C18 5.86 18.1202 5.21 18.3605 4.61C18.6009 4 18.9815 3.44 19.5123 2.94C20.1532 2.31 20.8543 2 21.5954 2C21.8758 2 22.1562 2.06 22.4066 2.18C22.667 2.3 22.8973 2.48 23.0776 2.74L25.4011 6.01C25.5814 6.26 25.7116 6.49 25.8017 6.71C25.8918 6.92 25.9419 7.13 25.9419 7.32C25.9419 7.56 25.8718 7.8 25.7316 8.03C25.6014 8.26 25.4111 8.5 25.1708 8.74L24.4096 9.53C24.2994 9.64 24.2494 9.77 24.2494 9.93C24.2494 10.01 24.2594 10.08 24.2794 10.16C24.3095 10.24 24.3395 10.3 24.3595 10.36C24.5398 10.69 24.8503 11.12 25.2909 11.64C25.7416 12.16 26.2223 12.69 26.7431 13.22C27.2839 13.75 27.8047 14.24 28.3355 14.69C28.8563 15.13 29.2869 15.43 29.6274 15.61C29.6775 15.63 29.7376 15.66 29.8077 15.69C29.8878 15.72 29.968 15.73 30.0581 15.73C30.2283 15.73 30.3585 15.67 30.4687 15.56L31.2298 14.81C31.4802 14.56 31.7206 14.37 31.9509 14.25C32.1813 14.11 32.4116 14.04 32.662 14.04C32.8523 14.04 33.0526 14.08 33.2729 14.17C33.4932 14.26 33.7236 14.39 33.974 14.56L37.2889 16.91C37.5493 17.09 37.7296 17.3 37.8398 17.55C37.9399 17.8 38 18.05 38 18.33Z" stroke="#8B8D97" stroke-width="1.5" stroke-miterlimit="10"/>
<path d="M5.054 53.304C4.17667 53.304 3.42533 53.1547 2.8 52.856C2.184 52.5573 1.71267 52.142 1.386 51.61C1.06867 51.0873 0.91 50.49 0.91 49.818C0.91 49.5567 0.938 49.2533 0.994 48.908C1.05 48.5627 1.14333 48.2267 1.274 47.9C1.40467 47.564 1.57733 47.2887 1.792 47.074C2.00667 46.85 2.282 46.738 2.618 46.738C2.76733 46.738 2.898 46.7613 3.01 46.808C3.122 46.8547 3.21067 46.9107 3.276 46.976C3.35067 47.0413 3.40667 47.102 3.444 47.158C3.14533 47.41 2.912 47.6853 2.744 47.984C2.58533 48.2733 2.47333 48.572 2.408 48.88C2.34267 49.188 2.31 49.4913 2.31 49.79C2.31 50.6207 2.55733 51.2273 3.052 51.61C3.54667 52.002 4.214 52.198 5.054 52.198C5.84733 52.198 6.41667 52.016 6.762 51.652C7.10733 51.288 7.28 50.6813 7.28 49.832V43.98C7.28 43.7467 7.34067 43.574 7.462 43.462C7.59267 43.3407 7.77 43.28 7.994 43.28C8.20867 43.28 8.37667 43.3407 8.498 43.462C8.62867 43.574 8.694 43.7467 8.694 43.98V49.832C8.694 50.8867 8.40467 51.7267 7.826 52.352C7.24733 52.9867 6.32333 53.304 5.054 53.304ZM4.816 43.28C4.564 43.28 4.354 43.196 4.186 43.028C4.018 42.86 3.934 42.6593 3.934 42.426C3.934 42.1927 4.018 41.992 4.186 41.824C4.354 41.6467 4.564 41.558 4.816 41.558C5.04 41.558 5.236 41.6467 5.404 41.824C5.58133 41.992 5.67 42.1927 5.67 42.426C5.67 42.6593 5.58133 42.86 5.404 43.028C5.236 43.196 5.04 43.28 4.816 43.28ZM10.7733 50C10.624 50 10.5073 49.944 10.4233 49.832C10.3487 49.7107 10.3113 49.58 10.3113 49.44C10.3113 49.3 10.3487 49.174 10.4233 49.062C10.5073 48.95 10.6287 48.894 10.7873 48.894H15.2953C15.566 48.894 15.7853 48.8147 15.9533 48.656C16.1213 48.4973 16.2473 48.3013 16.3313 48.068C16.4153 47.8347 16.4573 47.5967 16.4573 47.354V42.832C16.4573 42.524 16.4153 42.2673 16.3313 42.062C16.2567 41.8473 16.1587 41.6747 16.0373 41.544C15.9253 41.4133 15.818 41.32 15.7153 41.264C15.7433 41.208 15.7993 41.1427 15.8833 41.068C15.9673 40.984 16.0747 40.914 16.2053 40.858C16.3453 40.7927 16.504 40.76 16.6813 40.76C16.8867 40.76 17.078 40.8113 17.2553 40.914C17.4327 41.0167 17.5773 41.1847 17.6893 41.418C17.8013 41.6513 17.8573 41.9593 17.8573 42.342V47.354C17.8573 47.858 17.7453 48.3107 17.5213 48.712C17.3067 49.1133 17.008 49.4307 16.6253 49.664C16.2427 49.888 15.7993 50 15.2953 50H10.7733ZM12.6073 48.894V44.806C12.6073 44.498 12.5653 44.2413 12.4813 44.036C12.3973 43.8213 12.2947 43.6487 12.1733 43.518C12.0613 43.3873 11.9587 43.294 11.8653 43.238C11.8933 43.182 11.9493 43.1167 12.0333 43.042C12.1173 42.958 12.2247 42.888 12.3553 42.832C12.4953 42.7667 12.654 42.734 12.8313 42.734C13.0367 42.734 13.228 42.7853 13.4053 42.888C13.5827 42.9907 13.7273 43.1587 13.8393 43.392C13.9513 43.6253 14.0073 43.9333 14.0073 44.316V48.894H12.6073ZM20.9132 50C20.6052 50 20.4138 49.9113 20.3392 49.734C20.2645 49.5473 20.2272 49.3327 20.2272 49.09V42.832C20.2272 42.524 20.1852 42.2673 20.1012 42.062C20.0172 41.8473 19.9145 41.6747 19.7932 41.544C19.6812 41.4133 19.5785 41.32 19.4852 41.264C19.5132 41.208 19.5692 41.1427 19.6532 41.068C19.7372 40.984 19.8492 40.914 19.9892 40.858C20.1292 40.7927 20.2878 40.76 20.4652 40.76C20.6612 40.76 20.8478 40.8113 21.0252 40.914C21.2025 41.0167 21.3472 41.1847 21.4592 41.418C21.5712 41.6513 21.6272 41.9593 21.6272 42.342V49.09C21.6272 49.3327 21.5852 49.5473 21.5012 49.734C21.4172 49.9113 21.2212 50 20.9132 50ZM35.6822 50C35.1875 50 34.7442 49.888 34.3522 49.664C33.9695 49.4307 33.6662 49.1133 33.4422 48.712C33.2182 48.3107 33.1062 47.858 33.1062 47.354H34.5202C34.5202 47.5967 34.5622 47.8347 34.6462 48.068C34.7302 48.3013 34.8562 48.4973 35.0242 48.656C35.2015 48.8147 35.4208 48.894 35.6822 48.894H36.2422V50H35.6822ZM30.8802 53.304C30.0028 53.304 29.2515 53.1547 28.6262 52.856C28.0102 52.5573 27.5388 52.142 27.2122 51.61C26.8948 51.0873 26.7362 50.49 26.7362 49.818C26.7362 49.5567 26.7642 49.2533 26.8202 48.908C26.8762 48.5627 26.9695 48.2267 27.1002 47.9C27.2308 47.564 27.4035 47.2887 27.6182 47.074C27.8328 46.85 28.1082 46.738 28.4442 46.738C28.5935 46.738 28.7242 46.7613 28.8362 46.808C28.9482 46.8547 29.0368 46.9107 29.1022 46.976C29.1768 47.0413 29.2328 47.102 29.2702 47.158C28.9715 47.41 28.7382 47.6853 28.5702 47.984C28.4115 48.2733 28.2995 48.572 28.2342 48.88C28.1688 49.188 28.1362 49.4913 28.1362 49.79C28.1362 50.6207 28.3835 51.2273 28.8782 51.61C29.3728 52.002 30.0402 52.198 30.8802 52.198C31.6735 52.198 32.2428 52.016 32.5882 51.652C32.9335 51.288 33.1062 50.6813 33.1062 49.832V42.832C33.1062 42.524 33.0642 42.2673 32.9802 42.062C32.9055 41.8473 32.8075 41.6747 32.6862 41.544C32.5742 41.4133 32.4715 41.32 32.3782 41.264C32.4062 41.208 32.4622 41.1427 32.5462 41.068C32.6302 40.984 32.7375 40.914 32.8682 40.858C33.0082 40.7927 33.1622 40.76 33.3302 40.76C33.5355 40.76 33.7268 40.8113 33.9042 40.914C34.0908 41.0167 34.2402 41.1847 34.3522 41.418C34.4642 41.6513 34.5202 41.9593 34.5202 42.342V49.832C34.5202 50.8867 34.2308 51.7267 33.6522 52.352C33.0735 52.9867 32.1495 53.304 30.8802 53.304ZM36.2422 50V48.894C36.3448 48.894 36.4148 48.9407 36.4522 49.034C36.4988 49.1273 36.5222 49.2627 36.5222 49.44C36.5222 49.608 36.4988 49.7433 36.4522 49.846C36.4148 49.9487 36.3448 50 36.2422 50ZM47.3181 50C46.8235 50 46.3801 49.888 45.9881 49.664C45.6055 49.4307 45.3021 49.1133 45.0781 48.712C44.8635 48.3107 44.7561 47.858 44.7561 47.354L46.1561 47.004V47.354C46.1561 47.5967 46.1981 47.8347 46.2821 48.068C46.3661 48.3013 46.4921 48.4973 46.6601 48.656C46.8375 48.8147 47.0568 48.894 47.3181 48.894H47.8781V50H47.3181ZM36.2441 50V48.894H43.5661C43.9301 48.894 44.2195 48.7493 44.4341 48.46C44.6488 48.1613 44.7561 47.6807 44.7561 47.018C44.7561 46.0847 44.5415 45.4127 44.1121 45.002C43.6921 44.5913 43.1135 44.386 42.3761 44.386C41.7975 44.386 41.3075 44.4933 40.9061 44.708C40.5141 44.9227 40.1875 45.198 39.9261 45.534C39.6648 45.8607 39.4548 46.2153 39.2961 46.598C39.1375 46.9807 39.0068 47.3493 38.9041 47.704L38.2461 47.494C38.3395 47.13 38.4468 46.752 38.5681 46.36C38.6895 45.9587 38.8388 45.5807 39.0161 45.226C39.2028 44.862 39.4361 44.5353 39.7161 44.246C40.0055 43.9473 40.3648 43.714 40.7941 43.546C41.2235 43.3687 41.7461 43.28 42.3621 43.28C43.5568 43.28 44.4855 43.6067 45.1481 44.26C45.8201 44.9133 46.1561 45.828 46.1561 47.004C46.1561 47.9467 45.9275 48.684 45.4701 49.216C45.0221 49.7387 44.3875 50 43.5661 50H36.2441ZM37.4901 50V45.618C37.4901 45.3473 37.4155 45.1047 37.2661 44.89C37.1168 44.666 36.9675 44.5073 36.8181 44.414C36.8835 44.3207 36.9955 44.2273 37.1541 44.134C37.3221 44.0407 37.5181 43.994 37.7421 43.994C37.9008 43.994 38.0501 44.0267 38.1901 44.092C38.3301 44.148 38.4515 44.2367 38.5541 44.358C38.6661 44.4793 38.7501 44.638 38.8061 44.834C38.8715 45.0207 38.9041 45.2447 38.9041 45.506V50H37.4901ZM36.2441 50C36.1415 50 36.0715 49.9487 36.0341 49.846C35.9875 49.7433 35.9641 49.608 35.9641 49.44C35.9641 49.2627 35.9875 49.1273 36.0341 49.034C36.0715 48.9407 36.1415 48.894 36.2441 48.894V50ZM47.8781 50V48.894C47.9901 48.894 48.0648 48.9407 48.1021 49.034C48.1395 49.1273 48.1581 49.2627 48.1581 49.44C48.1581 49.608 48.1395 49.7433 48.1021 49.846C48.0648 49.9487 47.9901 50 47.8781 50ZM47.8789 50V48.894H48.9149C49.1576 48.894 49.3629 48.8333 49.5309 48.712C49.6989 48.5907 49.8342 48.4367 49.9369 48.25C50.0396 48.0633 50.1189 47.8627 50.1749 47.648C50.2309 47.4333 50.2636 47.2233 50.2729 47.018C50.2916 46.8127 50.3009 46.64 50.3009 46.5C50.3009 46.192 50.2729 45.8793 50.2169 45.562C50.1609 45.2353 50.0536 44.9133 49.8949 44.596C49.7362 44.2693 49.4936 43.9753 49.1669 43.714C49.2042 43.6487 49.2556 43.5833 49.3209 43.518C49.3956 43.4527 49.4889 43.3967 49.6009 43.35C49.7129 43.3033 49.8482 43.28 50.0069 43.28C50.3149 43.28 50.5762 43.3827 50.7909 43.588C51.0149 43.784 51.1922 44.0453 51.3229 44.372C51.4536 44.6987 51.5469 45.0533 51.6029 45.436C51.6682 45.8093 51.7009 46.1733 51.7009 46.528C51.7009 47.6107 51.4536 48.46 50.9589 49.076C50.4736 49.692 49.7922 50 48.9149 50H47.8789ZM47.8789 50C47.7762 50 47.7062 49.9487 47.6689 49.846C47.6222 49.7433 47.5989 49.608 47.5989 49.44C47.5989 49.2627 47.6222 49.1273 47.6689 49.034C47.7062 48.9407 47.7762 48.894 47.8789 48.894V50ZM51.0849 42.356C50.8609 42.356 50.6649 42.2767 50.4969 42.118C50.3382 41.95 50.2589 41.754 50.2589 41.53C50.2589 41.2967 50.3382 41.1007 50.4969 40.942C50.6649 40.774 50.8609 40.69 51.0849 40.69C51.3182 40.69 51.5142 40.774 51.6729 40.942C51.8316 41.1007 51.9109 41.2967 51.9109 41.53C51.9109 41.754 51.8316 41.95 51.6729 42.118C51.5142 42.2767 51.3182 42.356 51.0849 42.356ZM48.9849 42.356C48.7609 42.356 48.5649 42.2767 48.3969 42.118C48.2382 41.95 48.1589 41.754 48.1589 41.53C48.1589 41.2967 48.2382 41.1007 48.3969 40.942C48.5649 40.774 48.7609 40.69 48.9849 40.69C49.2182 40.69 49.4142 40.774 49.5729 40.942C49.7316 41.1007 49.8109 41.2967 49.8109 41.53C49.8109 41.754 49.7316 41.95 49.5729 42.118C49.4142 42.2767 49.2182 42.356 48.9849 42.356ZM54.7374 50C54.4294 50 54.238 49.9113 54.1634 49.734C54.0887 49.5473 54.0514 49.3327 54.0514 49.09V42.832C54.0514 42.524 54.0094 42.2673 53.9254 42.062C53.8414 41.8473 53.7387 41.6747 53.6174 41.544C53.5054 41.4133 53.4027 41.32 53.3094 41.264C53.3374 41.208 53.3934 41.1427 53.4774 41.068C53.5614 40.984 53.6734 40.914 53.8134 40.858C53.9534 40.7927 54.112 40.76 54.2894 40.76C54.4854 40.76 54.672 40.8113 54.8494 40.914C55.0267 41.0167 55.1714 41.1847 55.2834 41.418C55.3954 41.6513 55.4514 41.9593 55.4514 42.342V49.09C55.4514 49.3327 55.4094 49.5473 55.3254 49.734C55.2414 49.9113 55.0454 50 54.7374 50Z" fill="#8B8D97"/>
</svg>
