<svg width="110" height="32" viewBox="0 0 96 22" fill="none" xmlns="http://www.w3.org/2000/svg">
<path d="M32.046 14C31.5327 14 31.0753 13.8833 30.674 13.65C30.282 13.4167 29.9693 13.0993 29.736 12.698C29.512 12.2967 29.4 11.8393 29.4 11.326V6.818C29.4 6.50067 29.358 6.25333 29.274 6.076C29.19 5.88933 29.092 5.74933 28.98 5.656C28.868 5.56267 28.7747 5.49267 28.7 5.446C28.7187 5.38067 28.7653 5.29667 28.84 5.194C28.9147 5.082 29.0267 4.984 29.176 4.9C29.3253 4.80667 29.512 4.76 29.736 4.76C29.9693 4.76 30.1793 4.82067 30.366 4.942C30.5527 5.06333 30.702 5.24533 30.814 5.488C30.926 5.73067 30.982 6.02933 30.982 6.384V11.326C30.982 11.5407 31.0193 11.76 31.094 11.984C31.1687 12.1987 31.2853 12.376 31.444 12.516C31.6027 12.656 31.8033 12.726 32.046 12.726H32.438V14H32.046ZM32.438 14V12.726C32.55 12.726 32.6247 12.782 32.662 12.894C32.6993 13.006 32.718 13.16 32.718 13.356C32.718 13.552 32.6993 13.7107 32.662 13.832C32.6247 13.944 32.55 14 32.438 14ZM32.4434 14V12.726H33.0034C33.2554 12.726 33.456 12.656 33.6054 12.516C33.764 12.376 33.8807 12.1987 33.9554 11.984C34.03 11.76 34.0674 11.5407 34.0674 11.326V8.078C34.0674 7.854 34.128 7.66733 34.2494 7.518C34.38 7.35933 34.5854 7.28 34.8654 7.28C35.136 7.28 35.332 7.35933 35.4534 7.518C35.584 7.66733 35.6494 7.854 35.6494 8.078V11.326C35.6494 11.8393 35.5327 12.2967 35.2994 12.698C35.0754 13.0993 34.7674 13.4167 34.3754 13.65C33.9834 13.8833 33.526 14 33.0034 14H32.4434ZM36.7134 14C36.2 14 35.7427 13.8833 35.3414 13.65C34.9494 13.4167 34.6367 13.0993 34.4034 12.698C34.1794 12.2967 34.0674 11.8393 34.0674 11.326H35.6494C35.6494 11.5407 35.6867 11.76 35.7614 11.984C35.836 12.1987 35.9527 12.376 36.1114 12.516C36.2794 12.656 36.48 12.726 36.7134 12.726H37.3434V14H36.7134ZM37.3434 14V12.726C37.446 12.726 37.516 12.782 37.5534 12.894C37.6 13.006 37.6234 13.16 37.6234 13.356C37.6234 13.552 37.6 13.7107 37.5534 13.832C37.516 13.944 37.446 14 37.3434 14ZM32.4434 14C32.3407 14 32.2707 13.944 32.2334 13.832C32.1867 13.7107 32.1634 13.552 32.1634 13.356C32.1634 13.16 32.1867 13.006 32.2334 12.894C32.2707 12.782 32.3407 12.726 32.4434 12.726V14ZM34.8794 6.37C34.6087 6.37 34.38 6.28133 34.1934 6.104C34.016 5.91733 33.9274 5.698 33.9274 5.446C33.9274 5.194 34.016 4.97933 34.1934 4.802C34.38 4.61533 34.604 4.522 34.8654 4.522C35.1174 4.522 35.332 4.61533 35.5094 4.802C35.696 4.97933 35.7894 5.194 35.7894 5.446C35.7894 5.698 35.696 5.91733 35.5094 6.104C35.332 6.28133 35.122 6.37 34.8794 6.37ZM37.3379 14V12.726H39.7459C40.2686 12.726 40.7679 12.6467 41.2439 12.488C41.7292 12.3293 42.1632 12.1193 42.5459 11.858C42.9286 11.5873 43.2272 11.284 43.4419 10.948C43.6566 10.6027 43.7639 10.2527 43.7639 9.898C43.7639 9.46867 43.5959 9.13733 43.2599 8.904C42.9239 8.67067 42.4152 8.554 41.7339 8.554C41.0619 8.554 40.5532 8.67067 40.2079 8.904C39.8719 9.128 39.7039 9.45933 39.7039 9.898C39.7039 10.2527 39.8112 10.6027 40.0259 10.948C40.2499 11.284 40.5486 11.5873 40.9219 11.858C41.3046 12.1193 41.7386 12.3293 42.2239 12.488C42.7092 12.6467 43.2086 12.726 43.7219 12.726H46.1299V14H43.7219C43.0779 14 42.4246 13.8973 41.7619 13.692C41.0992 13.4867 40.4926 13.202 39.9419 12.838C39.3912 12.4647 38.9479 12.0307 38.6119 11.536C38.2759 11.032 38.1079 10.486 38.1079 9.898C38.1079 9.43133 38.2152 9.03467 38.4299 8.708C38.6446 8.372 38.9292 8.10133 39.2839 7.896C39.6479 7.68133 40.0399 7.52733 40.4599 7.434C40.8892 7.33133 41.3139 7.28 41.7339 7.28C42.1539 7.28 42.5739 7.33133 42.9939 7.434C43.4232 7.52733 43.8152 7.67667 44.1699 7.882C44.5246 8.08733 44.8092 8.358 45.0239 8.694C45.2479 9.02067 45.3599 9.422 45.3599 9.898C45.3599 10.486 45.1919 11.032 44.8559 11.536C44.5292 12.0307 44.0906 12.4647 43.5399 12.838C42.9892 13.202 42.3826 13.4867 41.7199 13.692C41.0572 13.8973 40.3992 14 39.7459 14H37.3379ZM37.3379 14C37.2352 14 37.1652 13.944 37.1279 13.832C37.0812 13.7107 37.0579 13.552 37.0579 13.356C37.0579 13.16 37.0812 13.006 37.1279 12.894C37.1652 12.782 37.2352 12.726 37.3379 12.726V14ZM46.1299 14V12.726C46.2326 12.726 46.3026 12.782 46.3399 12.894C46.3866 13.006 46.4099 13.16 46.4099 13.356C46.4099 13.552 46.3866 13.7107 46.3399 13.832C46.3026 13.944 46.2326 14 46.1299 14ZM46.1289 14V12.726H49.4329C49.9462 12.726 50.3382 12.544 50.6089 12.18C50.8889 11.816 51.0289 11.298 51.0289 10.626C51.0289 9.91667 50.8889 9.394 50.6089 9.058C50.3289 8.722 49.9182 8.554 49.3769 8.554C49.1342 8.554 48.9382 8.582 48.7889 8.638C48.6489 8.68467 48.5556 8.75 48.5089 8.834V14H46.9269V8.834C46.9269 8.386 47.1556 8.01733 47.6129 7.728C48.0702 7.42933 48.6582 7.28 49.3769 7.28C50.3662 7.28 51.1502 7.574 51.7289 8.162C52.3169 8.75 52.6109 9.57133 52.6109 10.626C52.6109 11.3353 52.4849 11.942 52.2329 12.446C51.9809 12.95 51.6356 13.3373 51.1969 13.608C50.7582 13.8693 50.2636 14 49.7129 14H46.1289ZM46.1289 14C46.0262 14 45.9562 13.944 45.9189 13.832C45.8722 13.7107 45.8489 13.552 45.8489 13.356C45.8489 13.16 45.8722 13.006 45.9189 12.894C45.9562 12.782 46.0262 12.726 46.1289 12.726V14ZM66.8684 14C66.3644 14 65.9117 13.8833 65.5104 13.65C65.109 13.4167 64.7917 13.0993 64.5584 12.698C64.3344 12.2967 64.2224 11.8393 64.2224 11.326H65.8184C65.8184 11.5407 65.8557 11.76 65.9304 11.984C66.005 12.1987 66.1217 12.376 66.2804 12.516C66.439 12.656 66.635 12.726 66.8684 12.726H67.4984V14H66.8684ZM62.1084 17.304C61.231 17.304 60.475 17.1547 59.8404 16.856C59.215 16.5667 58.7344 16.1513 58.3984 15.61C58.0624 15.0687 57.8944 14.434 57.8944 13.706C57.8944 13.4167 57.9224 13.104 57.9784 12.768C58.0437 12.4227 58.1417 12.096 58.2724 11.788C58.4124 11.48 58.5897 11.228 58.8044 11.032C59.019 10.8267 59.2804 10.724 59.5884 10.724C59.7844 10.724 59.9477 10.7613 60.0784 10.836C60.209 10.9107 60.3117 10.9947 60.3864 11.088C60.4704 11.1813 60.5217 11.27 60.5404 11.354C60.2884 11.55 60.083 11.7693 59.9244 12.012C59.775 12.2453 59.663 12.5067 59.5884 12.796C59.523 13.0853 59.4904 13.412 59.4904 13.776C59.4904 14.532 59.719 15.0967 60.1764 15.47C60.643 15.8433 61.2917 16.03 62.1224 16.03C62.8784 16.03 63.415 15.8573 63.7324 15.512C64.059 15.176 64.2224 14.5927 64.2224 13.762V6.818C64.2224 6.50067 64.1804 6.25333 64.0964 6.076C64.0217 5.88933 63.9284 5.74933 63.8164 5.656C63.7044 5.56267 63.6064 5.49267 63.5224 5.446C63.541 5.38067 63.5877 5.29667 63.6624 5.194C63.7464 5.082 63.8584 4.984 63.9984 4.9C64.1477 4.80667 64.3344 4.76 64.5584 4.76C64.7917 4.76 65.0017 4.82067 65.1884 4.942C65.3844 5.06333 65.5384 5.24533 65.6504 5.488C65.7624 5.73067 65.8184 6.02933 65.8184 6.384V13.762C65.8184 14.8447 65.5244 15.7033 64.9364 16.338C64.3484 16.982 63.4057 17.304 62.1084 17.304ZM67.4984 14V12.726C67.601 12.726 67.671 12.782 67.7084 12.894C67.755 13.006 67.7784 13.16 67.7784 13.356C67.7784 13.552 67.755 13.7107 67.7084 13.832C67.671 13.944 67.601 14 67.4984 14ZM67.498 14V12.726H74.848C75.184 12.726 75.45 12.5907 75.646 12.32C75.842 12.0493 75.94 11.606 75.94 10.99C75.94 10.1313 75.7394 9.51067 75.338 9.128C74.946 8.74533 74.3954 8.554 73.686 8.554C73.1354 8.554 72.664 8.652 72.272 8.848C71.8894 9.044 71.572 9.296 71.32 9.604C71.068 9.912 70.8627 10.2433 70.704 10.598C70.5547 10.9527 70.4287 11.2933 70.326 11.62L69.556 11.508C69.6774 11.032 69.808 10.584 69.948 10.164C70.0974 9.73467 70.27 9.34733 70.466 9.002C70.6714 8.64733 70.914 8.344 71.194 8.092C71.4834 7.83067 71.8287 7.63 72.23 7.49C72.6314 7.35 73.1074 7.28 73.658 7.28C74.8714 7.28 75.8187 7.60667 76.5 8.26C77.1907 8.91333 77.536 9.81867 77.536 10.976C77.536 11.9187 77.298 12.6607 76.822 13.202C76.3554 13.734 75.6974 14 74.848 14H67.498ZM68.73 14V9.604C68.73 9.34267 68.66 9.11867 68.52 8.932C68.38 8.736 68.2354 8.60067 68.086 8.526C68.1514 8.40467 68.268 8.28333 68.436 8.162C68.6134 8.03133 68.8514 7.966 69.15 7.966C69.3647 7.966 69.5467 8.008 69.696 8.092C69.8454 8.16667 69.9667 8.274 70.06 8.414C70.1534 8.54467 70.2187 8.69867 70.256 8.876C70.3027 9.044 70.326 9.21667 70.326 9.394V14H68.73ZM67.498 14C67.3954 14 67.3254 13.944 67.288 13.832C67.2414 13.7107 67.218 13.552 67.218 13.356C67.218 13.16 67.2414 13.006 67.288 12.894C67.3254 12.782 67.3954 12.726 67.498 12.726V14ZM80.6332 14C80.3066 14 80.0919 13.9067 79.9892 13.72C79.8959 13.524 79.8492 13.3093 79.8492 13.076V6.818C79.8492 6.50067 79.8072 6.25333 79.7232 6.076C79.6392 5.88933 79.5412 5.74933 79.4292 5.656C79.3172 5.56267 79.2239 5.49267 79.1492 5.446C79.1679 5.38067 79.2146 5.29667 79.2892 5.194C79.3639 5.082 79.4759 4.984 79.6252 4.9C79.7746 4.80667 79.9612 4.76 80.1852 4.76C80.4186 4.76 80.6286 4.82067 80.8152 4.942C81.0019 5.06333 81.1512 5.24533 81.2632 5.488C81.3752 5.73067 81.4312 6.02933 81.4312 6.384V13.09C81.4312 13.314 81.3799 13.524 81.2772 13.72C81.1746 13.9067 80.9599 14 80.6332 14ZM88.679 14V12.726H89.897V14H88.679ZM85.893 14C85.3516 14 84.857 13.8693 84.409 13.608C83.9703 13.3373 83.625 12.95 83.373 12.446C83.121 11.942 82.995 11.3353 82.995 10.626C82.995 9.57133 83.2843 8.75 83.863 8.162C84.451 7.574 85.2396 7.28 86.229 7.28C86.957 7.28 87.545 7.42933 87.993 7.728C88.4503 8.01733 88.679 8.386 88.679 8.834V14H87.097V8.834C87.0596 8.75 86.9663 8.68467 86.817 8.638C86.6676 8.582 86.4716 8.554 86.229 8.554C85.6876 8.554 85.277 8.722 84.997 9.058C84.7263 9.394 84.591 9.91667 84.591 10.626C84.591 11.298 84.7263 11.816 84.997 12.18C85.2676 12.544 85.6596 12.726 86.173 12.726H88.679V14H85.893ZM86.971 17.206C86.7843 17.206 86.6256 17.1687 86.495 17.094C86.3643 17.0287 86.2616 16.9447 86.187 16.842C86.1123 16.7393 86.0656 16.6553 86.047 16.59C86.3176 16.366 86.5276 16.128 86.677 15.876C86.8263 15.624 86.9336 15.3393 86.999 15.022C87.0643 14.714 87.097 14.3733 87.097 14V12.726H88.679V14C88.679 14.3733 88.6463 14.7467 88.581 15.12C88.525 15.5027 88.427 15.8527 88.287 16.17C88.1563 16.4873 87.9836 16.7393 87.769 16.926C87.5543 17.1127 87.2883 17.206 86.971 17.206ZM89.897 14V12.726C89.9996 12.726 90.0696 12.782 90.107 12.894C90.1536 13.006 90.177 13.16 90.177 13.356C90.177 13.552 90.1536 13.7107 90.107 13.832C90.0696 13.944 89.9996 14 89.897 14ZM89.8926 14V12.726H91.0406C91.2179 12.726 91.3719 12.6793 91.5026 12.586C91.6426 12.4927 91.7592 12.3713 91.8526 12.222C91.9459 12.0727 92.0206 11.9 92.0766 11.704C92.1419 11.508 92.1839 11.3027 92.2026 11.088C92.2306 10.864 92.2446 10.6447 92.2446 10.43C92.2446 10.0567 92.2072 9.72067 92.1326 9.422C92.0672 9.12333 91.9599 8.848 91.8106 8.596C91.6612 8.344 91.4559 8.11067 91.1946 7.896C91.2132 7.82133 91.2599 7.73733 91.3346 7.644C91.4092 7.54133 91.5119 7.45733 91.6426 7.392C91.7826 7.31733 91.9459 7.28 92.1326 7.28C92.4312 7.28 92.6879 7.37333 92.9026 7.56C93.1266 7.74667 93.3039 7.994 93.4346 8.302C93.5652 8.61 93.6632 8.95067 93.7286 9.324C93.7939 9.69733 93.8266 10.0753 93.8266 10.458C93.8266 11.5593 93.5792 12.4273 93.0846 13.062C92.5992 13.6873 91.9179 14 91.0406 14H89.8926ZM89.8926 14C89.7899 14 89.7199 13.944 89.6826 13.832C89.6359 13.7107 89.6126 13.552 89.6126 13.356C89.6126 13.16 89.6359 13.006 89.6826 12.894C89.7199 12.782 89.7899 12.726 89.8926 12.726V14ZM93.2386 6.328C93.0052 6.328 92.7999 6.244 92.6226 6.076C92.4546 5.908 92.3706 5.70733 92.3706 5.474C92.3706 5.23133 92.4546 5.026 92.6226 4.858C92.7999 4.68067 93.0052 4.592 93.2386 4.592C93.4812 4.592 93.6819 4.68067 93.8406 4.858C94.0086 5.026 94.0926 5.23133 94.0926 5.474C94.0926 5.70733 94.0086 5.908 93.8406 6.076C93.6819 6.244 93.4812 6.328 93.2386 6.328ZM91.0546 6.328C90.8306 6.328 90.6299 6.244 90.4526 6.076C90.2846 5.908 90.2006 5.70733 90.2006 5.474C90.2006 5.23133 90.2846 5.026 90.4526 4.858C90.6206 4.68067 90.8212 4.592 91.0546 4.592C91.2972 4.592 91.5026 4.68067 91.6706 4.858C91.8386 5.026 91.9226 5.23133 91.9226 5.474C91.9226 5.70733 91.8386 5.908 91.6706 6.076C91.5026 6.244 91.2972 6.328 91.0546 6.328Z" fill="#8B8D97"/>
<path d="M5.83325 18.0834H14.1666C16.6666 18.0834 18.3333 16.8334 18.3333 13.9167V8.08335C18.3333 5.16669 16.6666 3.91669 14.1666 3.91669H5.83325C3.33325 3.91669 1.66659 5.16669 1.66659 8.08335V13.9167C1.66659 16.8334 3.33325 18.0834 5.83325 18.0834Z" stroke="#8B8D97" stroke-width="1.5" stroke-miterlimit="10" stroke-linecap="round" stroke-linejoin="round"/>
<path d="M5.83341 8.5L8.44175 10.5833C9.30008 11.2667 10.7084 11.2667 11.5667 10.5833L14.1667 8.5" stroke="#8B8D97" stroke-width="1.5" stroke-miterlimit="10" stroke-linecap="round" stroke-linejoin="round"/>
</svg>
