<svg width="49" height="46" viewBox="0 0 49 46" fill="none" xmlns="http://www.w3.org/2000/svg">
<path d="M24.62 20.71C24.28 20.83 23.72 20.83 23.38 20.71C20.48 19.72 14 15.59 14 8.59C14 5.5 16.49 3 19.56 3C21.38 3 22.99 3.88 24 5.24C24.5138 4.54588 25.183 3.98173 25.954 3.59274C26.725 3.20376 27.5764 3.00076 28.44 3C31.51 3 34 5.5 34 8.59C34 15.59 27.52 19.72 24.62 20.71Z" stroke="#8B8D97" stroke-width="2" stroke-linecap="round" stroke-linejoin="round"/>
<path d="M3.766 46C3.22467 46 2.73 45.8693 2.282 45.608C1.84333 45.3373 1.498 44.95 1.246 44.446C0.994 43.942 0.868 43.3353 0.868 42.626C0.868 41.5713 1.15733 40.75 1.736 40.162C2.324 39.574 3.11267 39.28 4.102 39.28C4.83 39.28 5.418 39.4293 5.866 39.728C6.32333 40.0173 6.552 40.386 6.552 40.834V46H4.97V40.834C4.93267 40.75 4.83933 40.6847 4.69 40.638C4.54067 40.582 4.34467 40.554 4.102 40.554C3.56067 40.554 3.15 40.722 2.87 41.058C2.59933 41.394 2.464 41.9167 2.464 42.626C2.464 43.298 2.59933 43.816 2.87 44.18C3.14067 44.544 3.53267 44.726 4.046 44.726H7.35V46H3.766ZM7.35 46V44.726C7.462 44.726 7.53667 44.782 7.574 44.894C7.61133 45.006 7.63 45.16 7.63 45.356C7.63 45.552 7.61133 45.7107 7.574 45.832C7.53667 45.944 7.462 46 7.35 46ZM4.844 38.328C4.61067 38.328 4.40533 38.244 4.228 38.076C4.06 37.908 3.976 37.7073 3.976 37.474C3.976 37.2313 4.06 37.026 4.228 36.858C4.40533 36.6807 4.61067 36.592 4.844 36.592C5.08667 36.592 5.28733 36.6807 5.446 36.858C5.614 37.026 5.698 37.2313 5.698 37.474C5.698 37.7073 5.614 37.908 5.446 38.076C5.28733 38.244 5.08667 38.328 4.844 38.328ZM2.66 38.328C2.436 38.328 2.23533 38.244 2.058 38.076C1.89 37.908 1.806 37.7073 1.806 37.474C1.806 37.2313 1.89 37.026 2.058 36.858C2.226 36.6807 2.42667 36.592 2.66 36.592C2.90267 36.592 3.108 36.6807 3.276 36.858C3.444 37.026 3.528 37.2313 3.528 37.474C3.528 37.7073 3.444 37.908 3.276 38.076C3.108 38.244 2.90267 38.328 2.66 38.328ZM11.6255 46C11.1121 46 10.6548 45.8833 10.2535 45.65C9.86147 45.4167 9.5488 45.0993 9.31547 44.698C9.09147 44.2967 8.97947 43.8393 8.97947 43.326H10.5615C10.5615 43.5407 10.5988 43.76 10.6735 43.984C10.7481 44.1987 10.8648 44.376 11.0235 44.516C11.1915 44.656 11.3921 44.726 11.6255 44.726H12.2555V46H11.6255ZM7.35547 46V44.726H7.91547C8.16747 44.726 8.36814 44.656 8.51747 44.516C8.67614 44.376 8.7928 44.1987 8.86747 43.984C8.94214 43.76 8.97947 43.5407 8.97947 43.326V38.818C8.97947 38.5007 8.93747 38.2533 8.85347 38.076C8.76947 37.8893 8.67147 37.7493 8.55947 37.656C8.4568 37.5627 8.36347 37.4927 8.27947 37.446C8.29814 37.3807 8.3448 37.2967 8.41947 37.194C8.49414 37.082 8.60614 36.984 8.75547 36.9C8.9048 36.8067 9.0868 36.76 9.30147 36.76C9.54414 36.76 9.7588 36.8207 9.94547 36.942C10.1321 37.0633 10.2815 37.2453 10.3935 37.488C10.5055 37.7307 10.5615 38.0293 10.5615 38.384V43.326C10.5615 43.8393 10.4448 44.2967 10.2115 44.698C9.98747 45.0993 9.67947 45.4167 9.28747 45.65C8.89547 45.8833 8.43814 46 7.91547 46H7.35547ZM7.35547 46C7.2528 46 7.1828 45.944 7.14547 45.832C7.0988 45.7107 7.07547 45.552 7.07547 45.356C7.07547 45.16 7.0988 45.006 7.14547 44.894C7.1828 44.782 7.2528 44.726 7.35547 44.726V46ZM12.2555 46V44.726C12.3581 44.726 12.4281 44.782 12.4655 44.894C12.5121 45.006 12.5355 45.16 12.5355 45.356C12.5355 45.552 12.5121 45.7107 12.4655 45.832C12.4281 45.944 12.3581 46 12.2555 46ZM23.338 46C22.834 46 22.3813 45.8833 21.98 45.65C21.5787 45.4167 21.2613 45.0993 21.028 44.698C20.804 44.2967 20.692 43.8393 20.692 43.326L22.288 42.976V43.326C22.288 43.5407 22.3253 43.76 22.4 43.984C22.4747 44.1987 22.5913 44.376 22.75 44.516C22.9087 44.656 23.1047 44.726 23.338 44.726H23.968V46H23.338ZM12.25 46V44.726H19.6C19.936 44.726 20.202 44.5907 20.398 44.32C20.594 44.0493 20.692 43.606 20.692 42.99C20.692 42.1313 20.4913 41.5107 20.09 41.128C19.698 40.7453 19.1473 40.554 18.438 40.554C17.8873 40.554 17.416 40.652 17.024 40.848C16.6413 41.044 16.324 41.296 16.072 41.604C15.82 41.912 15.6147 42.2433 15.456 42.598C15.3067 42.9527 15.1807 43.2933 15.078 43.62L14.308 43.508C14.4293 43.032 14.56 42.584 14.7 42.164C14.8493 41.7347 15.022 41.3473 15.218 41.002C15.4233 40.6473 15.666 40.344 15.946 40.092C16.2353 39.8307 16.5807 39.63 16.982 39.49C17.3833 39.35 17.8593 39.28 18.41 39.28C19.6233 39.28 20.5707 39.6067 21.252 40.26C21.9427 40.9133 22.288 41.8187 22.288 42.976C22.288 43.9187 22.05 44.6607 21.574 45.202C21.1073 45.734 20.4493 46 19.6 46H12.25ZM13.482 46V41.604C13.482 41.3427 13.412 41.1187 13.272 40.932C13.132 40.736 12.9873 40.6007 12.838 40.526C12.9033 40.4047 13.02 40.2833 13.188 40.162C13.3653 40.0313 13.6033 39.966 13.902 39.966C14.1167 39.966 14.2987 40.008 14.448 40.092C14.5973 40.1667 14.7187 40.274 14.812 40.414C14.9053 40.5447 14.9707 40.6987 15.008 40.876C15.0547 41.044 15.078 41.2167 15.078 41.394V46H13.482ZM12.25 46C12.1473 46 12.0773 45.944 12.04 45.832C11.9933 45.7107 11.97 45.552 11.97 45.356C11.97 45.16 11.9933 45.006 12.04 44.894C12.0773 44.782 12.1473 44.726 12.25 44.726V46ZM23.968 46V44.726C24.08 44.726 24.1547 44.782 24.192 44.894C24.2293 45.006 24.248 45.16 24.248 45.356C24.248 45.552 24.2293 45.7107 24.192 45.832C24.1547 45.944 24.08 46 23.968 46ZM17.864 38.342C17.5933 38.342 17.3647 38.2533 17.178 38.076C17.0007 37.8893 16.912 37.67 16.912 37.418C16.912 37.166 17.0007 36.9513 17.178 36.774C17.3647 36.5873 17.5887 36.494 17.85 36.494C18.102 36.494 18.3167 36.5873 18.494 36.774C18.6807 36.9513 18.774 37.166 18.774 37.418C18.774 37.67 18.6807 37.8893 18.494 38.076C18.3167 38.2533 18.1067 38.342 17.864 38.342ZM31.6528 46C31.1488 46 30.6961 45.8833 30.2948 45.65C29.8935 45.4167 29.5761 45.0993 29.3428 44.698C29.1188 44.2967 29.0068 43.8393 29.0068 43.326H30.6028C30.6028 43.5407 30.6401 43.76 30.7148 43.984C30.7895 44.1987 30.9061 44.376 31.0648 44.516C31.2235 44.656 31.4195 44.726 31.6528 44.726H32.2828V46H31.6528ZM23.9668 46V44.726H27.8448C28.2088 44.726 28.4935 44.6093 28.6988 44.376C28.9041 44.1333 29.0068 43.7973 29.0068 43.368V40.834C28.9695 40.75 28.8761 40.6847 28.7268 40.638C28.5868 40.582 28.3908 40.554 28.1388 40.554C27.5975 40.554 27.1868 40.722 26.9068 41.058C26.6361 41.394 26.5008 41.9167 26.5008 42.626C26.5008 43.298 26.6361 43.8113 26.9068 44.166C27.1775 44.5113 27.5695 44.698 28.0828 44.726L27.8168 45.986C27.2755 45.93 26.7855 45.776 26.3468 45.524C25.9175 45.2627 25.5675 44.894 25.2968 44.418C25.0355 43.9327 24.9048 43.3353 24.9048 42.626C24.9048 41.5713 25.1988 40.75 25.7868 40.162C26.3748 39.574 27.1588 39.28 28.1388 39.28C28.8668 39.28 29.4595 39.4293 29.9168 39.728C30.3741 40.0173 30.6028 40.386 30.6028 40.834V43.368C30.6028 43.872 30.4815 44.3247 30.2388 44.726C30.0055 45.118 29.6835 45.4307 29.2728 45.664C28.8621 45.888 28.3861 46 27.8448 46H23.9668ZM23.9668 46C23.8641 46 23.7941 45.944 23.7568 45.832C23.7101 45.7107 23.6868 45.552 23.6868 45.356C23.6868 45.16 23.7101 45.006 23.7568 44.894C23.7941 44.782 23.8641 44.726 23.9668 44.726V46ZM32.2828 46V44.726C32.3855 44.726 32.4555 44.782 32.4928 44.894C32.5395 45.006 32.5628 45.16 32.5628 45.356C32.5628 45.552 32.5395 45.7107 32.4928 45.832C32.4555 45.944 32.3855 46 32.2828 46ZM28.1808 38.37C27.9101 38.37 27.6815 38.2813 27.4948 38.104C27.3175 37.9173 27.2288 37.698 27.2288 37.446C27.2288 37.194 27.3175 36.9793 27.4948 36.802C27.6815 36.6153 27.9055 36.522 28.1668 36.522C28.4188 36.522 28.6335 36.6153 28.8108 36.802C28.9975 36.9793 29.0908 37.194 29.0908 37.446C29.0908 37.698 28.9975 37.9173 28.8108 38.104C28.6335 38.2813 28.4235 38.37 28.1808 38.37ZM39.8253 46C39.312 46 38.8546 45.8833 38.4533 45.65C38.052 45.4167 37.7393 45.0993 37.5153 44.698C37.2913 44.2967 37.1793 43.8393 37.1793 43.326V42.668H38.7613V43.326C38.7613 43.5407 38.7986 43.76 38.8733 43.984C38.948 44.1987 39.0646 44.376 39.2233 44.516C39.382 44.656 39.5826 44.726 39.8253 44.726H40.4413V46H39.8253ZM32.2793 46V44.726H35.5833C36.0966 44.726 36.4886 44.544 36.7593 44.18C37.0393 43.816 37.1793 43.298 37.1793 42.626C37.1793 41.9167 37.0393 41.394 36.7593 41.058C36.4793 40.722 36.0686 40.554 35.5273 40.554C35.2846 40.554 35.0886 40.582 34.9393 40.638C34.7993 40.6847 34.706 40.75 34.6593 40.834V46H33.0773V40.834C33.0773 40.386 33.306 40.0173 33.7633 39.728C34.2206 39.4293 34.8086 39.28 35.5273 39.28C36.5166 39.28 37.3006 39.574 37.8793 40.162C38.4673 40.75 38.7613 41.5713 38.7613 42.626C38.7613 43.3353 38.6353 43.942 38.3833 44.446C38.1313 44.95 37.786 45.3373 37.3473 45.608C36.9086 45.8693 36.414 46 35.8633 46H32.2793ZM32.2793 46C32.1766 46 32.1066 45.944 32.0693 45.832C32.0226 45.7107 31.9993 45.552 31.9993 45.356C31.9993 45.16 32.0226 45.006 32.0693 44.894C32.1066 44.782 32.1766 44.726 32.2793 44.726V46ZM40.4413 46V44.726C40.5533 44.726 40.628 44.782 40.6653 44.894C40.7026 45.006 40.7213 45.16 40.7213 45.356C40.7213 45.552 40.7026 45.7107 40.6653 45.832C40.628 45.944 40.5533 46 40.4413 46ZM40.4414 46V44.726H41.0014C41.2534 44.726 41.4541 44.656 41.6034 44.516C41.7621 44.376 41.8787 44.1987 41.9534 43.984C42.0281 43.76 42.0654 43.5407 42.0654 43.326V38.818C42.0654 38.5007 42.0234 38.2533 41.9394 38.076C41.8554 37.8893 41.7574 37.7493 41.6454 37.656C41.5427 37.5627 41.4494 37.4927 41.3654 37.446C41.3841 37.3807 41.4307 37.2967 41.5054 37.194C41.5801 37.082 41.6921 36.984 41.8414 36.9C41.9907 36.8067 42.1727 36.76 42.3874 36.76C42.6301 36.76 42.8447 36.8207 43.0314 36.942C43.2181 37.0633 43.3674 37.2453 43.4794 37.488C43.5914 37.7307 43.6474 38.0293 43.6474 38.384V43.326C43.6474 43.8393 43.5307 44.2967 43.2974 44.698C43.0734 45.0993 42.7654 45.4167 42.3734 45.65C41.9814 45.8833 41.5241 46 41.0014 46H40.4414ZM40.4414 46C40.3387 46 40.2687 45.944 40.2314 45.832C40.1847 45.7107 40.1614 45.552 40.1614 45.356C40.1614 45.16 40.1847 45.006 40.2314 44.894C40.2687 44.782 40.3387 44.726 40.4414 44.726V46ZM46.686 46C46.3593 46 46.1446 45.9067 46.042 45.72C45.9486 45.524 45.902 45.3093 45.902 45.076V38.818C45.902 38.5007 45.86 38.2533 45.776 38.076C45.692 37.8893 45.594 37.7493 45.482 37.656C45.37 37.5627 45.2766 37.4927 45.202 37.446C45.2206 37.3807 45.2673 37.2967 45.342 37.194C45.4166 37.082 45.5286 36.984 45.678 36.9C45.8273 36.8067 46.014 36.76 46.238 36.76C46.4713 36.76 46.6813 36.8207 46.868 36.942C47.0546 37.0633 47.204 37.2453 47.316 37.488C47.428 37.7307 47.484 38.0293 47.484 38.384V45.09C47.484 45.314 47.4326 45.524 47.33 45.72C47.2273 45.9067 47.0126 46 46.686 46Z" fill="#8B8D97"/>
</svg>
