<svg width="34" height="50" viewBox="0 0 34 50" fill="none" xmlns="http://www.w3.org/2000/svg">
<line x1="8" y1="5" x2="26" y2="5" stroke="#8B8D97" stroke-width="2"/>
<line x1="8" y1="11" x2="26" y2="11" stroke="#8B8D97" stroke-width="2"/>
<line x1="8" y1="17" x2="26" y2="17" stroke="#8B8D97" stroke-width="2"/>
<path d="M7.28 46C6.776 46 6.32333 45.8833 5.922 45.65C5.52067 45.4167 5.20333 45.0993 4.97 44.698C4.746 44.2967 4.634 43.8393 4.634 43.326V42.668H6.23V43.326C6.23 43.5407 6.26733 43.76 6.342 43.984C6.41667 44.1987 6.53333 44.376 6.692 44.516C6.85067 44.656 7.04667 44.726 7.28 44.726H7.91V46H7.28ZM1.484 46C1.29733 46 1.13867 45.9487 1.008 45.846C0.886667 45.7433 0.826 45.58 0.826 45.356C0.826 45.1413 0.886667 44.9827 1.008 44.88C1.13867 44.7773 1.29733 44.726 1.484 44.726H3.038C3.56067 44.726 3.95733 44.5393 4.228 44.166C4.49867 43.7927 4.634 43.2747 4.634 42.612C4.634 42.1267 4.564 41.73 4.424 41.422C4.29333 41.1047 4.116 40.8667 3.892 40.708C3.668 40.5493 3.42533 40.4653 3.164 40.456L3.64 40.428C3.46267 40.428 3.28533 40.47 3.108 40.554C2.93067 40.6287 2.77667 40.7593 2.646 40.946C2.52467 41.1233 2.464 41.3753 2.464 41.702C2.38 41.73 2.25867 41.7533 2.1 41.772C1.95067 41.7907 1.81067 41.7907 1.68 41.772C1.49333 41.7533 1.316 41.6693 1.148 41.52C0.989333 41.3707 0.91 41.1467 0.91 40.848C0.91 40.568 0.984667 40.3253 1.134 40.12C1.29267 39.9147 1.48867 39.7513 1.722 39.63C1.96467 39.5087 2.21667 39.42 2.478 39.364C2.73933 39.308 2.97733 39.28 3.192 39.28C3.51867 39.28 3.85467 39.3453 4.2 39.476C4.55467 39.6067 4.886 39.812 5.194 40.092C5.502 40.372 5.74933 40.722 5.936 41.142C6.132 41.562 6.23 42.0707 6.23 42.668C6.23 43.4147 6.076 44.0353 5.768 44.53C5.46933 45.0247 5.07733 45.3933 4.592 45.636C4.116 45.8787 3.598 46 3.038 46H1.484ZM7.91 46V44.726C8.01267 44.726 8.08267 44.782 8.12 44.894C8.16667 45.006 8.19 45.16 8.19 45.356C8.19 45.552 8.16667 45.7107 8.12 45.832C8.08267 45.944 8.01267 46 7.91 46ZM7.91602 46V44.726H9.06402C9.24135 44.726 9.39535 44.6793 9.52602 44.586C9.66602 44.4927 9.78268 44.3713 9.87602 44.222C9.96935 44.0727 10.044 43.9 10.1 43.704C10.1653 43.508 10.2073 43.3027 10.226 43.088C10.254 42.864 10.268 42.6447 10.268 42.43C10.268 42.0567 10.2307 41.7207 10.156 41.422C10.0907 41.1233 9.98335 40.848 9.83402 40.596C9.68468 40.344 9.47935 40.1107 9.21802 39.896C9.23668 39.8213 9.28335 39.7373 9.35802 39.644C9.43268 39.5413 9.53535 39.4573 9.66602 39.392C9.80602 39.3173 9.96935 39.28 10.156 39.28C10.4547 39.28 10.7113 39.3733 10.926 39.56C11.15 39.7467 11.3273 39.994 11.458 40.302C11.5887 40.61 11.6867 40.9507 11.752 41.324C11.8173 41.6973 11.85 42.0753 11.85 42.458C11.85 43.5593 11.6027 44.4273 11.108 45.062C10.6227 45.6873 9.94135 46 9.06402 46H7.91602ZM7.91602 46C7.81335 46 7.74335 45.944 7.70602 45.832C7.65935 45.7107 7.63602 45.552 7.63602 45.356C7.63602 45.16 7.65935 45.006 7.70602 44.894C7.74335 44.782 7.81335 44.726 7.91602 44.726V46ZM11.262 48.898C11.0287 48.898 10.8233 48.8093 10.646 48.632C10.478 48.464 10.394 48.2633 10.394 48.03C10.394 47.7873 10.478 47.582 10.646 47.414C10.8233 47.246 11.0287 47.162 11.262 47.162C11.5047 47.162 11.7053 47.246 11.864 47.414C12.032 47.582 12.116 47.7873 12.116 48.03C12.116 48.2633 12.032 48.464 11.864 48.632C11.7053 48.8093 11.5047 48.898 11.262 48.898ZM9.07802 48.898C8.85402 48.898 8.65335 48.8093 8.47602 48.632C8.30802 48.464 8.22402 48.2633 8.22402 48.03C8.22402 47.7873 8.30802 47.582 8.47602 47.414C8.64402 47.246 8.84468 47.162 9.07802 47.162C9.32068 47.162 9.52602 47.246 9.69402 47.414C9.86202 47.582 9.94602 47.7873 9.94602 48.03C9.94602 48.2633 9.86202 48.464 9.69402 48.632C9.52602 48.8093 9.32068 48.898 9.07802 48.898ZM15.6819 46V44.726H17.2359V46H15.6819ZM13.9739 49.206C13.7779 49.206 13.6145 49.1687 13.4839 49.094C13.3532 49.0287 13.2505 48.9447 13.1759 48.842C13.1012 48.7393 13.0545 48.6553 13.0359 48.59C13.3065 48.366 13.5165 48.128 13.6659 47.876C13.8152 47.624 13.9225 47.3393 13.9879 47.022C14.0532 46.714 14.0859 46.3733 14.0859 46V40.05C14.0859 39.7887 14.1605 39.5973 14.3099 39.476C14.4592 39.3453 14.6505 39.28 14.8839 39.28C15.1172 39.28 15.3085 39.3453 15.4579 39.476C15.6072 39.5973 15.6819 39.7887 15.6819 40.05V46C15.6819 46.3733 15.6492 46.7467 15.5839 47.12C15.5185 47.5027 15.4159 47.8527 15.2759 48.17C15.1452 48.4873 14.9725 48.7393 14.7579 48.926C14.5432 49.1127 14.2819 49.206 13.9739 49.206ZM17.2359 46V44.726C17.3479 44.726 17.4225 44.782 17.4599 44.894C17.4972 45.006 17.5159 45.16 17.5159 45.356C17.5159 45.552 17.4972 45.7107 17.4599 45.832C17.4225 45.944 17.3479 46 17.2359 46ZM14.8979 38.37C14.6272 38.37 14.3985 38.2813 14.2119 38.104C14.0345 37.9173 13.9459 37.698 13.9459 37.446C13.9459 37.194 14.0345 36.9793 14.2119 36.802C14.3985 36.6153 14.6225 36.522 14.8839 36.522C15.1359 36.522 15.3505 36.6153 15.5279 36.802C15.7145 36.9793 15.8079 37.194 15.8079 37.446C15.8079 37.698 15.7145 37.9173 15.5279 38.104C15.3505 38.2813 15.1405 38.37 14.8979 38.37ZM24.7862 46C24.2729 46 23.8156 45.8833 23.4142 45.65C23.0129 45.4167 22.7002 45.0993 22.4762 44.698C22.2522 44.2967 22.1402 43.8393 22.1402 43.326V42.668H23.7222V43.326C23.7222 43.5407 23.7596 43.76 23.8342 43.984C23.9089 44.1987 24.0256 44.376 24.1842 44.516C24.3429 44.656 24.5436 44.726 24.7862 44.726H25.4022V46H24.7862ZM17.2402 46V44.726H20.5442C21.0576 44.726 21.4496 44.544 21.7202 44.18C22.0002 43.816 22.1402 43.298 22.1402 42.626C22.1402 41.9167 22.0002 41.394 21.7202 41.058C21.4402 40.722 21.0296 40.554 20.4882 40.554C20.2456 40.554 20.0496 40.582 19.9002 40.638C19.7602 40.6847 19.6669 40.75 19.6202 40.834V46H18.0382V40.834C18.0382 40.386 18.2669 40.0173 18.7242 39.728C19.1816 39.4293 19.7696 39.28 20.4882 39.28C21.4776 39.28 22.2616 39.574 22.8402 40.162C23.4282 40.75 23.7222 41.5713 23.7222 42.626C23.7222 43.3353 23.5962 43.942 23.3442 44.446C23.0922 44.95 22.7469 45.3373 22.3082 45.608C21.8696 45.8693 21.3749 46 20.8242 46H17.2402ZM17.2402 46C17.1376 46 17.0676 45.944 17.0302 45.832C16.9836 45.7107 16.9602 45.552 16.9602 45.356C16.9602 45.16 16.9836 45.006 17.0302 44.894C17.0676 44.782 17.1376 44.726 17.2402 44.726V46ZM25.4022 46V44.726C25.5142 44.726 25.5889 44.782 25.6262 44.894C25.6636 45.006 25.6822 45.16 25.6822 45.356C25.6822 45.552 25.6636 45.7107 25.6262 45.832C25.5889 45.944 25.5142 46 25.4022 46ZM25.4023 46V44.726H25.9623C26.2143 44.726 26.415 44.656 26.5643 44.516C26.723 44.376 26.8397 44.1987 26.9143 43.984C26.989 43.76 27.0263 43.5407 27.0263 43.326V38.818C27.0263 38.5007 26.9843 38.2533 26.9003 38.076C26.8163 37.8893 26.7183 37.7493 26.6063 37.656C26.5037 37.5627 26.4103 37.4927 26.3263 37.446C26.345 37.3807 26.3917 37.2967 26.4663 37.194C26.541 37.082 26.653 36.984 26.8023 36.9C26.9517 36.8067 27.1337 36.76 27.3483 36.76C27.591 36.76 27.8057 36.8207 27.9923 36.942C28.179 37.0633 28.3283 37.2453 28.4403 37.488C28.5523 37.7307 28.6083 38.0293 28.6083 38.384V43.326C28.6083 43.8393 28.4917 44.2967 28.2583 44.698C28.0343 45.0993 27.7263 45.4167 27.3343 45.65C26.9423 45.8833 26.485 46 25.9623 46H25.4023ZM25.4023 46C25.2997 46 25.2297 45.944 25.1923 45.832C25.1457 45.7107 25.1223 45.552 25.1223 45.356C25.1223 45.16 25.1457 45.006 25.1923 44.894C25.2297 44.782 25.2997 44.726 25.4023 44.726V46ZM31.6469 46C31.3202 46 31.1056 45.9067 31.0029 45.72C30.9096 45.524 30.8629 45.3093 30.8629 45.076V38.818C30.8629 38.5007 30.8209 38.2533 30.7369 38.076C30.6529 37.8893 30.5549 37.7493 30.4429 37.656C30.3309 37.5627 30.2376 37.4927 30.1629 37.446C30.1816 37.3807 30.2282 37.2967 30.3029 37.194C30.3776 37.082 30.4896 36.984 30.6389 36.9C30.7882 36.8067 30.9749 36.76 31.1989 36.76C31.4322 36.76 31.6422 36.8207 31.8289 36.942C32.0156 37.0633 32.1649 37.2453 32.2769 37.488C32.3889 37.7307 32.4449 38.0293 32.4449 38.384V45.09C32.4449 45.314 32.3936 45.524 32.2909 45.72C32.1882 45.9067 31.9736 46 31.6469 46Z" fill="#8B8D97"/>
</svg>
