<svg width="48" height="50" viewBox="0 0 48 50" fill="none" xmlns="http://www.w3.org/2000/svg">
<path d="M25.7162 3.60673L25.7167 3.60711L31.4765 7.63697C31.4766 7.63701 31.4766 7.63705 31.4767 7.63708C31.8651 7.90902 32.2612 8.37867 32.561 8.95303C32.8609 9.52745 33.02 10.1213 33.02 10.5977V17.3777C33.02 19.3755 31.3977 20.9977 29.4 20.9977H18.62C16.6251 20.9977 15 19.3683 15 17.3677V10.4677C15 10.0289 15.1433 9.46571 15.4171 8.90947C15.6908 8.35377 16.0521 7.8915 16.405 7.61624L16.4052 7.61607L21.4125 3.70822C21.4129 3.70789 21.4133 3.70757 21.4138 3.70724C22.5774 2.80661 24.5056 2.75855 25.7162 3.60673ZM24.01 19.7477C24.9723 19.7477 25.76 18.96 25.76 17.9977V14.9977C25.76 14.0355 24.9723 13.2477 24.01 13.2477C23.0477 13.2477 22.26 14.0355 22.26 14.9977V17.9977C22.26 18.96 23.0477 19.7477 24.01 19.7477Z" stroke="#8B8D97" stroke-width="2"/>
<path d="M3.766 46C3.22467 46 2.73 45.8693 2.282 45.608C1.84333 45.3373 1.498 44.95 1.246 44.446C0.994 43.942 0.868 43.3353 0.868 42.626C0.868 41.5713 1.15733 40.75 1.736 40.162C2.324 39.574 3.11267 39.28 4.102 39.28C4.83 39.28 5.418 39.4293 5.866 39.728C6.32333 40.0173 6.552 40.386 6.552 40.834V46H4.97V40.834C4.93267 40.75 4.83933 40.6847 4.69 40.638C4.54067 40.582 4.34467 40.554 4.102 40.554C3.56067 40.554 3.15 40.722 2.87 41.058C2.59933 41.394 2.464 41.9167 2.464 42.626C2.464 43.298 2.59933 43.816 2.87 44.18C3.14067 44.544 3.53267 44.726 4.046 44.726H7.35V46H3.766ZM7.35 46V44.726C7.462 44.726 7.53667 44.782 7.574 44.894C7.61133 45.006 7.63 45.16 7.63 45.356C7.63 45.552 7.61133 45.7107 7.574 45.832C7.53667 45.944 7.462 46 7.35 46ZM4.844 38.328C4.61067 38.328 4.40533 38.244 4.228 38.076C4.06 37.908 3.976 37.7073 3.976 37.474C3.976 37.2313 4.06 37.026 4.228 36.858C4.40533 36.6807 4.61067 36.592 4.844 36.592C5.08667 36.592 5.28733 36.6807 5.446 36.858C5.614 37.026 5.698 37.2313 5.698 37.474C5.698 37.7073 5.614 37.908 5.446 38.076C5.28733 38.244 5.08667 38.328 4.844 38.328ZM2.66 38.328C2.436 38.328 2.23533 38.244 2.058 38.076C1.89 37.908 1.806 37.7073 1.806 37.474C1.806 37.2313 1.89 37.026 2.058 36.858C2.226 36.6807 2.42667 36.592 2.66 36.592C2.90267 36.592 3.108 36.6807 3.276 36.858C3.444 37.026 3.528 37.2313 3.528 37.474C3.528 37.7073 3.444 37.908 3.276 38.076C3.108 38.244 2.90267 38.328 2.66 38.328ZM7.35547 46V44.726H7.91547C8.16747 44.726 8.36814 44.656 8.51747 44.516C8.67614 44.376 8.7928 44.1987 8.86747 43.984C8.94214 43.76 8.97947 43.5407 8.97947 43.326V40.078C8.97947 39.854 9.04014 39.6673 9.16147 39.518C9.29214 39.3593 9.49747 39.28 9.77747 39.28C10.0481 39.28 10.2441 39.3593 10.3655 39.518C10.4961 39.6673 10.5615 39.854 10.5615 40.078V43.326C10.5615 43.8393 10.4448 44.2967 10.2115 44.698C9.98747 45.0993 9.67947 45.4167 9.28747 45.65C8.89547 45.8833 8.43814 46 7.91547 46H7.35547ZM11.6255 46C11.1121 46 10.6548 45.8833 10.2535 45.65C9.86147 45.4167 9.5488 45.0993 9.31547 44.698C9.09147 44.2967 8.97947 43.8393 8.97947 43.326H10.5615C10.5615 43.5407 10.5988 43.76 10.6735 43.984C10.7481 44.1987 10.8648 44.376 11.0235 44.516C11.1915 44.656 11.3921 44.726 11.6255 44.726H12.2555V46H11.6255ZM12.2555 46V44.726C12.3581 44.726 12.4281 44.782 12.4655 44.894C12.5121 45.006 12.5355 45.16 12.5355 45.356C12.5355 45.552 12.5121 45.7107 12.4655 45.832C12.4281 45.944 12.3581 46 12.2555 46ZM7.35547 46C7.2528 46 7.1828 45.944 7.14547 45.832C7.0988 45.7107 7.07547 45.552 7.07547 45.356C7.07547 45.16 7.0988 45.006 7.14547 44.894C7.1828 44.782 7.2528 44.726 7.35547 44.726V46ZM10.8695 48.898C10.6361 48.898 10.4308 48.8093 10.2535 48.632C10.0855 48.464 10.0015 48.2633 10.0015 48.03C10.0015 47.7873 10.0855 47.582 10.2535 47.414C10.4308 47.246 10.6361 47.162 10.8695 47.162C11.1121 47.162 11.3128 47.246 11.4715 47.414C11.6395 47.582 11.7235 47.7873 11.7235 48.03C11.7235 48.2633 11.6395 48.464 11.4715 48.632C11.3128 48.8093 11.1121 48.898 10.8695 48.898ZM8.68547 48.898C8.46147 48.898 8.2608 48.8093 8.08347 48.632C7.91547 48.464 7.83147 48.2633 7.83147 48.03C7.83147 47.7873 7.91547 47.582 8.08347 47.414C8.25147 47.246 8.45214 47.162 8.68547 47.162C8.92814 47.162 9.13347 47.246 9.30147 47.414C9.46947 47.582 9.55347 47.7873 9.55347 48.03C9.55347 48.2633 9.46947 48.464 9.30147 48.632C9.13347 48.8093 8.92814 48.898 8.68547 48.898ZM12.25 46V44.726H12.88C13.1227 44.726 13.3187 44.656 13.468 44.516C13.6267 44.376 13.7433 44.1987 13.818 43.984C13.8927 43.76 13.93 43.5407 13.93 43.326V40.848C13.93 40.624 13.9907 40.4373 14.112 40.288C14.2427 40.1293 14.448 40.05 14.728 40.05C15.008 40.05 15.2087 40.1293 15.33 40.288C15.4607 40.4373 15.526 40.624 15.526 40.848V43.326C15.526 43.8393 15.4093 44.2967 15.176 44.698C14.952 45.0993 14.6393 45.4167 14.238 45.65C13.846 45.8833 13.3933 46 12.88 46H12.25ZM16.576 46C16.072 46 15.6193 45.8833 15.218 45.65C14.8167 45.4167 14.4993 45.0993 14.266 44.698C14.042 44.2967 13.93 43.8393 13.93 43.326H15.526C15.526 43.5407 15.5633 43.7553 15.638 43.97C15.7127 44.1847 15.8293 44.3667 15.988 44.516C16.1467 44.656 16.3427 44.726 16.576 44.726H16.842V46H16.576ZM21.266 46V44.726H21.616C21.8587 44.726 22.0593 44.656 22.218 44.516C22.3767 44.376 22.4933 44.1987 22.568 43.984C22.6427 43.76 22.68 43.5407 22.68 43.326V40.078C22.68 39.854 22.7407 39.6673 22.862 39.518C22.9927 39.3593 23.1933 39.28 23.464 39.28C23.744 39.28 23.9447 39.3593 24.066 39.518C24.1967 39.6673 24.262 39.854 24.262 40.078V43.326C24.262 43.8393 24.1453 44.2967 23.912 44.698C23.688 45.0993 23.38 45.4167 22.988 45.65C22.596 45.8833 22.1387 46 21.616 46H21.266ZM20.944 46C20.44 46 19.9873 45.8833 19.586 45.65C19.1847 45.4167 18.8673 45.0993 18.634 44.698C18.41 44.2967 18.298 43.8393 18.298 43.326H19.894C19.894 43.55 19.9313 43.7693 20.006 43.984C20.0807 44.1987 20.1973 44.376 20.356 44.516C20.5147 44.656 20.7107 44.726 20.944 44.726H21.266V46H20.944ZM16.842 46V44.726H17.248C17.4907 44.726 17.6867 44.656 17.836 44.516C17.9947 44.376 18.1113 44.1987 18.186 43.984C18.2607 43.76 18.298 43.5407 18.298 43.326V40.512C18.298 40.288 18.3633 40.1013 18.494 39.952C18.6247 39.7933 18.8253 39.714 19.096 39.714C19.376 39.714 19.5767 39.7933 19.698 39.952C19.8287 40.1013 19.894 40.288 19.894 40.512V43.326C19.894 43.8393 19.7773 44.2967 19.544 44.698C19.32 45.0993 19.0073 45.4167 18.606 45.65C18.214 45.8833 17.7613 46 17.248 46H16.842ZM25.326 46C24.8127 46 24.3553 45.8833 23.954 45.65C23.562 45.4167 23.2493 45.0993 23.016 44.698C22.792 44.2967 22.68 43.8393 22.68 43.326H24.262C24.262 43.5407 24.2993 43.76 24.374 43.984C24.4487 44.1987 24.5653 44.376 24.724 44.516C24.8827 44.656 25.0833 44.726 25.326 44.726H25.942V46H25.326ZM25.942 46V44.726C26.054 44.726 26.1287 44.782 26.166 44.894C26.2033 45.006 26.222 45.16 26.222 45.356C26.222 45.552 26.2033 45.7107 26.166 45.832C26.1287 45.944 26.054 46 25.942 46ZM12.25 46C12.1473 46 12.0773 45.944 12.04 45.832C11.9933 45.7107 11.97 45.552 11.97 45.356C11.97 45.16 11.9933 45.006 12.04 44.894C12.0773 44.782 12.1473 44.726 12.25 44.726V46ZM25.9355 46V44.726H26.4955C26.7475 44.726 26.9482 44.656 27.0975 44.516C27.2562 44.376 27.3729 44.1987 27.4475 43.984C27.5222 43.76 27.5595 43.5407 27.5595 43.326V40.078C27.5595 39.854 27.6202 39.6673 27.7415 39.518C27.8722 39.3593 28.0775 39.28 28.3575 39.28C28.6282 39.28 28.8242 39.3593 28.9455 39.518C29.0762 39.6673 29.1415 39.854 29.1415 40.078V43.326C29.1415 43.8393 29.0249 44.2967 28.7915 44.698C28.5675 45.0993 28.2595 45.4167 27.8675 45.65C27.4755 45.8833 27.0182 46 26.4955 46H25.9355ZM30.2055 46C29.6922 46 29.2349 45.8833 28.8335 45.65C28.4415 45.4167 28.1289 45.0993 27.8955 44.698C27.6715 44.2967 27.5595 43.8393 27.5595 43.326H29.1415C29.1415 43.5407 29.1789 43.76 29.2535 43.984C29.3282 44.1987 29.4449 44.376 29.6035 44.516C29.7715 44.656 29.9722 44.726 30.2055 44.726H30.8355V46H30.2055ZM30.8355 46V44.726C30.9382 44.726 31.0082 44.782 31.0455 44.894C31.0922 45.006 31.1155 45.16 31.1155 45.356C31.1155 45.552 31.0922 45.7107 31.0455 45.832C31.0082 45.944 30.9382 46 30.8355 46ZM25.9355 46C25.8329 46 25.7629 45.944 25.7255 45.832C25.6789 45.7107 25.6555 45.552 25.6555 45.356C25.6555 45.16 25.6789 45.006 25.7255 44.894C25.7629 44.782 25.8329 44.726 25.9355 44.726V46ZM29.4495 48.898C29.2162 48.898 29.0109 48.8093 28.8335 48.632C28.6655 48.464 28.5815 48.2633 28.5815 48.03C28.5815 47.7873 28.6655 47.582 28.8335 47.414C29.0109 47.246 29.2162 47.162 29.4495 47.162C29.6922 47.162 29.8929 47.246 30.0515 47.414C30.2195 47.582 30.3035 47.7873 30.3035 48.03C30.3035 48.2633 30.2195 48.464 30.0515 48.632C29.8929 48.8093 29.6922 48.898 29.4495 48.898ZM27.2655 48.898C27.0415 48.898 26.8409 48.8093 26.6635 48.632C26.4955 48.464 26.4115 48.2633 26.4115 48.03C26.4115 47.7873 26.4955 47.582 26.6635 47.414C26.8315 47.246 27.0322 47.162 27.2655 47.162C27.5082 47.162 27.7135 47.246 27.8815 47.414C28.0495 47.582 28.1335 47.7873 28.1335 48.03C28.1335 48.2633 28.0495 48.464 27.8815 48.632C27.7135 48.8093 27.5082 48.898 27.2655 48.898ZM30.8301 46V44.726H31.9781C32.1554 44.726 32.3094 44.6793 32.4401 44.586C32.5801 44.4927 32.6967 44.3713 32.7901 44.222C32.8834 44.0727 32.9581 43.9 33.0141 43.704C33.0794 43.508 33.1214 43.3027 33.1401 43.088C33.1681 42.864 33.1821 42.6447 33.1821 42.43C33.1821 42.0567 33.1447 41.7207 33.0701 41.422C33.0047 41.1233 32.8974 40.848 32.7481 40.596C32.5987 40.344 32.3934 40.1107 32.1321 39.896C32.1507 39.8213 32.1974 39.7373 32.2721 39.644C32.3467 39.5413 32.4494 39.4573 32.5801 39.392C32.7201 39.3173 32.8834 39.28 33.0701 39.28C33.3687 39.28 33.6254 39.3733 33.8401 39.56C34.0641 39.7467 34.2414 39.994 34.3721 40.302C34.5027 40.61 34.6007 40.9507 34.6661 41.324C34.7314 41.6973 34.7641 42.0753 34.7641 42.458C34.7641 43.5593 34.5167 44.4273 34.0221 45.062C33.5367 45.6873 32.8554 46 31.9781 46H30.8301ZM30.8301 46C30.7274 46 30.6574 45.944 30.6201 45.832C30.5734 45.7107 30.5501 45.552 30.5501 45.356C30.5501 45.16 30.5734 45.006 30.6201 44.894C30.6574 44.782 30.7274 44.726 30.8301 44.726V46ZM31.8941 38.454C31.7914 38.3887 31.7214 38.3047 31.6841 38.202C31.6467 38.0993 31.6421 38.0013 31.6701 37.908C31.6981 37.8147 31.7634 37.74 31.8661 37.684C31.9781 37.6187 32.1274 37.5953 32.3141 37.614C32.2021 37.5393 32.0854 37.4087 31.9641 37.222C31.8427 37.0353 31.7821 36.8207 31.7821 36.578C31.7821 36.3633 31.8334 36.1533 31.9361 35.948C32.0481 35.7333 32.2161 35.5607 32.4401 35.43C32.6641 35.2993 32.9441 35.234 33.2801 35.234C33.5041 35.234 33.6814 35.2667 33.8121 35.332C33.9521 35.388 34.0501 35.4627 34.1061 35.556C34.1621 35.6493 34.1901 35.7613 34.1901 35.892C34.1901 36.06 34.1481 36.1813 34.0641 36.256C33.9801 36.3213 33.8821 36.354 33.7701 36.354C33.6674 36.3447 33.5694 36.3213 33.4761 36.284C33.4854 36.144 33.4481 36.018 33.3641 35.906C33.2801 35.794 33.1681 35.7333 33.0281 35.724C32.9627 35.7707 32.8881 35.8593 32.8041 35.99C32.7294 36.1113 32.6921 36.2653 32.6921 36.452C32.6921 36.6667 32.7387 36.844 32.8321 36.984C32.9347 37.124 33.0654 37.2313 33.2241 37.306C33.3827 37.3713 33.5461 37.404 33.7141 37.404C33.8261 37.404 33.9241 37.3947 34.0081 37.376C34.1014 37.3573 34.1761 37.3433 34.2321 37.334C34.3721 37.334 34.4607 37.39 34.4981 37.502C34.5447 37.614 34.5494 37.726 34.5121 37.838C34.4747 37.9407 34.4141 37.9967 34.3301 38.006C34.2181 38.0153 34.0641 38.0293 33.8681 38.048C33.6721 38.0573 33.4621 38.076 33.2381 38.104C33.0234 38.1227 32.8134 38.1507 32.6081 38.188C32.4027 38.216 32.2301 38.2533 32.0901 38.3C31.9594 38.3467 31.8941 38.398 31.8941 38.454ZM38.5959 46V44.726H40.1499V46H38.5959ZM36.8879 49.206C36.6919 49.206 36.5286 49.1687 36.3979 49.094C36.2673 49.0287 36.1646 48.9447 36.0899 48.842C36.0153 48.7393 35.9686 48.6553 35.9499 48.59C36.2206 48.366 36.4306 48.128 36.5799 47.876C36.7293 47.624 36.8366 47.3393 36.9019 47.022C36.9673 46.714 36.9999 46.3733 36.9999 46V40.05C36.9999 39.7887 37.0746 39.5973 37.2239 39.476C37.3733 39.3453 37.5646 39.28 37.7979 39.28C38.0313 39.28 38.2226 39.3453 38.3719 39.476C38.5213 39.5973 38.5959 39.7887 38.5959 40.05V46C38.5959 46.3733 38.5633 46.7467 38.4979 47.12C38.4326 47.5027 38.3299 47.8527 38.1899 48.17C38.0593 48.4873 37.8866 48.7393 37.6719 48.926C37.4573 49.1127 37.1959 49.206 36.8879 49.206ZM40.1499 46V44.726C40.2619 44.726 40.3366 44.782 40.3739 44.894C40.4113 45.006 40.4299 45.16 40.4299 45.356C40.4299 45.552 40.4113 45.7107 40.3739 45.832C40.3366 45.944 40.2619 46 40.1499 46ZM40.1543 46V44.726H40.7143C40.9663 44.726 41.167 44.656 41.3163 44.516C41.475 44.376 41.5916 44.1987 41.6663 43.984C41.741 43.76 41.7783 43.5407 41.7783 43.326V38.818C41.7783 38.5007 41.7363 38.2533 41.6523 38.076C41.5683 37.8893 41.4703 37.7493 41.3583 37.656C41.2556 37.5627 41.1623 37.4927 41.0783 37.446C41.097 37.3807 41.1436 37.2967 41.2183 37.194C41.293 37.082 41.405 36.984 41.5543 36.9C41.7036 36.8067 41.8856 36.76 42.1003 36.76C42.343 36.76 42.5576 36.8207 42.7443 36.942C42.931 37.0633 43.0803 37.2453 43.1923 37.488C43.3043 37.7307 43.3603 38.0293 43.3603 38.384V43.326C43.3603 43.8393 43.2436 44.2967 43.0103 44.698C42.7863 45.0993 42.4783 45.4167 42.0863 45.65C41.6943 45.8833 41.237 46 40.7143 46H40.1543ZM40.1543 46C40.0516 46 39.9816 45.944 39.9443 45.832C39.8976 45.7107 39.8743 45.552 39.8743 45.356C39.8743 45.16 39.8976 45.006 39.9443 44.894C39.9816 44.782 40.0516 44.726 40.1543 44.726V46ZM46.3988 46C46.0722 46 45.8575 45.9067 45.7548 45.72C45.6615 45.524 45.6148 45.3093 45.6148 45.076V38.818C45.6148 38.5007 45.5728 38.2533 45.4888 38.076C45.4048 37.8893 45.3068 37.7493 45.1948 37.656C45.0828 37.5627 44.9895 37.4927 44.9148 37.446C44.9335 37.3807 44.9802 37.2967 45.0548 37.194C45.1295 37.082 45.2415 36.984 45.3908 36.9C45.5402 36.8067 45.7268 36.76 45.9508 36.76C46.1842 36.76 46.3942 36.8207 46.5808 36.942C46.7675 37.0633 46.9168 37.2453 47.0288 37.488C47.1408 37.7307 47.1968 38.0293 47.1968 38.384V45.09C47.1968 45.314 47.1455 45.524 47.0428 45.72C46.9402 45.9067 46.7255 46 46.3988 46Z" fill="#8B8D97"/>
</svg>
