<svg width="21" height="22" viewBox="0 0 21 22" fill="none" xmlns="http://www.w3.org/2000/svg">
<path d="M12.2276 2.78644L13.9874 6.19318C14.2274 6.66742 14.8673 7.1223 15.4073 7.2094L18.5969 7.72235C20.6367 8.05141 21.1167 9.48379 19.6468 10.8968L17.1671 13.297C16.7471 13.7035 16.5172 14.4875 16.6471 15.0488L17.3571 18.02C17.917 20.3718 16.6271 21.2816 14.4774 20.0525L11.4877 18.3394C10.9478 18.0297 10.0579 18.0297 9.50794 18.3394L6.51827 20.0525C4.3785 21.2816 3.07865 20.3622 3.63859 18.02L4.34851 15.0488C4.47849 14.4875 4.24852 13.7035 3.82856 13.297L1.34884 10.8968C-0.111 9.48379 0.358948 8.05141 2.39872 7.72235L5.58837 7.2094C6.11831 7.1223 6.75824 6.66742 6.99821 6.19318L8.75802 2.78644C9.71791 0.937887 11.2777 0.937887 12.2276 2.78644Z" stroke="#F3D745" stroke-linecap="round" stroke-linejoin="round"/>
</svg>
