<svg width="40" height="50" viewBox="0 0 40 50" fill="none" xmlns="http://www.w3.org/2000/svg">
<path d="M20.62 20.71C20.28 20.83 19.72 20.83 19.38 20.71C16.48 19.72 10 15.59 10 8.59C10 5.5 12.49 3 15.56 3C17.38 3 18.99 3.88 20 5.24C20.5138 4.54588 21.183 3.98173 21.954 3.59274C22.725 3.20376 23.5764 3.00076 24.44 3C27.51 3 30 5.5 30 8.59C30 15.59 23.52 19.72 20.62 20.71Z" stroke="#8B8D97" stroke-width="2" stroke-linecap="round" stroke-linejoin="round"/>
<path d="M3.766 50C3.21533 50 2.72067 49.8693 2.282 49.608C1.85267 49.3373 1.512 48.95 1.26 48.446C1.01733 47.942 0.896 47.3353 0.896 46.626C0.896 45.5713 1.18533 44.75 1.764 44.162C2.34267 43.574 3.11733 43.28 4.088 43.28C4.80667 43.28 5.39 43.4247 5.838 43.714C6.286 44.0033 6.51 44.3767 6.51 44.834V50H5.11V44.834C5.09133 44.694 4.998 44.5867 4.83 44.512C4.662 44.428 4.41467 44.386 4.088 44.386C3.5 44.386 3.052 44.5727 2.744 44.946C2.44533 45.31 2.296 45.87 2.296 46.626C2.296 47.354 2.45 47.914 2.758 48.306C3.07533 48.698 3.528 48.894 4.116 48.894H7.238V50H3.766ZM7.238 50V48.894C7.35 48.894 7.42467 48.9407 7.462 49.034C7.49933 49.1273 7.518 49.2627 7.518 49.44C7.518 49.608 7.49933 49.7433 7.462 49.846C7.42467 49.9487 7.35 50 7.238 50ZM4.816 42.356C4.592 42.356 4.396 42.2767 4.228 42.118C4.06933 41.95 3.99 41.754 3.99 41.53C3.99 41.2967 4.06933 41.1007 4.228 40.942C4.396 40.774 4.592 40.69 4.816 40.69C5.04933 40.69 5.24533 40.774 5.404 40.942C5.56267 41.1007 5.642 41.2967 5.642 41.53C5.642 41.754 5.56267 41.95 5.404 42.118C5.24533 42.2767 5.04933 42.356 4.816 42.356ZM2.716 42.356C2.492 42.356 2.296 42.2767 2.128 42.118C1.96933 41.95 1.89 41.754 1.89 41.53C1.89 41.2967 1.96933 41.1007 2.128 40.942C2.296 40.774 2.492 40.69 2.716 40.69C2.94933 40.69 3.14533 40.774 3.304 40.942C3.46267 41.1007 3.542 41.2967 3.542 41.53C3.542 41.754 3.46267 41.95 3.304 42.118C3.14533 42.2767 2.94933 42.356 2.716 42.356ZM11.4044 50C10.9098 50 10.4664 49.888 10.0744 49.664C9.69176 49.4307 9.38842 49.1133 9.16442 48.712C8.94976 48.3107 8.84242 47.858 8.84242 47.354H10.2424C10.2424 47.5967 10.2844 47.8347 10.3684 48.068C10.4524 48.3013 10.5784 48.4973 10.7464 48.656C10.9238 48.8147 11.1431 48.894 11.4044 48.894H11.9644V50H11.4044ZM7.23242 50V48.894H7.68042C7.95109 48.894 8.17042 48.8147 8.33842 48.656C8.50642 48.4973 8.63242 48.3013 8.71642 48.068C8.80042 47.8347 8.84242 47.5967 8.84242 47.354V42.832C8.84242 42.524 8.80042 42.2673 8.71642 42.062C8.64176 41.8473 8.54376 41.6747 8.42242 41.544C8.31042 41.4133 8.20309 41.32 8.10042 41.264C8.12842 41.208 8.18442 41.1427 8.26842 41.068C8.35242 40.984 8.45976 40.914 8.59042 40.858C8.73042 40.7927 8.88909 40.76 9.06642 40.76C9.27176 40.76 9.46309 40.8113 9.64042 40.914C9.81776 41.0167 9.96242 41.1847 10.0744 41.418C10.1864 41.6513 10.2424 41.9593 10.2424 42.342V47.354C10.2424 47.858 10.1304 48.3107 9.90642 48.712C9.69176 49.1133 9.39309 49.4307 9.01042 49.664C8.62776 49.888 8.18442 50 7.68042 50H7.23242ZM7.23242 50C7.12976 50 7.05976 49.9487 7.02242 49.846C6.97576 49.7433 6.95242 49.608 6.95242 49.44C6.95242 49.2627 6.97576 49.1273 7.02242 49.034C7.05976 48.9407 7.12976 48.894 7.23242 48.894V50ZM11.9644 50V48.894C12.0764 48.894 12.1511 48.9407 12.1884 49.034C12.2258 49.1273 12.2444 49.2627 12.2444 49.44C12.2444 49.608 12.2258 49.7433 12.1884 49.846C12.1511 49.9487 12.0764 50 11.9644 50ZM23.0369 50C22.5422 50 22.0989 49.888 21.7069 49.664C21.3242 49.4307 21.0209 49.1133 20.7969 48.712C20.5822 48.3107 20.4749 47.858 20.4749 47.354L21.8749 47.004V47.354C21.8749 47.5967 21.9169 47.8347 22.0009 48.068C22.0849 48.3013 22.2109 48.4973 22.3789 48.656C22.5562 48.8147 22.7756 48.894 23.0369 48.894H23.5969V50H23.0369ZM11.9629 50V48.894H19.2849C19.6489 48.894 19.9382 48.7493 20.1529 48.46C20.3676 48.1613 20.4749 47.6807 20.4749 47.018C20.4749 46.0847 20.2602 45.4127 19.8309 45.002C19.4109 44.5913 18.8322 44.386 18.0949 44.386C17.5162 44.386 17.0262 44.4933 16.6249 44.708C16.2329 44.9227 15.9062 45.198 15.6449 45.534C15.3836 45.8607 15.1736 46.2153 15.0149 46.598C14.8562 46.9807 14.7256 47.3493 14.6229 47.704L13.9649 47.494C14.0582 47.13 14.1656 46.752 14.2869 46.36C14.4082 45.9587 14.5576 45.5807 14.7349 45.226C14.9216 44.862 15.1549 44.5353 15.4349 44.246C15.7242 43.9473 16.0836 43.714 16.5129 43.546C16.9422 43.3687 17.4649 43.28 18.0809 43.28C19.2756 43.28 20.2042 43.6067 20.8669 44.26C21.5389 44.9133 21.8749 45.828 21.8749 47.004C21.8749 47.9467 21.6462 48.684 21.1889 49.216C20.7409 49.7387 20.1062 50 19.2849 50H11.9629ZM13.2089 50V45.618C13.2089 45.3473 13.1342 45.1047 12.9849 44.89C12.8356 44.666 12.6862 44.5073 12.5369 44.414C12.6022 44.3207 12.7142 44.2273 12.8729 44.134C13.0409 44.0407 13.2369 43.994 13.4609 43.994C13.6196 43.994 13.7689 44.0267 13.9089 44.092C14.0489 44.148 14.1702 44.2367 14.2729 44.358C14.3849 44.4793 14.4689 44.638 14.5249 44.834C14.5902 45.0207 14.6229 45.2447 14.6229 45.506V50H13.2089ZM11.9629 50C11.8602 50 11.7902 49.9487 11.7529 49.846C11.7062 49.7433 11.6829 49.608 11.6829 49.44C11.6829 49.2627 11.7062 49.1273 11.7529 49.034C11.7902 48.9407 11.8602 48.894 11.9629 48.894V50ZM23.5969 50V48.894C23.7089 48.894 23.7836 48.9407 23.8209 49.034C23.8582 49.1273 23.8769 49.2627 23.8769 49.44C23.8769 49.608 23.8582 49.7433 23.8209 49.846C23.7836 49.9487 23.7089 50 23.5969 50ZM17.5349 42.356C17.2829 42.356 17.0729 42.272 16.9049 42.104C16.7369 41.936 16.6529 41.7353 16.6529 41.502C16.6529 41.2687 16.7369 41.068 16.9049 40.9C17.0729 40.7227 17.2829 40.634 17.5349 40.634C17.7589 40.634 17.9549 40.7227 18.1229 40.9C18.3002 41.068 18.3889 41.2687 18.3889 41.502C18.3889 41.7353 18.3002 41.936 18.1229 42.104C17.9549 42.272 17.7589 42.356 17.5349 42.356ZM31.4097 50C30.915 50 30.4717 49.888 30.0797 49.664C29.697 49.4307 29.3937 49.1133 29.1697 48.712C28.955 48.3107 28.8477 47.858 28.8477 47.354H30.2477C30.2477 47.5967 30.2897 47.8347 30.3737 48.068C30.4577 48.3013 30.5837 48.4973 30.7517 48.656C30.929 48.8147 31.1483 48.894 31.4097 48.894H31.9697V50H31.4097ZM23.5977 50V48.894H27.5177C27.9283 48.894 28.2503 48.7587 28.4837 48.488C28.7263 48.208 28.8477 47.8347 28.8477 47.368V44.834C28.829 44.694 28.7357 44.5867 28.5677 44.512C28.3997 44.428 28.1477 44.386 27.8117 44.386C27.233 44.386 26.7897 44.5727 26.4817 44.946C26.183 45.31 26.0337 45.87 26.0337 46.626C26.0337 47.354 26.1877 47.9093 26.4957 48.292C26.813 48.6747 27.2657 48.8753 27.8537 48.894L27.4897 49.986C26.967 49.93 26.4863 49.776 26.0477 49.524C25.6183 49.2627 25.273 48.894 25.0117 48.418C24.7503 47.9327 24.6197 47.3353 24.6197 46.626C24.6197 45.5713 24.909 44.75 25.4877 44.162C26.0663 43.574 26.841 43.28 27.8117 43.28C28.5303 43.28 29.1137 43.4293 29.5617 43.728C30.019 44.0173 30.2477 44.386 30.2477 44.834V47.368C30.2477 47.872 30.131 48.3247 29.8977 48.726C29.6643 49.118 29.3423 49.4307 28.9317 49.664C28.5303 49.888 28.059 50 27.5177 50H23.5977ZM23.5977 50C23.495 50 23.425 49.9487 23.3877 49.846C23.341 49.7433 23.3177 49.608 23.3177 49.44C23.3177 49.2627 23.341 49.1273 23.3877 49.034C23.425 48.9407 23.495 48.894 23.5977 48.894V50ZM31.9697 50V48.894C32.0817 48.894 32.1563 48.9407 32.1937 49.034C32.231 49.1273 32.2497 49.2627 32.2497 49.44C32.2497 49.608 32.231 49.7433 32.1937 49.846C32.1563 49.9487 32.0817 50 31.9697 50ZM27.8677 42.37C27.6157 42.37 27.4057 42.286 27.2377 42.118C27.0697 41.95 26.9857 41.7493 26.9857 41.516C26.9857 41.2827 27.0697 41.082 27.2377 40.914C27.4057 40.7367 27.6157 40.648 27.8677 40.648C28.0917 40.648 28.2877 40.7367 28.4557 40.914C28.633 41.082 28.7217 41.2827 28.7217 41.516C28.7217 41.7493 28.633 41.95 28.4557 42.118C28.2877 42.286 28.0917 42.37 27.8677 42.37ZM31.9648 50V48.894H35.0868C35.6748 48.894 36.1228 48.698 36.4308 48.306C36.7482 47.914 36.9068 47.354 36.9068 46.626C36.9068 45.87 36.7528 45.31 36.4448 44.946C36.1462 44.5727 35.7028 44.386 35.1148 44.386C34.7882 44.386 34.5408 44.428 34.3728 44.512C34.2048 44.5867 34.1115 44.694 34.0928 44.834V50H32.6928V44.834C32.6928 44.3767 32.9168 44.0033 33.3648 43.714C33.8222 43.4247 34.4055 43.28 35.1148 43.28C36.0948 43.28 36.8742 43.574 37.4528 44.162C38.0315 44.75 38.3208 45.5713 38.3208 46.626C38.3208 47.3353 38.1948 47.942 37.9428 48.446C37.7002 48.95 37.3595 49.3373 36.9208 49.608C36.4915 49.8693 36.0015 50 35.4508 50H31.9648ZM31.9648 50C31.8622 50 31.7922 49.9487 31.7548 49.846C31.7082 49.7433 31.6848 49.608 31.6848 49.44C31.6848 49.2627 31.7082 49.1273 31.7548 49.034C31.7922 48.9407 31.8622 48.894 31.9648 48.894V50Z" fill="#8B8D97"/>
</svg>
