<svg width="16" height="13" viewBox="0 0 16 13" fill="none" xmlns="http://www.w3.org/2000/svg">
<g id="Gmail" clip-path="url(#clip0_745_991)">
<path id="Vector" d="M14.6871 0.71228C15.408 0.71228 15.9979 1.30213 15.9979 2.02302V2.40301L14.1768 3.70382L7.97711 7.97451L1.77738 3.6605V12.2882H1.31076C0.589864 12.2882 0 11.6983 0 10.9774V2.02339C0 1.30248 0.589864 0.712631 1.31076 0.712631L7.97711 5.6552L14.6868 0.712631L14.6871 0.71228Z" fill="#B2392F"/>
<path id="Vector_2" d="M1.31073 0.712036L7.97708 5.65461L14.6871 0.712036H1.31073Z" fill="url(#paint0_linear_745_991)"/>
<path id="Vector_3" d="M1.7774 3.66028V12.2879H14.1772V3.7036L7.97713 7.97429L1.7774 3.66028Z" fill="#E7E4D7"/>
<path id="Vector_4" d="M1.7774 12.2879L7.97713 7.97421L7.94906 7.95435L1.7774 12.1931V12.2879Z" fill="#B8B7AE"/>
<path id="Vector_5" d="M14.1772 3.70361L14.1807 12.288L7.97711 7.9743L14.1772 3.70361Z" fill="#B7B6AD"/>
<path id="Vector_6" d="M15.9979 2.40282L16 10.9783C15.9688 11.9314 15.5558 12.2716 14.1807 12.2876L14.1772 3.70328L15.9982 2.40247L15.9979 2.40282Z" fill="#B2392F"/>
<path id="Vector_7" d="M1.31073 0.712036L7.97708 5.65461L14.6871 0.712036H1.31073Z" fill="url(#paint1_linear_745_991)"/>
<path id="Vector_8" d="M1.31073 0.712036L7.97708 5.65461L14.6871 0.712036H1.31073Z" fill="url(#paint2_linear_745_991)"/>
<path id="Vector_9" d="M1.31073 0.712036L7.97708 5.65461L14.6871 0.712036H1.31073Z" fill="url(#paint3_linear_745_991)"/>
<path id="Vector_10" d="M1.31073 0.712036L7.97708 5.65461L14.6871 0.712036H1.31073Z" fill="url(#paint4_linear_745_991)"/>
<path id="Vector_11" d="M1.31073 0.712036L7.97708 5.65461L14.6871 0.712036H1.31073Z" fill="url(#paint5_linear_745_991)"/>
<path id="Vector_12" d="M1.31073 0.712036L7.97708 5.65461L14.6871 0.712036H1.31073Z" fill="url(#paint6_linear_745_991)"/>
<path id="Vector_13" d="M1.31073 0.712036L7.97708 5.65461L14.6871 0.712036H1.31073Z" fill="url(#paint7_linear_745_991)"/>
<path id="Vector_14" d="M1.31073 0.712036L7.97708 5.65461L14.6871 0.712036H1.31073Z" fill="#F7F5ED"/>
</g>
<defs>
<linearGradient id="paint0_linear_745_991" x1="3.71743" y1="3.18375" x2="12.2641" y2="3.18375" gradientUnits="userSpaceOnUse">
<stop stop-color="#F8F6EF"/>
<stop offset="1" stop-color="#E7E4D6"/>
</linearGradient>
<linearGradient id="paint1_linear_745_991" x1="3.71743" y1="3.18375" x2="12.2641" y2="3.18375" gradientUnits="userSpaceOnUse">
<stop stop-color="#F8F6EF"/>
<stop offset="1" stop-color="#E7E4D6"/>
</linearGradient>
<linearGradient id="paint2_linear_745_991" x1="3.71743" y1="3.18375" x2="12.2641" y2="3.18375" gradientUnits="userSpaceOnUse">
<stop stop-color="#F8F6EF"/>
<stop offset="1" stop-color="#E7E4D6"/>
</linearGradient>
<linearGradient id="paint3_linear_745_991" x1="3.71743" y1="3.18375" x2="12.2641" y2="3.18375" gradientUnits="userSpaceOnUse">
<stop stop-color="#F8F6EF"/>
<stop offset="1" stop-color="#E7E4D6"/>
</linearGradient>
<linearGradient id="paint4_linear_745_991" x1="3.71743" y1="3.18375" x2="12.2641" y2="3.18375" gradientUnits="userSpaceOnUse">
<stop stop-color="#F8F6EF"/>
<stop offset="1" stop-color="#E7E4D6"/>
</linearGradient>
<linearGradient id="paint5_linear_745_991" x1="3.71743" y1="3.18375" x2="12.2641" y2="3.18375" gradientUnits="userSpaceOnUse">
<stop stop-color="#F8F6EF"/>
<stop offset="1" stop-color="#E7E4D6"/>
</linearGradient>
<linearGradient id="paint6_linear_745_991" x1="3.71743" y1="3.18375" x2="12.2641" y2="3.18375" gradientUnits="userSpaceOnUse">
<stop stop-color="#F8F6EF"/>
<stop offset="1" stop-color="#E7E4D6"/>
</linearGradient>
<linearGradient id="paint7_linear_745_991" x1="3.71743" y1="3.18375" x2="12.2641" y2="3.18375" gradientUnits="userSpaceOnUse">
<stop stop-color="#F8F6EF"/>
<stop offset="1" stop-color="#E7E4D6"/>
</linearGradient>
<clipPath id="clip0_745_991">
<rect width="16" height="11.5776" fill="white" transform="translate(0 0.711182)"/>
</clipPath>
</defs>
</svg>
