<svg width="40" height="54" viewBox="0 0 40 54" fill="none" xmlns="http://www.w3.org/2000/svg">
<path d="M15 18C13.1711 18.4117 12 19.0443 12 19.7537C12 20.9943 15.5817 22 20 22C24.4183 22 28 20.9943 28 19.7537C28 19.0443 26.8289 18.4117 25 18" stroke="#8B8D97" stroke-width="1.5" stroke-linecap="round"/>
<path d="M22.5 9C22.5 10.3807 21.3807 11.5 20 11.5C18.6193 11.5 17.5 10.3807 17.5 9C17.5 7.61929 18.6193 6.5 20 6.5C21.3807 6.5 22.5 7.61929 22.5 9Z" stroke="#8B8D97" stroke-width="1.5"/>
<path d="M21.2574 17.4936C20.9201 17.8184 20.4693 18 20.0002 18C19.531 18 19.0802 17.8184 18.7429 17.4936C15.6543 14.5008 11.5152 11.1575 13.5337 6.30373C14.6251 3.67932 17.2449 2 20.0002 2C22.7554 2 25.3752 3.67933 26.4666 6.30373C28.4826 11.1514 24.3536 14.5111 21.2574 17.4936Z" stroke="#8B8D97" stroke-width="1.5"/>
<path d="M2.59 53.752C2.30067 53.752 2.05333 53.6587 1.848 53.472C1.64267 53.2947 1.47933 53.052 1.358 52.744C1.23667 52.4453 1.148 52.1187 1.092 51.764C1.036 51.4187 1.008 51.0873 1.008 50.77C1.008 50.1167 1.15733 49.6407 1.456 49.342C1.764 49.0433 2.18867 48.894 2.73 48.894C3.28067 48.894 3.80333 48.81 4.298 48.642C4.802 48.474 5.25 48.25 5.642 47.97C6.04333 47.69 6.36067 47.3727 6.594 47.018C6.82733 46.654 6.944 46.2807 6.944 45.898C6.944 45.4127 6.75267 45.0393 6.37 44.778C5.98733 44.5167 5.43667 44.386 4.718 44.386C3.99933 44.386 3.44867 44.5167 3.066 44.778C2.69267 45.0393 2.506 45.4127 2.506 45.898C2.506 46.2807 2.618 46.654 2.842 47.018C3.07533 47.3727 3.388 47.69 3.78 47.97C4.18133 48.25 4.634 48.474 5.138 48.642C5.642 48.81 6.16467 48.894 6.706 48.894H9.114V50H6.706C6.062 50 5.40867 49.8973 4.746 49.692C4.08333 49.4867 3.47667 49.202 2.926 48.838C2.37533 48.4647 1.932 48.0307 1.596 47.536C1.26 47.032 1.092 46.486 1.092 45.898C1.092 45.4313 1.19933 45.0347 1.414 44.708C1.62867 44.372 1.91333 44.1013 2.268 43.896C2.632 43.6813 3.024 43.5273 3.444 43.434C3.87333 43.3313 4.298 43.28 4.718 43.28C5.138 43.28 5.558 43.3313 5.978 43.434C6.40733 43.5273 6.79933 43.6767 7.154 43.882C7.50867 44.0873 7.79333 44.358 8.008 44.694C8.232 45.0207 8.344 45.422 8.344 45.898C8.344 46.486 8.176 47.032 7.84 47.536C7.51333 48.0307 7.07467 48.4647 6.524 48.838C5.97333 49.202 5.36667 49.4867 4.704 49.692C4.04133 49.8973 3.38333 50 2.73 50H1.862L2.52 49.566C2.48267 49.7527 2.45467 49.9347 2.436 50.112C2.42667 50.2893 2.422 50.4387 2.422 50.56C2.422 50.8587 2.45 51.1713 2.506 51.498C2.562 51.8247 2.66933 52.1467 2.828 52.464C2.98667 52.7813 3.22467 53.0753 3.542 53.346C3.514 53.402 3.44867 53.458 3.346 53.514C3.25267 53.5793 3.136 53.6353 2.996 53.682C2.86533 53.7287 2.73 53.752 2.59 53.752ZM9.114 50V48.894C9.226 48.894 9.30067 48.9407 9.338 49.034C9.37533 49.1273 9.394 49.2627 9.394 49.44C9.394 49.608 9.37533 49.7433 9.338 49.846C9.30067 49.9487 9.226 50 9.114 50ZM9.11914 50V48.894H13.0391C13.4498 48.894 13.7718 48.7587 14.0051 48.488C14.2478 48.208 14.3691 47.8347 14.3691 47.368V44.834C14.3505 44.694 14.2571 44.5867 14.0891 44.512C13.9211 44.428 13.6691 44.386 13.3331 44.386C12.7545 44.386 12.3111 44.5727 12.0031 44.946C11.7045 45.31 11.5551 45.87 11.5551 46.626C11.5551 47.354 11.7091 47.9093 12.0171 48.292C12.3345 48.6747 12.7871 48.8753 13.3751 48.894L13.0111 49.986C12.4885 49.93 12.0078 49.776 11.5691 49.524C11.1398 49.2627 10.7945 48.894 10.5331 48.418C10.2718 47.9327 10.1411 47.3353 10.1411 46.626C10.1411 45.5713 10.4305 44.75 11.0091 44.162C11.5878 43.574 12.3625 43.28 13.3331 43.28C14.0518 43.28 14.6351 43.4293 15.0831 43.728C15.5405 44.0173 15.7691 44.386 15.7691 44.834V47.368C15.7691 47.872 15.6525 48.3247 15.4191 48.726C15.1858 49.118 14.8638 49.4307 14.4531 49.664C14.0518 49.888 13.5805 50 13.0391 50H9.11914ZM9.11914 50C9.01647 50 8.94647 49.9487 8.90914 49.846C8.86247 49.7433 8.83914 49.608 8.83914 49.44C8.83914 49.2627 8.86247 49.1273 8.90914 49.034C8.94647 48.9407 9.01647 48.894 9.11914 48.894V50ZM14.4251 42.356C14.2011 42.356 14.0051 42.2767 13.8371 42.118C13.6785 41.95 13.5991 41.754 13.5991 41.53C13.5991 41.2967 13.6785 41.1007 13.8371 40.942C14.0051 40.774 14.2011 40.69 14.4251 40.69C14.6585 40.69 14.8545 40.774 15.0131 40.942C15.1718 41.1007 15.2511 41.2967 15.2511 41.53C15.2511 41.754 15.1718 41.95 15.0131 42.118C14.8545 42.2767 14.6585 42.356 14.4251 42.356ZM12.3251 42.356C12.1011 42.356 11.9051 42.2767 11.7371 42.118C11.5785 41.95 11.4991 41.754 11.4991 41.53C11.4991 41.2967 11.5785 41.1007 11.7371 40.942C11.9051 40.774 12.1011 40.69 12.3251 40.69C12.5585 40.69 12.7545 40.774 12.9131 40.942C13.0718 41.1007 13.1511 41.2967 13.1511 41.53C13.1511 41.754 13.0718 41.95 12.9131 42.118C12.7545 42.2767 12.5585 42.356 12.3251 42.356ZM23.1897 50V48.894H24.2397V50H23.1897ZM20.4457 50C19.895 50 19.4004 49.8693 18.9617 49.608C18.5324 49.3373 18.1917 48.95 17.9397 48.446C17.697 47.942 17.5757 47.3353 17.5757 46.626C17.5757 45.5713 17.865 44.75 18.4437 44.162C19.0224 43.574 19.797 43.28 20.7677 43.28C21.4864 43.28 22.0697 43.4247 22.5177 43.714C22.9657 44.0033 23.1897 44.3767 23.1897 44.834V50H21.7897V44.834C21.771 44.694 21.6777 44.5867 21.5097 44.512C21.3417 44.428 21.0944 44.386 20.7677 44.386C20.1797 44.386 19.7317 44.5727 19.4237 44.946C19.125 45.31 18.9757 45.87 18.9757 46.626C18.9757 47.354 19.1297 47.914 19.4377 48.306C19.755 48.698 20.2077 48.894 20.7957 48.894H23.1897V50H20.4457ZM21.4817 53.206C21.3324 53.206 21.2017 53.1827 21.0897 53.136C20.987 53.0893 20.8984 53.0287 20.8237 52.954C20.749 52.8887 20.693 52.828 20.6557 52.772C20.9824 52.5013 21.225 52.2073 21.3837 51.89C21.5424 51.582 21.6497 51.2647 21.7057 50.938C21.7617 50.6113 21.7897 50.2987 21.7897 50V48.894H23.1897V50C23.1897 50.3453 23.1617 50.7047 23.1057 51.078C23.0497 51.4607 22.9517 51.8107 22.8117 52.128C22.681 52.4547 22.5084 52.716 22.2937 52.912C22.079 53.108 21.8084 53.206 21.4817 53.206ZM24.2397 50V48.894C24.3424 48.894 24.4124 48.9407 24.4497 49.034C24.4964 49.1273 24.5197 49.2627 24.5197 49.44C24.5197 49.608 24.4964 49.7433 24.4497 49.846C24.4124 49.9487 24.3424 50 24.2397 50ZM31.7582 50C31.2636 50 30.8202 49.888 30.4282 49.664C30.0362 49.4307 29.7282 49.1133 29.5042 48.712C29.2896 48.3107 29.1822 47.858 29.1822 47.354V46.668H30.5962V47.354C30.5962 47.5967 30.6336 47.8347 30.7082 48.068C30.7922 48.3013 30.9182 48.4973 31.0862 48.656C31.2636 48.8147 31.4876 48.894 31.7582 48.894H32.3042V50H31.7582ZM24.2402 50V48.894H27.3622C27.9502 48.894 28.3982 48.698 28.7062 48.306C29.0236 47.914 29.1822 47.354 29.1822 46.626C29.1822 45.87 29.0282 45.31 28.7202 44.946C28.4216 44.5727 27.9782 44.386 27.3902 44.386C27.0636 44.386 26.8162 44.428 26.6482 44.512C26.4802 44.5867 26.3869 44.694 26.3682 44.834V50H24.9682V44.834C24.9682 44.3767 25.1922 44.0033 25.6402 43.714C26.0976 43.4247 26.6809 43.28 27.3902 43.28C28.3702 43.28 29.1496 43.574 29.7282 44.162C30.3069 44.75 30.5962 45.5713 30.5962 46.626C30.5962 47.3353 30.4702 47.942 30.2182 48.446C29.9756 48.95 29.6349 49.3373 29.1962 49.608C28.7669 49.8693 28.2769 50 27.7262 50H24.2402ZM24.2402 50C24.1376 50 24.0676 49.9487 24.0302 49.846C23.9836 49.7433 23.9602 49.608 23.9602 49.44C23.9602 49.2627 23.9836 49.1273 24.0302 49.034C24.0676 48.9407 24.1376 48.894 24.2402 48.894V50ZM32.3042 50V48.894C32.4162 48.894 32.4909 48.9407 32.5282 49.034C32.5656 49.1273 32.5842 49.2627 32.5842 49.44C32.5842 49.608 32.5656 49.7433 32.5282 49.846C32.4909 49.9487 32.4162 50 32.3042 50ZM32.3066 50V48.894H32.7546C33.0253 48.894 33.2446 48.8147 33.4126 48.656C33.5806 48.4973 33.7066 48.3013 33.7906 48.068C33.8746 47.8347 33.9166 47.5967 33.9166 47.354V42.832C33.9166 42.524 33.8746 42.2673 33.7906 42.062C33.716 41.8473 33.618 41.6747 33.4966 41.544C33.3846 41.4133 33.2773 41.32 33.1746 41.264C33.2026 41.208 33.2586 41.1427 33.3426 41.068C33.4266 40.984 33.534 40.914 33.6646 40.858C33.8046 40.7927 33.9633 40.76 34.1406 40.76C34.346 40.76 34.5373 40.8113 34.7146 40.914C34.892 41.0167 35.0366 41.1847 35.1486 41.418C35.2606 41.6513 35.3166 41.9593 35.3166 42.342V47.354C35.3166 47.858 35.2046 48.3107 34.9806 48.712C34.766 49.1133 34.4673 49.4307 34.0846 49.664C33.702 49.888 33.2586 50 32.7546 50H32.3066ZM32.3066 50C32.204 50 32.134 49.9487 32.0966 49.846C32.05 49.7433 32.0266 49.608 32.0266 49.44C32.0266 49.2627 32.05 49.1273 32.0966 49.034C32.134 48.9407 32.204 48.894 32.3066 48.894V50ZM38.3311 50C38.0231 50 37.8318 49.9113 37.7571 49.734C37.6825 49.5473 37.6451 49.3327 37.6451 49.09V42.832C37.6451 42.524 37.6031 42.2673 37.5191 42.062C37.4351 41.8473 37.3325 41.6747 37.2111 41.544C37.0991 41.4133 36.9965 41.32 36.9031 41.264C36.9311 41.208 36.9871 41.1427 37.0711 41.068C37.1551 40.984 37.2671 40.914 37.4071 40.858C37.5471 40.7927 37.7058 40.76 37.8831 40.76C38.0791 40.76 38.2658 40.8113 38.4431 40.914C38.6205 41.0167 38.7651 41.1847 38.8771 41.418C38.9891 41.6513 39.0451 41.9593 39.0451 42.342V49.09C39.0451 49.3327 39.0031 49.5473 38.9191 49.734C38.8351 49.9113 38.6391 50 38.3311 50Z" fill="#8B8D97"/>
</svg>
