<svg width="20" height="20" viewBox="0 0 20 20" fill="none" xmlns="http://www.w3.org/2000/svg">
<g id="square-lock-02">
<path id="Vector" d="M10 13.75V12.0834" stroke="#8B8D97" stroke-width="1.5" stroke-linecap="round"/>
<path id="Vector_2" d="M3.55649 15.7039C3.74389 17.0958 4.89675 18.1863 6.2997 18.2508C7.4802 18.305 8.6794 18.3333 9.99998 18.3333C11.3206 18.3333 12.5197 18.305 13.7002 18.2508C15.1032 18.1863 16.2561 17.0958 16.4435 15.7039C16.5658 14.7956 16.6666 13.8647 16.6666 12.9167C16.6666 11.9687 16.5658 11.0378 16.4435 10.1294C16.2561 8.7375 15.1032 7.64707 13.7002 7.58257C12.5197 7.52831 11.3206 7.5 9.99998 7.5C8.6794 7.5 7.4802 7.52831 6.2997 7.58257C4.89675 7.64707 3.74389 8.7375 3.55649 10.1294C3.43418 11.0378 3.33331 11.9687 3.33331 12.9167C3.33331 13.8647 3.43418 14.7956 3.55649 15.7039Z" stroke="#8B8D97" stroke-width="1.5"/>
<path id="Vector_3" d="M6.25 7.49996V5.41663C6.25 3.34556 7.92893 1.66663 10 1.66663C12.0711 1.66663 13.75 3.34556 13.75 5.41663V7.49996" stroke="#8B8D97" stroke-width="1.5" stroke-linecap="round" stroke-linejoin="round"/>
</g>
</svg>
