<svg width="113" height="22" viewBox="0 0 113 22" fill="none" xmlns="http://www.w3.org/2000/svg">
<path d="M105.263 6.32563C104.937 2.54412 102.989 1 98.7263 1H98.5895C93.8842 1 92 2.88025 92 7.57563V14.4244C92 19.1197 93.8842 21 98.5895 21H98.7263C102.958 21 104.905 19.4769 105.253 15.7584M98.8421 10.9895H110.821M108.474 7.47059L112 10.9895L108.474 14.5084" stroke="#8B8D97" stroke-width="2" stroke-linecap="round" stroke-linejoin="round"/>
<path d="M2.436 17.738C2.14667 17.738 1.89467 17.6493 1.68 17.472C1.47467 17.2947 1.30667 17.0567 1.176 16.758C1.05467 16.4687 0.961333 16.142 0.896 15.778C0.84 15.4233 0.812 15.0687 0.812 14.714C0.812 14.014 0.966 13.51 1.274 13.202C1.59133 12.8847 2.044 12.726 2.632 12.726H5.432C5.768 12.726 6.02467 12.6 6.202 12.348C6.38867 12.096 6.482 11.6667 6.482 11.06C6.482 10.1733 6.27667 9.534 5.866 9.142C5.45533 8.75 4.844 8.554 4.032 8.554C3.892 8.554 3.738 8.55867 3.57 8.568C3.402 8.568 3.23867 8.57267 3.08 8.582C2.93067 8.59133 2.8 8.596 2.688 8.596C2.408 8.596 2.17933 8.54 2.002 8.428C1.834 8.316 1.708 8.16667 1.624 7.98C1.54 7.784 1.48867 7.58333 1.47 7.378C1.46067 7.21933 1.47467 7.098 1.512 7.014C1.55867 6.92067 1.60533 6.86933 1.652 6.86C1.71733 6.972 1.83867 7.07933 2.016 7.182C2.19333 7.27533 2.44533 7.322 2.772 7.322C2.86533 7.322 2.98667 7.31733 3.136 7.308C3.28533 7.29867 3.43933 7.294 3.598 7.294C3.766 7.28467 3.906 7.28 4.018 7.28C4.73667 7.28 5.35267 7.378 5.866 7.574C6.37933 7.77 6.79933 8.04067 7.126 8.386C7.45267 8.73133 7.69067 9.13267 7.84 9.59C7.99867 10.0473 8.078 10.5327 8.078 11.046C8.078 11.7647 7.94733 12.3433 7.686 12.782C7.434 13.2113 7.10733 13.524 6.706 13.72C6.30467 13.9067 5.88 14 5.432 14H1.806L2.506 13.524C2.46867 13.7013 2.44067 13.8787 2.422 14.056C2.40333 14.2427 2.394 14.4247 2.394 14.602C2.394 14.966 2.42667 15.2973 2.492 15.596C2.55733 15.904 2.66467 16.1793 2.814 16.422C2.97267 16.674 3.18267 16.912 3.444 17.136C3.43467 17.2013 3.38333 17.2807 3.29 17.374C3.19667 17.4767 3.07533 17.5607 2.926 17.626C2.786 17.7007 2.62267 17.738 2.436 17.738ZM4.83 16.548C4.55933 16.548 4.33067 16.4547 4.144 16.268C3.96667 16.0907 3.878 15.876 3.878 15.624C3.878 15.372 3.96667 15.1527 4.144 14.966C4.33067 14.7887 4.55467 14.7 4.816 14.7C5.068 14.7 5.28267 14.7887 5.46 14.966C5.64667 15.1527 5.74 15.372 5.74 15.624C5.74 15.876 5.64667 16.0907 5.46 16.268C5.28267 16.4547 5.07267 16.548 4.83 16.548ZM12.6664 14C12.1251 14 11.6304 13.8693 11.1824 13.608C10.7437 13.3373 10.3984 12.95 10.1464 12.446C9.89439 11.942 9.76839 11.3353 9.76839 10.626C9.76839 9.57133 10.0577 8.75 10.6364 8.162C11.2244 7.574 12.0131 7.28 13.0024 7.28C13.7304 7.28 14.3184 7.42933 14.7664 7.728C15.2237 8.01733 15.4524 8.386 15.4524 8.834V14H13.8704V8.834C13.8331 8.75 13.7397 8.68467 13.5904 8.638C13.4411 8.582 13.2451 8.554 13.0024 8.554C12.4611 8.554 12.0504 8.722 11.7704 9.058C11.4997 9.394 11.3644 9.91667 11.3644 10.626C11.3644 11.298 11.4997 11.816 11.7704 12.18C12.0411 12.544 12.4331 12.726 12.9464 12.726H15.4524V14H12.6664ZM13.7444 17.206C13.5577 17.206 13.3991 17.1687 13.2684 17.094C13.1377 17.0287 13.0351 16.9447 12.9604 16.842C12.8857 16.7393 12.8391 16.6553 12.8204 16.59C13.0911 16.366 13.3011 16.128 13.4504 15.876C13.5997 15.624 13.7071 15.3393 13.7724 15.022C13.8377 14.714 13.8704 14.3733 13.8704 14V12.726H15.4524V14C15.4524 14.3733 15.4197 14.7467 15.3544 15.12C15.2984 15.5027 15.2004 15.8527 15.0604 16.17C14.9297 16.4873 14.7571 16.7393 14.5424 16.926C14.3277 17.1127 14.0617 17.206 13.7444 17.206ZM19.3323 14V12.726H20.8863V14H19.3323ZM17.6243 17.206C17.4283 17.206 17.2649 17.1687 17.1343 17.094C17.0036 17.0287 16.9009 16.9447 16.8263 16.842C16.7516 16.7393 16.7049 16.6553 16.6863 16.59C16.9569 16.366 17.1669 16.128 17.3163 15.876C17.4656 15.624 17.5729 15.3393 17.6383 15.022C17.7036 14.714 17.7363 14.3733 17.7363 14V8.05C17.7363 7.78867 17.8109 7.59733 17.9603 7.476C18.1096 7.34533 18.3009 7.28 18.5343 7.28C18.7676 7.28 18.9589 7.34533 19.1083 7.476C19.2576 7.59733 19.3323 7.78867 19.3323 8.05V14C19.3323 14.3733 19.2996 14.7467 19.2343 15.12C19.1689 15.5027 19.0663 15.8527 18.9263 16.17C18.7956 16.4873 18.6229 16.7393 18.4083 16.926C18.1936 17.1127 17.9323 17.206 17.6243 17.206ZM20.8863 14V12.726C20.9983 12.726 21.0729 12.782 21.1103 12.894C21.1476 13.006 21.1663 13.16 21.1663 13.356C21.1663 13.552 21.1476 13.7107 21.1103 13.832C21.0729 13.944 20.9983 14 20.8863 14ZM28.9406 14C28.4366 14 27.984 13.8833 27.5826 13.65C27.1813 13.4167 26.864 13.0993 26.6306 12.698C26.4066 12.2967 26.2946 11.8393 26.2946 11.326V11.032H27.8906V11.326C27.8906 11.5407 27.928 11.76 28.0026 11.984C28.0773 12.1987 28.194 12.376 28.3526 12.516C28.5113 12.656 28.7073 12.726 28.9406 12.726H29.5706V14H28.9406ZM20.8906 14V12.726H25.2446C25.5806 12.726 25.8373 12.6 26.0146 12.348C26.2013 12.096 26.2946 11.6667 26.2946 11.06C26.2946 10.1733 26.0893 9.534 25.6786 9.142C25.268 8.75 24.6566 8.554 23.8446 8.554C23.7046 8.554 23.5506 8.55867 23.3826 8.568C23.2146 8.568 23.0513 8.57267 22.8926 8.582C22.7433 8.59133 22.608 8.596 22.4866 8.596C22.216 8.596 21.992 8.54 21.8146 8.428C21.6466 8.316 21.5206 8.16667 21.4366 7.98C21.3526 7.784 21.3013 7.58333 21.2826 7.378C21.2733 7.21933 21.2873 7.098 21.3246 7.014C21.3713 6.92067 21.418 6.86933 21.4646 6.86C21.53 6.972 21.6513 7.07933 21.8286 7.182C22.006 7.27533 22.258 7.322 22.5846 7.322C22.678 7.322 22.7993 7.31733 22.9486 7.308C23.098 7.29867 23.252 7.294 23.4106 7.294C23.5786 7.28467 23.7186 7.28 23.8306 7.28C24.5493 7.28 25.1653 7.378 25.6786 7.574C26.192 7.77 26.612 8.04067 26.9386 8.386C27.2653 8.73133 27.5033 9.13267 27.6526 9.59C27.8113 10.0473 27.8906 10.5327 27.8906 11.046C27.8906 11.7647 27.76 12.3433 27.4986 12.782C27.2466 13.2113 26.92 13.524 26.5186 13.72C26.1173 13.9067 25.6926 14 25.2446 14H20.8906ZM20.8906 14C20.788 14 20.718 13.944 20.6806 13.832C20.634 13.7107 20.6106 13.552 20.6106 13.356C20.6106 13.16 20.634 13.006 20.6806 12.894C20.718 12.782 20.788 12.726 20.8906 12.726V14ZM29.5706 14V12.726C29.6826 12.726 29.7573 12.782 29.7946 12.894C29.832 13.006 29.8506 13.16 29.8506 13.356C29.8506 13.552 29.832 13.7107 29.7946 13.832C29.7573 13.944 29.6826 14 29.5706 14ZM24.0826 6.37C23.812 6.37 23.5833 6.28133 23.3966 6.104C23.2193 5.91733 23.1306 5.698 23.1306 5.446C23.1306 5.194 23.2193 4.97933 23.3966 4.802C23.5833 4.61533 23.8073 4.522 24.0686 4.522C24.3206 4.522 24.5353 4.61533 24.7126 4.802C24.8993 4.97933 24.9926 5.194 24.9926 5.446C24.9926 5.698 24.8993 5.91733 24.7126 6.104C24.5353 6.28133 24.3253 6.37 24.0826 6.37ZM29.5723 14V12.726H30.1323C30.3843 12.726 30.5849 12.656 30.7343 12.516C30.8929 12.376 31.0096 12.1987 31.0843 11.984C31.1589 11.76 31.1963 11.5407 31.1963 11.326V6.818C31.1963 6.50067 31.1543 6.25333 31.0703 6.076C30.9863 5.88933 30.8883 5.74933 30.7763 5.656C30.6736 5.56267 30.5803 5.49267 30.4963 5.446C30.5149 5.38067 30.5616 5.29667 30.6363 5.194C30.7109 5.082 30.8229 4.984 30.9723 4.9C31.1216 4.80667 31.3036 4.76 31.5183 4.76C31.7609 4.76 31.9756 4.82067 32.1623 4.942C32.3489 5.06333 32.4983 5.24533 32.6103 5.488C32.7223 5.73067 32.7783 6.02933 32.7783 6.384V11.326C32.7783 11.8393 32.6616 12.2967 32.4283 12.698C32.2043 13.0993 31.8963 13.4167 31.5043 13.65C31.1123 13.8833 30.6549 14 30.1323 14H29.5723ZM29.5723 14C29.4696 14 29.3996 13.944 29.3623 13.832C29.3156 13.7107 29.2923 13.552 29.2923 13.356C29.2923 13.16 29.3156 13.006 29.3623 12.894C29.3996 12.782 29.4696 12.726 29.5723 12.726V14ZM35.8168 14C35.4901 14 35.2755 13.9067 35.1728 13.72C35.0795 13.524 35.0328 13.3093 35.0328 13.076V6.818C35.0328 6.50067 34.9908 6.25333 34.9068 6.076C34.8228 5.88933 34.7248 5.74933 34.6128 5.656C34.5008 5.56267 34.4075 5.49267 34.3328 5.446C34.3515 5.38067 34.3981 5.29667 34.4728 5.194C34.5475 5.082 34.6595 4.984 34.8088 4.9C34.9581 4.80667 35.1448 4.76 35.3688 4.76C35.6021 4.76 35.8121 4.82067 35.9988 4.942C36.1855 5.06333 36.3348 5.24533 36.4468 5.488C36.5588 5.73067 36.6148 6.02933 36.6148 6.384V13.09C36.6148 13.314 36.5635 13.524 36.4608 13.72C36.3581 13.9067 36.1435 14 35.8168 14ZM50.6945 14C50.1905 14 49.7379 13.8833 49.3365 13.65C48.9352 13.4167 48.6179 13.0993 48.3845 12.698C48.1605 12.2967 48.0485 11.8393 48.0485 11.326H49.6445C49.6445 11.5407 49.6819 11.76 49.7565 11.984C49.8312 12.1987 49.9479 12.376 50.1065 12.516C50.2652 12.656 50.4612 12.726 50.6945 12.726H51.3245V14H50.6945ZM45.9345 17.304C45.0572 17.304 44.3012 17.1547 43.6665 16.856C43.0412 16.5667 42.5605 16.1513 42.2245 15.61C41.8885 15.0687 41.7205 14.434 41.7205 13.706C41.7205 13.4167 41.7485 13.104 41.8045 12.768C41.8699 12.4227 41.9679 12.096 42.0985 11.788C42.2385 11.48 42.4159 11.228 42.6305 11.032C42.8452 10.8267 43.1065 10.724 43.4145 10.724C43.6105 10.724 43.7739 10.7613 43.9045 10.836C44.0352 10.9107 44.1379 10.9947 44.2125 11.088C44.2965 11.1813 44.3479 11.27 44.3665 11.354C44.1145 11.55 43.9092 11.7693 43.7505 12.012C43.6012 12.2453 43.4892 12.5067 43.4145 12.796C43.3492 13.0853 43.3165 13.412 43.3165 13.776C43.3165 14.532 43.5452 15.0967 44.0025 15.47C44.4692 15.8433 45.1179 16.03 45.9485 16.03C46.7045 16.03 47.2412 15.8573 47.5585 15.512C47.8852 15.176 48.0485 14.5927 48.0485 13.762V6.818C48.0485 6.50067 48.0065 6.25333 47.9225 6.076C47.8479 5.88933 47.7545 5.74933 47.6425 5.656C47.5305 5.56267 47.4325 5.49267 47.3485 5.446C47.3672 5.38067 47.4139 5.29667 47.4885 5.194C47.5725 5.082 47.6845 4.984 47.8245 4.9C47.9739 4.80667 48.1605 4.76 48.3845 4.76C48.6179 4.76 48.8279 4.82067 49.0145 4.942C49.2105 5.06333 49.3645 5.24533 49.4765 5.488C49.5885 5.73067 49.6445 6.02933 49.6445 6.384V13.762C49.6445 14.8447 49.3505 15.7033 48.7625 16.338C48.1745 16.982 47.2319 17.304 45.9345 17.304ZM51.3245 14V12.726C51.4272 12.726 51.4972 12.782 51.5345 12.894C51.5812 13.006 51.6045 13.16 51.6045 13.356C51.6045 13.552 51.5812 13.7107 51.5345 13.832C51.4972 13.944 51.4272 14 51.3245 14ZM51.3242 14V12.726H51.8842C52.1362 12.726 52.3369 12.656 52.4862 12.516C52.6449 12.376 52.7616 12.1987 52.8362 11.984C52.9109 11.76 52.9482 11.5407 52.9482 11.326V8.078C52.9482 7.854 53.0089 7.66733 53.1302 7.518C53.2609 7.35933 53.4662 7.28 53.7462 7.28C54.0169 7.28 54.2129 7.35933 54.3342 7.518C54.4649 7.66733 54.5302 7.854 54.5302 8.078V11.326C54.5302 11.8393 54.4136 12.2967 54.1802 12.698C53.9562 13.0993 53.6482 13.4167 53.2562 13.65C52.8642 13.8833 52.4069 14 51.8842 14H51.3242ZM55.5942 14C55.0809 14 54.6236 13.8833 54.2222 13.65C53.8302 13.4167 53.5176 13.0993 53.2842 12.698C53.0602 12.2967 52.9482 11.8393 52.9482 11.326H54.5302C54.5302 11.5407 54.5676 11.76 54.6422 11.984C54.7169 12.1987 54.8336 12.376 54.9922 12.516C55.1602 12.656 55.3609 12.726 55.5942 12.726H56.2242V14H55.5942ZM56.2242 14V12.726C56.3269 12.726 56.3969 12.782 56.4342 12.894C56.4809 13.006 56.5042 13.16 56.5042 13.356C56.5042 13.552 56.4809 13.7107 56.4342 13.832C56.3969 13.944 56.3269 14 56.2242 14ZM51.3242 14C51.2216 14 51.1516 13.944 51.1142 13.832C51.0676 13.7107 51.0442 13.552 51.0442 13.356C51.0442 13.16 51.0676 13.006 51.1142 12.894C51.1516 12.782 51.2216 12.726 51.3242 12.726V14ZM54.8382 16.898C54.6049 16.898 54.3996 16.8093 54.2222 16.632C54.0542 16.464 53.9702 16.2633 53.9702 16.03C53.9702 15.7873 54.0542 15.582 54.2222 15.414C54.3996 15.246 54.6049 15.162 54.8382 15.162C55.0809 15.162 55.2816 15.246 55.4402 15.414C55.6082 15.582 55.6922 15.7873 55.6922 16.03C55.6922 16.2633 55.6082 16.464 55.4402 16.632C55.2816 16.8093 55.0809 16.898 54.8382 16.898ZM52.6542 16.898C52.4302 16.898 52.2296 16.8093 52.0522 16.632C51.8842 16.464 51.8002 16.2633 51.8002 16.03C51.8002 15.7873 51.8842 15.582 52.0522 15.414C52.2202 15.246 52.4209 15.162 52.6542 15.162C52.8969 15.162 53.1022 15.246 53.2702 15.414C53.4382 15.582 53.5222 15.7873 53.5222 16.03C53.5222 16.2633 53.4382 16.464 53.2702 16.632C53.1022 16.8093 52.8969 16.898 52.6542 16.898ZM64.2688 14C63.7648 14 63.3121 13.8833 62.9108 13.65C62.5094 13.4167 62.1921 13.0993 61.9588 12.698C61.7348 12.2967 61.6228 11.8393 61.6228 11.326V11.032H63.2188V11.326C63.2188 11.5407 63.2561 11.76 63.3308 11.984C63.4054 12.1987 63.5221 12.376 63.6808 12.516C63.8394 12.656 64.0354 12.726 64.2688 12.726H64.8988V14H64.2688ZM56.2188 14V12.726H60.5728C60.9088 12.726 61.1654 12.6 61.3428 12.348C61.5294 12.096 61.6228 11.6667 61.6228 11.06C61.6228 10.1733 61.4174 9.534 61.0068 9.142C60.5961 8.75 59.9848 8.554 59.1728 8.554C59.0328 8.554 58.8788 8.55867 58.7108 8.568C58.5428 8.568 58.3794 8.57267 58.2208 8.582C58.0714 8.59133 57.9361 8.596 57.8148 8.596C57.5441 8.596 57.3201 8.54 57.1427 8.428C56.9748 8.316 56.8488 8.16667 56.7648 7.98C56.6808 7.784 56.6294 7.58333 56.6108 7.378C56.6014 7.21933 56.6154 7.098 56.6528 7.014C56.6994 6.92067 56.7461 6.86933 56.7928 6.86C56.8581 6.972 56.9794 7.07933 57.1568 7.182C57.3341 7.27533 57.5861 7.322 57.9128 7.322C58.0061 7.322 58.1274 7.31733 58.2767 7.308C58.4261 7.29867 58.5801 7.294 58.7388 7.294C58.9068 7.28467 59.0468 7.28 59.1588 7.28C59.8774 7.28 60.4934 7.378 61.0068 7.574C61.5201 7.77 61.9401 8.04067 62.2668 8.386C62.5934 8.73133 62.8314 9.13267 62.9808 9.59C63.1394 10.0473 63.2188 10.5327 63.2188 11.046C63.2188 11.7647 63.0881 12.3433 62.8268 12.782C62.5748 13.2113 62.2481 13.524 61.8468 13.72C61.4454 13.9067 61.0208 14 60.5728 14H56.2188ZM56.2188 14C56.1161 14 56.0461 13.944 56.0087 13.832C55.9621 13.7107 55.9387 13.552 55.9387 13.356C55.9387 13.16 55.9621 13.006 56.0087 12.894C56.0461 12.782 56.1161 12.726 56.2188 12.726V14ZM64.8988 14V12.726C65.0108 12.726 65.0854 12.782 65.1228 12.894C65.1601 13.006 65.1788 13.16 65.1788 13.356C65.1788 13.552 65.1601 13.7107 65.1228 13.832C65.0854 13.944 65.0108 14 64.8988 14ZM59.4108 16.968C59.1401 16.968 58.9114 16.8747 58.7248 16.688C58.5474 16.5107 58.4588 16.296 58.4588 16.044C58.4588 15.792 58.5474 15.5727 58.7248 15.386C58.9114 15.2087 59.1354 15.12 59.3968 15.12C59.6488 15.12 59.8634 15.2087 60.0408 15.386C60.2274 15.5727 60.3208 15.792 60.3208 16.044C60.3208 16.296 60.2274 16.5107 60.0408 16.688C59.8634 16.8747 59.6534 16.968 59.4108 16.968ZM64.9004 14V12.726H65.5304C65.7731 12.726 65.9691 12.656 66.1184 12.516C66.2771 12.376 66.3937 12.1987 66.4684 11.984C66.5431 11.76 66.5804 11.5407 66.5804 11.326V8.848C66.5804 8.624 66.6411 8.43733 66.7624 8.288C66.8931 8.12933 67.0984 8.05 67.3784 8.05C67.6584 8.05 67.8591 8.12933 67.9804 8.288C68.1111 8.43733 68.1764 8.624 68.1764 8.848V11.326C68.1764 11.8393 68.0597 12.2967 67.8264 12.698C67.6024 13.0993 67.2897 13.4167 66.8884 13.65C66.4964 13.8833 66.0437 14 65.5304 14H64.9004ZM69.2264 14C68.7224 14 68.2697 13.8833 67.8684 13.65C67.4671 13.4167 67.1497 13.0993 66.9164 12.698C66.6924 12.2967 66.5804 11.8393 66.5804 11.326H68.1764C68.1764 11.5407 68.2137 11.7553 68.2884 11.97C68.3631 12.1847 68.4797 12.3667 68.6384 12.516C68.7971 12.656 68.9931 12.726 69.2264 12.726H69.4924V14H69.2264ZM73.9164 14V12.726H74.2664C74.5091 12.726 74.7097 12.656 74.8684 12.516C75.0271 12.376 75.1437 12.1987 75.2184 11.984C75.2931 11.76 75.3304 11.5407 75.3304 11.326V8.078C75.3304 7.854 75.3911 7.66733 75.5124 7.518C75.6431 7.35933 75.8437 7.28 76.1144 7.28C76.3944 7.28 76.5951 7.35933 76.7164 7.518C76.8471 7.66733 76.9124 7.854 76.9124 8.078V11.326C76.9124 11.8393 76.7957 12.2967 76.5624 12.698C76.3384 13.0993 76.0304 13.4167 75.6384 13.65C75.2464 13.8833 74.7891 14 74.2664 14H73.9164ZM73.5944 14C73.0904 14 72.6377 13.8833 72.2364 13.65C71.8351 13.4167 71.5177 13.0993 71.2844 12.698C71.0604 12.2967 70.9484 11.8393 70.9484 11.326H72.5444C72.5444 11.55 72.5817 11.7693 72.6564 11.984C72.7311 12.1987 72.8477 12.376 73.0064 12.516C73.1651 12.656 73.3611 12.726 73.5944 12.726H73.9164V14H73.5944ZM69.4924 14V12.726H69.8984C70.1411 12.726 70.3371 12.656 70.4864 12.516C70.6451 12.376 70.7617 12.1987 70.8364 11.984C70.9111 11.76 70.9484 11.5407 70.9484 11.326V8.512C70.9484 8.288 71.0137 8.10133 71.1444 7.952C71.2751 7.79333 71.4757 7.714 71.7464 7.714C72.0264 7.714 72.2271 7.79333 72.3484 7.952C72.4791 8.10133 72.5444 8.288 72.5444 8.512V11.326C72.5444 11.8393 72.4277 12.2967 72.1944 12.698C71.9704 13.0993 71.6577 13.4167 71.2564 13.65C70.8644 13.8833 70.4117 14 69.8984 14H69.4924ZM77.9764 14C77.4631 14 77.0057 13.8833 76.6044 13.65C76.2124 13.4167 75.8997 13.0993 75.6664 12.698C75.4424 12.2967 75.3304 11.8393 75.3304 11.326H76.9124C76.9124 11.5407 76.9497 11.76 77.0244 11.984C77.0991 12.1987 77.2157 12.376 77.3744 12.516C77.5331 12.656 77.7337 12.726 77.9764 12.726H78.5924V14H77.9764ZM78.5924 14V12.726C78.7044 12.726 78.7791 12.782 78.8164 12.894C78.8537 13.006 78.8724 13.16 78.8724 13.356C78.8724 13.552 78.8537 13.7107 78.8164 13.832C78.7791 13.944 78.7044 14 78.5924 14ZM64.9004 14C64.7977 14 64.7277 13.944 64.6904 13.832C64.6437 13.7107 64.6204 13.552 64.6204 13.356C64.6204 13.16 64.6437 13.006 64.6904 12.894C64.7277 12.782 64.7977 12.726 64.9004 12.726V14ZM78.5859 14V12.726H79.7339C79.9113 12.726 80.0653 12.6793 80.1959 12.586C80.3359 12.4927 80.4526 12.3713 80.5459 12.222C80.6393 12.0727 80.7139 11.9 80.7699 11.704C80.8353 11.508 80.8773 11.3027 80.8959 11.088C80.9239 10.864 80.9379 10.6447 80.9379 10.43C80.9379 10.0567 80.9006 9.72067 80.8259 9.422C80.7606 9.12333 80.6533 8.848 80.5039 8.596C80.3546 8.344 80.1493 8.11067 79.8879 7.896C79.9066 7.82133 79.9533 7.73733 80.0279 7.644C80.1026 7.54133 80.2053 7.45733 80.3359 7.392C80.4759 7.31733 80.6393 7.28 80.8259 7.28C81.1246 7.28 81.3813 7.37333 81.5959 7.56C81.8199 7.74667 81.9973 7.994 82.1279 8.302C82.2586 8.61 82.3566 8.95067 82.4219 9.324C82.4873 9.69733 82.5199 10.0753 82.5199 10.458C82.5199 11.5593 82.2726 12.4273 81.7779 13.062C81.2926 13.6873 80.6113 14 79.7339 14H78.5859ZM78.5859 14C78.4833 14 78.4133 13.944 78.3759 13.832C78.3293 13.7107 78.3059 13.552 78.3059 13.356C78.3059 13.16 78.3293 13.006 78.3759 12.894C78.4133 12.782 78.4833 12.726 78.5859 12.726V14ZM81.9319 6.328C81.6986 6.328 81.4933 6.244 81.3159 6.076C81.1479 5.908 81.0639 5.70733 81.0639 5.474C81.0639 5.23133 81.1479 5.026 81.3159 4.858C81.4933 4.68067 81.6986 4.592 81.9319 4.592C82.1746 4.592 82.3753 4.68067 82.5339 4.858C82.7019 5.026 82.7859 5.23133 82.7859 5.474C82.7859 5.70733 82.7019 5.908 82.5339 6.076C82.3753 6.244 82.1746 6.328 81.9319 6.328ZM79.7479 6.328C79.5239 6.328 79.3233 6.244 79.1459 6.076C78.9779 5.908 78.8939 5.70733 78.8939 5.474C78.8939 5.23133 78.9779 5.026 79.1459 4.858C79.3139 4.68067 79.5146 4.592 79.7479 4.592C79.9906 4.592 80.1959 4.68067 80.3639 4.858C80.5319 5.026 80.6159 5.23133 80.6159 5.474C80.6159 5.70733 80.5319 5.908 80.3639 6.076C80.1959 6.244 79.9906 6.328 79.7479 6.328Z" fill="#8B8D97"/>
</svg>
