<svg width="20" height="20" viewBox="0 0 20 20" fill="none" xmlns="http://www.w3.org/2000/svg">
<g id="mail-01">
<path id="Vector" d="M1.66669 5L7.42754 8.26414C9.55135 9.4675 10.4487 9.4675 12.5725 8.26414L18.3334 5" stroke="#8B8D97" stroke-width="1.5" stroke-linejoin="round"/>
<path id="Vector_2" d="M1.67983 11.2296C1.7343 13.7843 1.76155 15.0615 2.70415 16.0078C3.64675 16.954 4.95863 16.9869 7.58238 17.0528C9.19944 17.0935 10.8006 17.0935 12.4177 17.0528C15.0414 16.9869 16.3533 16.954 17.2959 16.0078C18.2385 15.0615 18.2658 13.7843 18.3202 11.2296C18.3378 10.4082 18.3378 9.59171 18.3202 8.77029C18.2658 6.21568 18.2385 4.93837 17.2959 3.99218C16.3533 3.04599 15.0414 3.01303 12.4177 2.9471C10.8006 2.90647 9.19944 2.90647 7.58237 2.94709C4.95863 3.01301 3.64675 3.04597 2.70415 3.99217C1.76154 4.93836 1.7343 6.21567 1.67982 8.77029C1.6623 9.59171 1.66231 10.4082 1.67983 11.2296Z" stroke="#8B8D97" stroke-width="1.5" stroke-linejoin="round"/>
</g>
</svg>
