<svg width="171" height="32" viewBox="0 0 161 22" fill="none" xmlns="http://www.w3.org/2000/svg">
<path d="M29.766 14C29.2247 14 28.73 13.8693 28.282 13.608C27.8433 13.3373 27.498 12.95 27.246 12.446C26.994 11.942 26.868 11.3353 26.868 10.626C26.868 9.57133 27.1573 8.75 27.736 8.162C28.324 7.574 29.1127 7.28 30.102 7.28C30.83 7.28 31.418 7.42933 31.866 7.728C32.3233 8.01733 32.552 8.386 32.552 8.834V14H30.97V8.834C30.9327 8.75 30.8393 8.68467 30.69 8.638C30.5407 8.582 30.3447 8.554 30.102 8.554C29.5607 8.554 29.15 8.722 28.87 9.058C28.5993 9.394 28.464 9.91667 28.464 10.626C28.464 11.298 28.5993 11.816 28.87 12.18C29.1407 12.544 29.5327 12.726 30.046 12.726H33.35V14H29.766ZM33.35 14V12.726C33.462 12.726 33.5367 12.782 33.574 12.894C33.6113 13.006 33.63 13.16 33.63 13.356C33.63 13.552 33.6113 13.7107 33.574 13.832C33.5367 13.944 33.462 14 33.35 14ZM30.844 6.328C30.6107 6.328 30.4053 6.244 30.228 6.076C30.06 5.908 29.976 5.70733 29.976 5.474C29.976 5.23133 30.06 5.026 30.228 4.858C30.4053 4.68067 30.6107 4.592 30.844 4.592C31.0867 4.592 31.2873 4.68067 31.446 4.858C31.614 5.026 31.698 5.23133 31.698 5.474C31.698 5.70733 31.614 5.908 31.446 6.076C31.2873 6.244 31.0867 6.328 30.844 6.328ZM28.66 6.328C28.436 6.328 28.2353 6.244 28.058 6.076C27.89 5.908 27.806 5.70733 27.806 5.474C27.806 5.23133 27.89 5.026 28.058 4.858C28.226 4.68067 28.4267 4.592 28.66 4.592C28.9027 4.592 29.108 4.68067 29.276 4.858C29.444 5.026 29.528 5.23133 29.528 5.474C29.528 5.70733 29.444 5.908 29.276 6.076C29.108 6.244 28.9027 6.328 28.66 6.328ZM33.3555 14V12.726H33.9155C34.1675 12.726 34.3681 12.656 34.5175 12.516C34.6761 12.376 34.7928 12.1987 34.8675 11.984C34.9421 11.76 34.9795 11.5407 34.9795 11.326V8.078C34.9795 7.854 35.0401 7.66733 35.1615 7.518C35.2921 7.35933 35.4975 7.28 35.7775 7.28C36.0481 7.28 36.2441 7.35933 36.3655 7.518C36.4961 7.66733 36.5615 7.854 36.5615 8.078V11.326C36.5615 11.8393 36.4448 12.2967 36.2115 12.698C35.9875 13.0993 35.6795 13.4167 35.2875 13.65C34.8955 13.8833 34.4381 14 33.9155 14H33.3555ZM37.6255 14C37.1121 14 36.6548 13.8833 36.2535 13.65C35.8615 13.4167 35.5488 13.0993 35.3155 12.698C35.0915 12.2967 34.9795 11.8393 34.9795 11.326H36.5615C36.5615 11.5407 36.5988 11.76 36.6735 11.984C36.7481 12.1987 36.8648 12.376 37.0235 12.516C37.1915 12.656 37.3921 12.726 37.6255 12.726H38.2555V14H37.6255ZM38.2555 14V12.726C38.3581 12.726 38.4281 12.782 38.4655 12.894C38.5121 13.006 38.5355 13.16 38.5355 13.356C38.5355 13.552 38.5121 13.7107 38.4655 13.832C38.4281 13.944 38.3581 14 38.2555 14ZM33.3555 14C33.2528 14 33.1828 13.944 33.1455 13.832C33.0988 13.7107 33.0755 13.552 33.0755 13.356C33.0755 13.16 33.0988 13.006 33.1455 12.894C33.1828 12.782 33.2528 12.726 33.3555 12.726V14ZM36.8695 16.898C36.6361 16.898 36.4308 16.8093 36.2535 16.632C36.0855 16.464 36.0015 16.2633 36.0015 16.03C36.0015 15.7873 36.0855 15.582 36.2535 15.414C36.4308 15.246 36.6361 15.162 36.8695 15.162C37.1121 15.162 37.3128 15.246 37.4715 15.414C37.6395 15.582 37.7235 15.7873 37.7235 16.03C37.7235 16.2633 37.6395 16.464 37.4715 16.632C37.3128 16.8093 37.1121 16.898 36.8695 16.898ZM34.6855 16.898C34.4615 16.898 34.2608 16.8093 34.0835 16.632C33.9155 16.464 33.8315 16.2633 33.8315 16.03C33.8315 15.7873 33.9155 15.582 34.0835 15.414C34.2515 15.246 34.4521 15.162 34.6855 15.162C34.9281 15.162 35.1335 15.246 35.3015 15.414C35.4695 15.582 35.5535 15.7873 35.5535 16.03C35.5535 16.2633 35.4695 16.464 35.3015 16.632C35.1335 16.8093 34.9281 16.898 34.6855 16.898ZM38.25 14V12.726H45.6C45.936 12.726 46.202 12.5907 46.398 12.32C46.594 12.0493 46.692 11.606 46.692 10.99C46.692 10.1313 46.4913 9.51067 46.09 9.128C45.698 8.74533 45.1473 8.554 44.438 8.554C43.8873 8.554 43.416 8.652 43.024 8.848C42.6413 9.044 42.324 9.296 42.072 9.604C41.82 9.912 41.6147 10.2433 41.456 10.598C41.3067 10.9527 41.1807 11.2933 41.078 11.62L40.308 11.508C40.4293 11.032 40.56 10.584 40.7 10.164C40.8493 9.73467 41.022 9.34733 41.218 9.002C41.4233 8.64733 41.666 8.344 41.946 8.092C42.2353 7.83067 42.5807 7.63 42.982 7.49C43.3833 7.35 43.8593 7.28 44.41 7.28C45.6233 7.28 46.5707 7.60667 47.252 8.26C47.9427 8.91333 48.288 9.81867 48.288 10.976C48.288 11.9187 48.05 12.6607 47.574 13.202C47.1073 13.734 46.4493 14 45.6 14H38.25ZM39.482 14V9.604C39.482 9.34267 39.412 9.11867 39.272 8.932C39.132 8.736 38.9873 8.60067 38.838 8.526C38.9033 8.40467 39.02 8.28333 39.188 8.162C39.3653 8.03133 39.6033 7.966 39.902 7.966C40.1167 7.966 40.2987 8.008 40.448 8.092C40.5973 8.16667 40.7187 8.274 40.812 8.414C40.9053 8.54467 40.9707 8.69867 41.008 8.876C41.0547 9.044 41.078 9.21667 41.078 9.394V14H39.482ZM38.25 14C38.1473 14 38.0773 13.944 38.04 13.832C37.9933 13.7107 37.97 13.552 37.97 13.356C37.97 13.16 37.9933 13.006 38.04 12.894C38.0773 12.782 38.1473 12.726 38.25 12.726V14ZM55.7532 14V12.726H56.9712V14H55.7532ZM52.9672 14C52.4258 14 51.9312 13.8693 51.4832 13.608C51.0445 13.3373 50.6992 12.95 50.4472 12.446C50.1952 11.942 50.0692 11.3353 50.0692 10.626C50.0692 9.57133 50.3585 8.75 50.9372 8.162C51.5252 7.574 52.3138 7.28 53.3032 7.28C54.0312 7.28 54.6192 7.42933 55.0672 7.728C55.5245 8.01733 55.7532 8.386 55.7532 8.834V14H54.1712V8.834C54.1338 8.75 54.0405 8.68467 53.8912 8.638C53.7418 8.582 53.5458 8.554 53.3032 8.554C52.7618 8.554 52.3512 8.722 52.0712 9.058C51.8005 9.394 51.6652 9.91667 51.6652 10.626C51.6652 11.298 51.8005 11.816 52.0712 12.18C52.3418 12.544 52.7338 12.726 53.2472 12.726H55.7532V14H52.9672ZM54.0452 17.206C53.8585 17.206 53.6998 17.1687 53.5692 17.094C53.4385 17.0287 53.3358 16.9447 53.2612 16.842C53.1865 16.7393 53.1398 16.6553 53.1212 16.59C53.3918 16.366 53.6018 16.128 53.7512 15.876C53.9005 15.624 54.0078 15.3393 54.0732 15.022C54.1385 14.714 54.1712 14.3733 54.1712 14V12.726H55.7532V14C55.7532 14.3733 55.7205 14.7467 55.6552 15.12C55.5992 15.5027 55.5012 15.8527 55.3612 16.17C55.2305 16.4873 55.0578 16.7393 54.8432 16.926C54.6285 17.1127 54.3625 17.206 54.0452 17.206ZM56.9712 14V12.726C57.0738 12.726 57.1438 12.782 57.1812 12.894C57.2278 13.006 57.2512 13.16 57.2512 13.356C57.2512 13.552 57.2278 13.7107 57.1812 13.832C57.1438 13.944 57.0738 14 56.9712 14ZM68.0548 14C67.5508 14 67.0981 13.8833 66.6968 13.65C66.2955 13.4167 65.9781 13.0993 65.7448 12.698C65.5208 12.2967 65.4088 11.8393 65.4088 11.326L67.0048 10.976V11.326C67.0048 11.5407 67.0421 11.76 67.1168 11.984C67.1915 12.1987 67.3081 12.376 67.4668 12.516C67.6255 12.656 67.8215 12.726 68.0548 12.726H68.6848V14H68.0548ZM56.9668 14V12.726H64.3168C64.6528 12.726 64.9188 12.5907 65.1148 12.32C65.3108 12.0493 65.4088 11.606 65.4088 10.99C65.4088 10.1313 65.2081 9.51067 64.8068 9.128C64.4148 8.74533 63.8641 8.554 63.1548 8.554C62.6041 8.554 62.1328 8.652 61.7408 8.848C61.3581 9.044 61.0408 9.296 60.7888 9.604C60.5368 9.912 60.3315 10.2433 60.1728 10.598C60.0235 10.9527 59.8975 11.2933 59.7948 11.62L59.0248 11.508C59.1461 11.032 59.2768 10.584 59.4168 10.164C59.5661 9.73467 59.7388 9.34733 59.9348 9.002C60.1401 8.64733 60.3828 8.344 60.6628 8.092C60.9521 7.83067 61.2975 7.63 61.6988 7.49C62.1001 7.35 62.5761 7.28 63.1268 7.28C64.3401 7.28 65.2875 7.60667 65.9688 8.26C66.6595 8.91333 67.0048 9.81867 67.0048 10.976C67.0048 11.9187 66.7668 12.6607 66.2908 13.202C65.8241 13.734 65.1661 14 64.3168 14H56.9668ZM58.1988 14V9.604C58.1988 9.34267 58.1288 9.11867 57.9888 8.932C57.8488 8.736 57.7041 8.60067 57.5548 8.526C57.6201 8.40467 57.7368 8.28333 57.9048 8.162C58.0821 8.03133 58.3201 7.966 58.6188 7.966C58.8335 7.966 59.0155 8.008 59.1648 8.092C59.3141 8.16667 59.4355 8.274 59.5288 8.414C59.6221 8.54467 59.6875 8.69867 59.7248 8.876C59.7715 9.044 59.7948 9.21667 59.7948 9.394V14H58.1988ZM56.9668 14C56.8641 14 56.7941 13.944 56.7568 13.832C56.7101 13.7107 56.6868 13.552 56.6868 13.356C56.6868 13.16 56.7101 13.006 56.7568 12.894C56.7941 12.782 56.8641 12.726 56.9668 12.726V14ZM68.6848 14V12.726C68.7968 12.726 68.8715 12.782 68.9088 12.894C68.9461 13.006 68.9648 13.16 68.9648 13.356C68.9648 13.552 68.9461 13.7107 68.9088 13.832C68.8715 13.944 68.7968 14 68.6848 14ZM76.7336 14C76.2296 14 75.7769 13.8833 75.3756 13.65C74.9743 13.4167 74.6569 13.0993 74.4236 12.698C74.1996 12.2967 74.0876 11.8393 74.0876 11.326V11.032H75.6836V11.326C75.6836 11.5407 75.7209 11.76 75.7956 11.984C75.8703 12.1987 75.9869 12.376 76.1456 12.516C76.3043 12.656 76.5003 12.726 76.7336 12.726H77.3636V14H76.7336ZM68.6836 14V12.726H73.0376C73.3736 12.726 73.6303 12.6 73.8076 12.348C73.9943 12.096 74.0876 11.6667 74.0876 11.06C74.0876 10.1733 73.8823 9.534 73.4716 9.142C73.0609 8.75 72.4496 8.554 71.6376 8.554C71.4976 8.554 71.3436 8.55867 71.1756 8.568C71.0076 8.568 70.8443 8.57267 70.6856 8.582C70.5363 8.59133 70.4009 8.596 70.2796 8.596C70.0089 8.596 69.7849 8.54 69.6076 8.428C69.4396 8.316 69.3136 8.16667 69.2296 7.98C69.1456 7.784 69.0943 7.58333 69.0756 7.378C69.0663 7.21933 69.0803 7.098 69.1176 7.014C69.1643 6.92067 69.2109 6.86933 69.2576 6.86C69.3229 6.972 69.4443 7.07933 69.6216 7.182C69.7989 7.27533 70.0509 7.322 70.3776 7.322C70.4709 7.322 70.5923 7.31733 70.7416 7.308C70.8909 7.29867 71.0449 7.294 71.2036 7.294C71.3716 7.28467 71.5116 7.28 71.6236 7.28C72.3423 7.28 72.9583 7.378 73.4716 7.574C73.9849 7.77 74.4049 8.04067 74.7316 8.386C75.0583 8.73133 75.2963 9.13267 75.4456 9.59C75.6043 10.0473 75.6836 10.5327 75.6836 11.046C75.6836 11.7647 75.5529 12.3433 75.2916 12.782C75.0396 13.2113 74.7129 13.524 74.3116 13.72C73.9103 13.9067 73.4856 14 73.0376 14H68.6836ZM68.6836 14C68.5809 14 68.5109 13.944 68.4736 13.832C68.4269 13.7107 68.4036 13.552 68.4036 13.356C68.4036 13.16 68.4269 13.006 68.4736 12.894C68.5109 12.782 68.5809 12.726 68.6836 12.726V14ZM77.3636 14V12.726C77.4756 12.726 77.5503 12.782 77.5876 12.894C77.6249 13.006 77.6436 13.16 77.6436 13.356C77.6436 13.552 77.6249 13.7107 77.5876 13.832C77.5503 13.944 77.4756 14 77.3636 14ZM71.8756 6.37C71.6049 6.37 71.3763 6.28133 71.1896 6.104C71.0123 5.91733 70.9236 5.698 70.9236 5.446C70.9236 5.194 71.0123 4.97933 71.1896 4.802C71.3763 4.61533 71.6003 4.522 71.8616 4.522C72.1136 4.522 72.3283 4.61533 72.5056 4.802C72.6923 4.97933 72.7856 5.194 72.7856 5.446C72.7856 5.698 72.6923 5.91733 72.5056 6.104C72.3283 6.28133 72.1183 6.37 71.8756 6.37ZM77.3652 14V12.726H77.9252C78.1772 12.726 78.3779 12.656 78.5272 12.516C78.6859 12.376 78.8026 12.1987 78.8772 11.984C78.9519 11.76 78.9892 11.5407 78.9892 11.326V6.818C78.9892 6.50067 78.9472 6.25333 78.8632 6.076C78.7792 5.88933 78.6812 5.74933 78.5692 5.656C78.4666 5.56267 78.3732 5.49267 78.2892 5.446C78.3079 5.38067 78.3546 5.29667 78.4292 5.194C78.5039 5.082 78.6159 4.984 78.7652 4.9C78.9146 4.80667 79.0966 4.76 79.3112 4.76C79.5539 4.76 79.7686 4.82067 79.9552 4.942C80.1419 5.06333 80.2912 5.24533 80.4032 5.488C80.5152 5.73067 80.5712 6.02933 80.5712 6.384V11.326C80.5712 11.8393 80.4546 12.2967 80.2212 12.698C79.9972 13.0993 79.6892 13.4167 79.2972 13.65C78.9052 13.8833 78.4479 14 77.9252 14H77.3652ZM77.3652 14C77.2626 14 77.1926 13.944 77.1552 13.832C77.1086 13.7107 77.0852 13.552 77.0852 13.356C77.0852 13.16 77.1086 13.006 77.1552 12.894C77.1926 12.782 77.2626 12.726 77.3652 12.726V14ZM83.6098 14C83.2831 14 83.0684 13.9067 82.9658 13.72C82.8724 13.524 82.8258 13.3093 82.8258 13.076V6.818C82.8258 6.50067 82.7838 6.25333 82.6998 6.076C82.6158 5.88933 82.5178 5.74933 82.4058 5.656C82.2938 5.56267 82.2004 5.49267 82.1258 5.446C82.1444 5.38067 82.1911 5.29667 82.2658 5.194C82.3404 5.082 82.4524 4.984 82.6018 4.9C82.7511 4.80667 82.9378 4.76 83.1618 4.76C83.3951 4.76 83.6051 4.82067 83.7918 4.942C83.9784 5.06333 84.1278 5.24533 84.2398 5.488C84.3518 5.73067 84.4078 6.02933 84.4078 6.384V13.09C84.4078 13.314 84.3564 13.524 84.2538 13.72C84.1511 13.9067 83.9364 14 83.6098 14ZM88.8695 14C88.3282 14 87.8335 13.8693 87.3855 13.608C86.9468 13.3373 86.6015 12.95 86.3495 12.446C86.0975 11.942 85.9715 11.3353 85.9715 10.626C85.9715 9.57133 86.2608 8.75 86.8395 8.162C87.4275 7.574 88.2162 7.28 89.2055 7.28C89.9335 7.28 90.5215 7.42933 90.9695 7.728C91.4268 8.01733 91.6555 8.386 91.6555 8.834V14H90.0735V8.834C90.0362 8.75 89.9428 8.68467 89.7935 8.638C89.6442 8.582 89.4482 8.554 89.2055 8.554C88.6642 8.554 88.2535 8.722 87.9735 9.058C87.7028 9.394 87.5675 9.91667 87.5675 10.626C87.5675 11.298 87.7028 11.816 87.9735 12.18C88.2442 12.544 88.6362 12.726 89.1495 12.726H91.6555V14H88.8695ZM89.9475 17.206C89.7608 17.206 89.6022 17.1687 89.4715 17.094C89.3408 17.0287 89.2382 16.9447 89.1635 16.842C89.0888 16.7393 89.0422 16.6553 89.0235 16.59C89.2942 16.366 89.5042 16.128 89.6535 15.876C89.8028 15.624 89.9102 15.3393 89.9755 15.022C90.0408 14.714 90.0735 14.3733 90.0735 14V12.726H91.6555V14C91.6555 14.3733 91.6228 14.7467 91.5575 15.12C91.5015 15.5027 91.4035 15.8527 91.2635 16.17C91.1328 16.4873 90.9602 16.7393 90.7455 16.926C90.5308 17.1127 90.2648 17.206 89.9475 17.206ZM99.8054 14C98.928 14 98.242 13.6873 97.7474 13.062C97.262 12.4273 97.0194 11.5593 97.0194 10.458C97.0194 10.0753 97.052 9.69733 97.1174 9.324C97.1827 8.95067 97.2807 8.61 97.4114 8.302C97.542 7.994 97.7147 7.74667 97.9294 7.56C98.1534 7.37333 98.4147 7.28 98.7134 7.28C98.9094 7.28 99.0727 7.31733 99.2034 7.392C99.334 7.45733 99.4367 7.54133 99.5114 7.644C99.5954 7.73733 99.6467 7.82133 99.6654 7.896C99.404 8.11067 99.194 8.344 99.0354 8.596C98.886 8.848 98.7787 9.12333 98.7134 9.422C98.648 9.72067 98.6154 10.0567 98.6154 10.43C98.6154 10.6447 98.6247 10.864 98.6434 11.088C98.6714 11.3027 98.7134 11.508 98.7694 11.704C98.8254 11.9 98.9 12.0727 98.9934 12.222C99.0867 12.3713 99.1987 12.4927 99.3294 12.586C99.4694 12.6793 99.628 12.726 99.8054 12.726H103.669C103.912 12.726 104.108 12.656 104.257 12.516C104.416 12.376 104.533 12.1987 104.607 11.984C104.682 11.76 104.719 11.5407 104.719 11.326V8.792C104.719 8.55867 104.78 8.36267 104.901 8.204C105.032 8.04533 105.237 7.966 105.517 7.966C105.788 7.966 105.989 8.04533 106.119 8.204C106.25 8.36267 106.315 8.55867 106.315 8.792V11.326C106.315 11.8393 106.199 12.2967 105.965 12.698C105.741 13.0993 105.429 13.4167 105.027 13.65C104.635 13.8833 104.183 14 103.669 14H99.8054ZM102.759 6.958C102.526 6.958 102.321 6.874 102.143 6.706C101.975 6.538 101.891 6.33733 101.891 6.104C101.891 5.86133 101.975 5.656 102.143 5.488C102.321 5.31067 102.526 5.222 102.759 5.222C103.002 5.222 103.203 5.31067 103.361 5.488C103.529 5.656 103.613 5.86133 103.613 6.104C103.613 6.33733 103.529 6.538 103.361 6.706C103.203 6.874 103.002 6.958 102.759 6.958ZM100.575 6.958C100.351 6.958 100.151 6.874 99.9734 6.706C99.8054 6.538 99.7214 6.33733 99.7214 6.104C99.7214 5.86133 99.8054 5.656 99.9734 5.488C100.141 5.31067 100.342 5.222 100.575 5.222C100.818 5.222 101.023 5.31067 101.191 5.488C101.359 5.656 101.443 5.86133 101.443 6.104C101.443 6.33733 101.359 6.538 101.191 6.706C101.023 6.874 100.818 6.958 100.575 6.958ZM111.271 14C110.757 14 110.3 13.8833 109.899 13.65C109.507 13.4167 109.194 13.0993 108.961 12.698C108.737 12.2967 108.625 11.8393 108.625 11.326V6.818C108.625 6.50067 108.583 6.25333 108.499 6.076C108.415 5.88933 108.317 5.74933 108.205 5.656C108.093 5.56267 107.999 5.49267 107.925 5.446C107.943 5.38067 107.99 5.29667 108.065 5.194C108.139 5.082 108.251 4.984 108.401 4.9C108.55 4.80667 108.737 4.76 108.961 4.76C109.194 4.76 109.404 4.82067 109.591 4.942C109.777 5.06333 109.927 5.24533 110.039 5.488C110.151 5.73067 110.207 6.02933 110.207 6.384V11.326C110.207 11.5407 110.244 11.76 110.319 11.984C110.393 12.1987 110.51 12.376 110.669 12.516C110.827 12.656 111.028 12.726 111.271 12.726H111.663V14H111.271ZM111.663 14V12.726C111.775 12.726 111.849 12.782 111.887 12.894C111.924 13.006 111.943 13.16 111.943 13.356C111.943 13.552 111.924 13.7107 111.887 13.832C111.849 13.944 111.775 14 111.663 14ZM111.668 14V12.726H112.228C112.48 12.726 112.681 12.656 112.83 12.516C112.989 12.376 113.105 12.1987 113.18 11.984C113.255 11.76 113.292 11.5407 113.292 11.326V8.078C113.292 7.854 113.353 7.66733 113.474 7.518C113.605 7.35933 113.81 7.28 114.09 7.28C114.361 7.28 114.557 7.35933 114.678 7.518C114.809 7.66733 114.874 7.854 114.874 8.078V11.326C114.874 11.8393 114.757 12.2967 114.524 12.698C114.3 13.0993 113.992 13.4167 113.6 13.65C113.208 13.8833 112.751 14 112.228 14H111.668ZM115.938 14C115.425 14 114.967 13.8833 114.566 13.65C114.174 13.4167 113.861 13.0993 113.628 12.698C113.404 12.2967 113.292 11.8393 113.292 11.326H114.874C114.874 11.5407 114.911 11.76 114.986 11.984C115.061 12.1987 115.177 12.376 115.336 12.516C115.504 12.656 115.705 12.726 115.938 12.726H116.568V14H115.938ZM116.568 14V12.726C116.671 12.726 116.741 12.782 116.778 12.894C116.825 13.006 116.848 13.16 116.848 13.356C116.848 13.552 116.825 13.7107 116.778 13.832C116.741 13.944 116.671 14 116.568 14ZM111.668 14C111.565 14 111.495 13.944 111.458 13.832C111.411 13.7107 111.388 13.552 111.388 13.356C111.388 13.16 111.411 13.006 111.458 12.894C111.495 12.782 111.565 12.726 111.668 12.726V14ZM115.182 16.898C114.949 16.898 114.743 16.8093 114.566 16.632C114.398 16.464 114.314 16.2633 114.314 16.03C114.314 15.7873 114.398 15.582 114.566 15.414C114.743 15.246 114.949 15.162 115.182 15.162C115.425 15.162 115.625 15.246 115.784 15.414C115.952 15.582 116.036 15.7873 116.036 16.03C116.036 16.2633 115.952 16.464 115.784 16.632C115.625 16.8093 115.425 16.898 115.182 16.898ZM112.998 16.898C112.774 16.898 112.573 16.8093 112.396 16.632C112.228 16.464 112.144 16.2633 112.144 16.03C112.144 15.7873 112.228 15.582 112.396 15.414C112.564 15.246 112.765 15.162 112.998 15.162C113.241 15.162 113.446 15.246 113.614 15.414C113.782 15.582 113.866 15.7873 113.866 16.03C113.866 16.2633 113.782 16.464 113.614 16.632C113.446 16.8093 113.241 16.898 112.998 16.898ZM125.635 14V12.726H126.013C126.199 12.726 126.358 12.6793 126.489 12.586C126.629 12.4927 126.745 12.3713 126.839 12.222C126.932 12.0727 127.007 11.9 127.063 11.704C127.119 11.508 127.156 11.3027 127.175 11.088C127.203 10.864 127.217 10.6447 127.217 10.43C127.217 10.0567 127.184 9.72067 127.119 9.422C127.053 9.12333 126.946 8.848 126.797 8.596C126.647 8.344 126.437 8.11067 126.167 7.896C126.185 7.82133 126.232 7.73733 126.307 7.644C126.381 7.54133 126.484 7.45733 126.615 7.392C126.755 7.31733 126.918 7.28 127.105 7.28C127.413 7.28 127.674 7.37333 127.889 7.56C128.103 7.74667 128.276 7.994 128.407 8.302C128.547 8.61 128.649 8.95067 128.715 9.324C128.78 9.69733 128.813 10.0753 128.813 10.458C128.813 11.5593 128.565 12.4273 128.071 13.062C127.585 13.6873 126.899 14 126.013 14H125.635ZM120.805 14C120.291 14 119.834 13.8833 119.433 13.65C119.041 13.4167 118.728 13.0993 118.495 12.698C118.271 12.2967 118.159 11.8393 118.159 11.326H119.741C119.741 11.5407 119.778 11.76 119.853 11.984C119.927 12.1987 120.044 12.376 120.203 12.516C120.371 12.656 120.571 12.726 120.805 12.726H121.071V14H120.805ZM116.562 14V12.726H117.095C117.347 12.726 117.547 12.656 117.697 12.516C117.855 12.376 117.972 12.1987 118.047 11.984C118.121 11.76 118.159 11.5407 118.159 11.326V8.848C118.159 8.624 118.219 8.43733 118.341 8.288C118.471 8.12933 118.677 8.05 118.957 8.05C119.227 8.05 119.423 8.12933 119.545 8.288C119.675 8.43733 119.741 8.624 119.741 8.848V11.326C119.741 11.8393 119.624 12.2967 119.391 12.698C119.167 13.0993 118.859 13.4167 118.467 13.65C118.075 13.8833 117.617 14 117.095 14H116.562ZM125.173 14C124.669 14 124.216 13.8833 123.815 13.65C123.413 13.4167 123.096 13.0993 122.863 12.698C122.639 12.2967 122.527 11.8393 122.527 11.326H124.123C124.123 11.5407 124.16 11.76 124.235 11.984C124.309 12.1987 124.426 12.376 124.585 12.516C124.743 12.656 124.939 12.726 125.173 12.726H125.635V14H125.173ZM121.071 14V12.726H121.477C121.719 12.726 121.915 12.656 122.065 12.516C122.223 12.376 122.34 12.1987 122.415 11.984C122.489 11.76 122.527 11.5407 122.527 11.326V8.512C122.527 8.288 122.587 8.10133 122.709 7.952C122.839 7.79333 123.045 7.714 123.325 7.714C123.595 7.714 123.796 7.79333 123.927 7.952C124.057 8.10133 124.123 8.288 124.123 8.512V11.326C124.123 11.8393 124.006 12.2967 123.773 12.698C123.549 13.0993 123.236 13.4167 122.835 13.65C122.443 13.8833 121.99 14 121.477 14H121.071ZM116.562 14C116.46 14 116.39 13.944 116.352 13.832C116.306 13.7107 116.282 13.552 116.282 13.356C116.282 13.16 116.306 13.006 116.352 12.894C116.39 12.782 116.46 12.726 116.562 12.726V14ZM133.775 14C133.261 14 132.804 13.8833 132.403 13.65C132.011 13.4167 131.698 13.0993 131.465 12.698C131.241 12.2967 131.129 11.8393 131.129 11.326V6.818C131.129 6.50067 131.087 6.25333 131.003 6.076C130.919 5.88933 130.821 5.74933 130.709 5.656C130.597 5.56267 130.503 5.49267 130.429 5.446C130.447 5.38067 130.494 5.29667 130.569 5.194C130.643 5.082 130.755 4.984 130.905 4.9C131.054 4.80667 131.241 4.76 131.465 4.76C131.698 4.76 131.908 4.82067 132.095 4.942C132.281 5.06333 132.431 5.24533 132.543 5.488C132.655 5.73067 132.711 6.02933 132.711 6.384V11.326C132.711 11.5407 132.748 11.76 132.823 11.984C132.897 12.1987 133.014 12.376 133.173 12.516C133.331 12.656 133.532 12.726 133.775 12.726H134.167V14H133.775ZM134.167 14V12.726C134.279 12.726 134.353 12.782 134.391 12.894C134.428 13.006 134.447 13.16 134.447 13.356C134.447 13.552 134.428 13.7107 134.391 13.832C134.353 13.944 134.279 14 134.167 14ZM134.172 14V12.726H134.732C134.984 12.726 135.185 12.656 135.334 12.516C135.493 12.376 135.609 12.1987 135.684 11.984C135.759 11.76 135.796 11.5407 135.796 11.326V8.078C135.796 7.854 135.857 7.66733 135.978 7.518C136.109 7.35933 136.314 7.28 136.594 7.28C136.865 7.28 137.061 7.35933 137.182 7.518C137.313 7.66733 137.378 7.854 137.378 8.078V11.326C137.378 11.8393 137.261 12.2967 137.028 12.698C136.804 13.0993 136.496 13.4167 136.104 13.65C135.712 13.8833 135.255 14 134.732 14H134.172ZM138.442 14C137.929 14 137.471 13.8833 137.07 13.65C136.678 13.4167 136.365 13.0993 136.132 12.698C135.908 12.2967 135.796 11.8393 135.796 11.326H137.378C137.378 11.5407 137.415 11.76 137.49 11.984C137.565 12.1987 137.681 12.376 137.84 12.516C138.008 12.656 138.209 12.726 138.442 12.726H139.072V14H138.442ZM139.072 14V12.726C139.175 12.726 139.245 12.782 139.282 12.894C139.329 13.006 139.352 13.16 139.352 13.356C139.352 13.552 139.329 13.7107 139.282 13.832C139.245 13.944 139.175 14 139.072 14ZM134.172 14C134.069 14 133.999 13.944 133.962 13.832C133.915 13.7107 133.892 13.552 133.892 13.356C133.892 13.16 133.915 13.006 133.962 12.894C133.999 12.782 134.069 12.726 134.172 12.726V14ZM137.686 16.898C137.453 16.898 137.247 16.8093 137.07 16.632C136.902 16.464 136.818 16.2633 136.818 16.03C136.818 15.7873 136.902 15.582 137.07 15.414C137.247 15.246 137.453 15.162 137.686 15.162C137.929 15.162 138.129 15.246 138.288 15.414C138.456 15.582 138.54 15.7873 138.54 16.03C138.54 16.2633 138.456 16.464 138.288 16.632C138.129 16.8093 137.929 16.898 137.686 16.898ZM135.502 16.898C135.278 16.898 135.077 16.8093 134.9 16.632C134.732 16.464 134.648 16.2633 134.648 16.03C134.648 15.7873 134.732 15.582 134.9 15.414C135.068 15.246 135.269 15.162 135.502 15.162C135.745 15.162 135.95 15.246 136.118 15.414C136.286 15.582 136.37 15.7873 136.37 16.03C136.37 16.2633 136.286 16.464 136.118 16.632C135.95 16.8093 135.745 16.898 135.502 16.898ZM139.066 14V12.726H139.696C139.939 12.726 140.135 12.656 140.284 12.516C140.443 12.376 140.56 12.1987 140.634 11.984C140.709 11.76 140.746 11.5407 140.746 11.326V8.848C140.746 8.624 140.807 8.43733 140.928 8.288C141.059 8.12933 141.264 8.05 141.544 8.05C141.824 8.05 142.025 8.12933 142.146 8.288C142.277 8.43733 142.342 8.624 142.342 8.848V11.326C142.342 11.8393 142.226 12.2967 141.992 12.698C141.768 13.0993 141.456 13.4167 141.054 13.65C140.662 13.8833 140.21 14 139.696 14H139.066ZM143.392 14C142.888 14 142.436 13.8833 142.034 13.65C141.633 13.4167 141.316 13.0993 141.082 12.698C140.858 12.2967 140.746 11.8393 140.746 11.326H142.342C142.342 11.5407 142.38 11.7553 142.454 11.97C142.529 12.1847 142.646 12.3667 142.804 12.516C142.963 12.656 143.159 12.726 143.392 12.726H143.658V14H143.392ZM148.082 14V12.726H148.432C148.675 12.726 148.876 12.656 149.034 12.516C149.193 12.376 149.31 12.1987 149.384 11.984C149.459 11.76 149.496 11.5407 149.496 11.326V8.078C149.496 7.854 149.557 7.66733 149.678 7.518C149.809 7.35933 150.01 7.28 150.28 7.28C150.56 7.28 150.761 7.35933 150.882 7.518C151.013 7.66733 151.078 7.854 151.078 8.078V11.326C151.078 11.8393 150.962 12.2967 150.728 12.698C150.504 13.0993 150.196 13.4167 149.804 13.65C149.412 13.8833 148.955 14 148.432 14H148.082ZM147.76 14C147.256 14 146.804 13.8833 146.402 13.65C146.001 13.4167 145.684 13.0993 145.45 12.698C145.226 12.2967 145.114 11.8393 145.114 11.326H146.71C146.71 11.55 146.748 11.7693 146.822 11.984C146.897 12.1987 147.014 12.376 147.172 12.516C147.331 12.656 147.527 12.726 147.76 12.726H148.082V14H147.76ZM143.658 14V12.726H144.064C144.307 12.726 144.503 12.656 144.652 12.516C144.811 12.376 144.928 12.1987 145.002 11.984C145.077 11.76 145.114 11.5407 145.114 11.326V8.512C145.114 8.288 145.18 8.10133 145.31 7.952C145.441 7.79333 145.642 7.714 145.912 7.714C146.192 7.714 146.393 7.79333 146.514 7.952C146.645 8.10133 146.71 8.288 146.71 8.512V11.326C146.71 11.8393 146.594 12.2967 146.36 12.698C146.136 13.0993 145.824 13.4167 145.422 13.65C145.03 13.8833 144.578 14 144.064 14H143.658ZM152.142 14C151.629 14 151.172 13.8833 150.77 13.65C150.378 13.4167 150.066 13.0993 149.832 12.698C149.608 12.2967 149.496 11.8393 149.496 11.326H151.078C151.078 11.5407 151.116 11.76 151.19 11.984C151.265 12.1987 151.382 12.376 151.54 12.516C151.699 12.656 151.9 12.726 152.142 12.726H152.758V14H152.142ZM152.758 14V12.726C152.87 12.726 152.945 12.782 152.982 12.894C153.02 13.006 153.038 13.16 153.038 13.356C153.038 13.552 153.02 13.7107 152.982 13.832C152.945 13.944 152.87 14 152.758 14ZM139.066 14C138.964 14 138.894 13.944 138.856 13.832C138.81 13.7107 138.786 13.552 138.786 13.356C138.786 13.16 138.81 13.006 138.856 12.894C138.894 12.782 138.964 12.726 139.066 12.726V14ZM152.752 14V12.726H153.312C153.564 12.726 153.765 12.656 153.914 12.516C154.073 12.376 154.189 12.1987 154.264 11.984C154.339 11.76 154.376 11.5407 154.376 11.326V6.818C154.376 6.50067 154.334 6.25333 154.25 6.076C154.166 5.88933 154.068 5.74933 153.956 5.656C153.853 5.56267 153.76 5.49267 153.676 5.446C153.695 5.38067 153.741 5.29667 153.816 5.194C153.891 5.082 154.003 4.984 154.152 4.9C154.301 4.80667 154.483 4.76 154.698 4.76C154.941 4.76 155.155 4.82067 155.342 4.942C155.529 5.06333 155.678 5.24533 155.79 5.488C155.902 5.73067 155.958 6.02933 155.958 6.384V11.326C155.958 11.8393 155.841 12.2967 155.608 12.698C155.384 13.0993 155.076 13.4167 154.684 13.65C154.292 13.8833 153.835 14 153.312 14H152.752ZM152.752 14C152.649 14 152.579 13.944 152.542 13.832C152.495 13.7107 152.472 13.552 152.472 13.356C152.472 13.16 152.495 13.006 152.542 12.894C152.579 12.782 152.649 12.726 152.752 12.726V14ZM158.997 14C158.67 14 158.455 13.9067 158.353 13.72C158.259 13.524 158.213 13.3093 158.213 13.076V6.818C158.213 6.50067 158.171 6.25333 158.087 6.076C158.003 5.88933 157.905 5.74933 157.793 5.656C157.681 5.56267 157.587 5.49267 157.513 5.446C157.531 5.38067 157.578 5.29667 157.653 5.194C157.727 5.082 157.839 4.984 157.989 4.9C158.138 4.80667 158.325 4.76 158.549 4.76C158.782 4.76 158.992 4.82067 159.179 4.942C159.365 5.06333 159.515 5.24533 159.627 5.488C159.739 5.73067 159.795 6.02933 159.795 6.384V13.09C159.795 13.314 159.743 13.524 159.641 13.72C159.538 13.9067 159.323 14 158.997 14Z" fill="#8B8D97"/>
<path d="M0.972521 10.1171C0.972521 15.0095 4.36464 19.5918 8.99894 20.9325C9.31427 21.0225 9.65826 21.0225 9.97358 20.9325C14.6079 19.5918 18 15.0095 18 10.1171V5.72486C18 4.90445 17.4076 3.97399 16.6718 3.66383L11.3495 1.38269C10.1551 0.872436 8.80784 0.872436 7.61343 1.38269L2.29115 3.66383C1.56495 3.97399 0.962965 4.90445 0.962965 5.72486L0.972521 10.1171Z" stroke="#8B8D97" stroke-width="1.5" stroke-linecap="round" stroke-linejoin="round"/>
<path d="M9.48145 11.4762C8.91664 11.4762 8.37496 11.2755 7.97558 10.9183C7.5762 10.5611 7.35183 10.0766 7.35183 9.57142C7.35183 9.06624 7.5762 8.58176 7.97558 8.22455C8.37496 7.86734 8.91664 7.66666 9.48145 7.66666C10.0463 7.66666 10.5879 7.86734 10.9873 8.22455C11.3867 8.58176 11.6111 9.06624 11.6111 9.57142C11.6111 10.0766 11.3867 10.5611 10.9873 10.9183C10.5879 11.2755 10.0463 11.4762 9.48145 11.4762ZM9.48145 11.4762V14.3333" stroke="#8B8D97" stroke-width="1.5" stroke-miterlimit="10" stroke-linecap="round" stroke-linejoin="round"/>
</svg>
