<svg width="21" height="22" viewBox="0 0 21 22" fill="none" xmlns="http://www.w3.org/2000/svg">
<g id="Frame 144">
<path id="Vector" d="M20 21L18.0777 19M9.90805 20C11.1071 20 12.2945 19.7543 13.4023 19.2769C14.5101 18.7994 15.5166 18.0997 16.3645 17.2175C17.2124 16.3354 17.885 15.2881 18.3438 14.1355C18.8027 12.9829 19.0389 11.7476 19.0389 10.5C19.0389 9.25244 18.8027 8.0171 18.3438 6.86451C17.885 5.71191 17.2124 4.66464 16.3645 3.78249C15.5166 2.90033 14.5101 2.20056 13.4023 1.72314C12.2945 1.24572 11.1071 1 9.90805 1C7.4864 1 5.16394 2.00089 3.45158 3.78249C1.73922 5.56408 0.777222 7.98044 0.777222 10.5C0.777222 13.0196 1.73922 15.4359 3.45158 17.2175C5.16394 18.9991 7.4864 20 9.90805 20Z" stroke="#8B8D97" stroke-width="1.5" stroke-linecap="round" stroke-linejoin="round"/>
</g>
</svg>
