<svg width="45" height="54" viewBox="0 0 45 54" fill="none" xmlns="http://www.w3.org/2000/svg">
<path d="M31 6.5C31 8.15685 29.6569 9.5 28 9.5C26.3431 9.5 25 8.15685 25 6.5C25 4.84315 26.3431 3.5 28 3.5C29.6569 3.5 31 4.84315 31 6.5Z" fill="#8B8D97" stroke="#8B8D97" stroke-linejoin="round"/>
<path d="M19 12C19 13.6569 17.6568 15 16 15C14.3432 15 13 13.6569 13 12C13 10.3431 14.3432 9 16 9C17.6568 9 19 10.3431 19 12Z" fill="#8B8D97" stroke="#8B8D97" stroke-linejoin="round"/>
<path d="M31 17.5C31 19.1569 29.6569 20.5 28 20.5C26.3431 20.5 25 19.1569 25 17.5C25 15.8431 26.3431 14.5 28 14.5C29.6569 14.5 31 15.8431 31 17.5Z" fill="#8B8D97" stroke="#8B8D97" stroke-linejoin="round"/>
<path d="M18.7285 10.75L25.2285 7.75049M18.7285 13.2505L25.2285 16.25" stroke="#8B8D97" stroke-width="2" stroke-linejoin="round"/>
<path d="M3.766 50C3.21533 50 2.72067 49.8693 2.282 49.608C1.85267 49.3373 1.512 48.95 1.26 48.446C1.01733 47.942 0.896 47.3353 0.896 46.626C0.896 45.5713 1.18533 44.75 1.764 44.162C2.34267 43.574 3.11733 43.28 4.088 43.28C4.80667 43.28 5.39 43.4247 5.838 43.714C6.286 44.0033 6.51 44.3767 6.51 44.834V50H5.11V44.834C5.09133 44.694 4.998 44.5867 4.83 44.512C4.662 44.428 4.41467 44.386 4.088 44.386C3.5 44.386 3.052 44.5727 2.744 44.946C2.44533 45.31 2.296 45.87 2.296 46.626C2.296 47.354 2.45 47.914 2.758 48.306C3.07533 48.698 3.528 48.894 4.116 48.894H7.238V50H3.766ZM7.238 50V48.894C7.35 48.894 7.42467 48.9407 7.462 49.034C7.49933 49.1273 7.518 49.2627 7.518 49.44C7.518 49.608 7.49933 49.7433 7.462 49.846C7.42467 49.9487 7.35 50 7.238 50ZM4.816 42.356C4.592 42.356 4.396 42.2767 4.228 42.118C4.06933 41.95 3.99 41.754 3.99 41.53C3.99 41.2967 4.06933 41.1007 4.228 40.942C4.396 40.774 4.592 40.69 4.816 40.69C5.04933 40.69 5.24533 40.774 5.404 40.942C5.56267 41.1007 5.642 41.2967 5.642 41.53C5.642 41.754 5.56267 41.95 5.404 42.118C5.24533 42.2767 5.04933 42.356 4.816 42.356ZM2.716 42.356C2.492 42.356 2.296 42.2767 2.128 42.118C1.96933 41.95 1.89 41.754 1.89 41.53C1.89 41.2967 1.96933 41.1007 2.128 40.942C2.296 40.774 2.492 40.69 2.716 40.69C2.94933 40.69 3.14533 40.774 3.304 40.942C3.46267 41.1007 3.542 41.2967 3.542 41.53C3.542 41.754 3.46267 41.95 3.304 42.118C3.14533 42.2767 2.94933 42.356 2.716 42.356ZM7.23242 50V48.894H12.5104C12.7811 48.894 12.9958 48.8053 13.1544 48.628C13.3131 48.4413 13.3924 48.1753 13.3924 47.83C13.3924 47.4753 13.3131 47.2093 13.1544 47.032C12.9958 46.8453 12.7811 46.752 12.5104 46.752H10.2424C9.72909 46.752 9.26709 46.654 8.85642 46.458C8.44576 46.2527 8.11442 45.9773 7.86242 45.632C7.61976 45.2867 7.49842 44.8993 7.49842 44.47C7.49842 44.0313 7.61976 43.6393 7.86242 43.294C8.11442 42.9487 8.44576 42.678 8.85642 42.482C9.26709 42.2767 9.72909 42.174 10.2424 42.174H13.4484C13.7471 42.174 13.9804 42.1273 14.1484 42.034C14.3258 41.9407 14.4611 41.8613 14.5544 41.796C14.5731 41.9173 14.5684 42.0667 14.5404 42.244C14.5124 42.412 14.4518 42.5753 14.3584 42.734C14.2651 42.8927 14.1438 43.0233 13.9944 43.126C13.8544 43.2287 13.6771 43.28 13.4624 43.28H10.2424C9.85042 43.28 9.52842 43.392 9.27642 43.616C9.03376 43.84 8.91242 44.1247 8.91242 44.47C8.91242 44.7967 9.03376 45.072 9.27642 45.296C9.52842 45.52 9.85042 45.632 10.2424 45.632H12.5804C13.0191 45.632 13.4018 45.73 13.7284 45.926C14.0644 46.1127 14.3258 46.3693 14.5124 46.696C14.6991 47.0227 14.7924 47.4007 14.7924 47.83C14.7924 48.2407 14.6991 48.614 14.5124 48.95C14.3258 49.2767 14.0644 49.5333 13.7284 49.72C13.4018 49.9067 13.0191 50 12.5804 50H7.23242ZM7.23242 50C7.12976 50 7.05976 49.9487 7.02242 49.846C6.97576 49.7433 6.95242 49.608 6.95242 49.44C6.95242 49.2627 6.97576 49.1273 7.02242 49.034C7.05976 48.9407 7.12976 48.894 7.23242 48.894V50ZM16.897 53.206C16.7477 53.206 16.617 53.1827 16.505 53.136C16.393 53.0893 16.2997 53.0287 16.225 52.954C16.1597 52.8887 16.1083 52.828 16.071 52.772C16.3977 52.5013 16.6403 52.2073 16.799 51.89C16.9577 51.582 17.065 51.2647 17.121 50.938C17.177 50.6113 17.205 50.2987 17.205 50V43.966C17.205 43.7233 17.2703 43.5507 17.401 43.448C17.5317 43.336 17.6997 43.28 17.905 43.28C18.101 43.28 18.2643 43.336 18.395 43.448C18.535 43.5507 18.605 43.7233 18.605 43.966V50C18.605 50.3453 18.5723 50.7047 18.507 51.078C18.451 51.4607 18.3577 51.8107 18.227 52.128C18.0963 52.4547 17.919 52.716 17.695 52.912C17.4803 53.108 17.2143 53.206 16.897 53.206ZM23.3087 50C22.814 50 22.3707 49.888 21.9787 49.664C21.596 49.4307 21.2927 49.1133 21.0687 48.712C20.854 48.3107 20.7467 47.858 20.7467 47.354V42.832C20.7467 42.524 20.7047 42.2673 20.6207 42.062C20.5367 41.8473 20.434 41.6747 20.3127 41.544C20.2007 41.4133 20.098 41.32 20.0047 41.264C20.0327 41.208 20.0887 41.1427 20.1727 41.068C20.2567 40.984 20.3687 40.914 20.5087 40.858C20.6487 40.7927 20.8074 40.76 20.9847 40.76C21.1807 40.76 21.3674 40.8113 21.5447 40.914C21.722 41.0167 21.8667 41.1847 21.9787 41.418C22.0907 41.6513 22.1467 41.9593 22.1467 42.342V47.354C22.1467 47.5967 22.1887 47.8347 22.2727 48.068C22.3567 48.3013 22.4827 48.4973 22.6507 48.656C22.828 48.8147 23.0474 48.894 23.3087 48.894H23.7287V50H23.3087ZM23.7287 50V48.894C23.8407 48.894 23.9154 48.9407 23.9527 49.034C23.99 49.1273 24.0087 49.2627 24.0087 49.44C24.0087 49.608 23.99 49.7433 23.9527 49.846C23.9154 49.9487 23.8407 50 23.7287 50ZM23.7344 50V48.894H24.2944C24.565 48.894 24.7844 48.8147 24.9524 48.656C25.1204 48.4973 25.2464 48.3013 25.3304 48.068C25.4144 47.8347 25.4564 47.5967 25.4564 47.354V44.75C25.4564 44.5167 25.517 44.344 25.6384 44.232C25.7597 44.1107 25.9324 44.05 26.1564 44.05C26.3804 44.05 26.553 44.1107 26.6744 44.232C26.7957 44.344 26.8564 44.5167 26.8564 44.75V47.354C26.8564 47.858 26.7444 48.3107 26.5204 48.712C26.3057 49.1133 26.007 49.4307 25.6244 49.664C25.2417 49.888 24.7984 50 24.2944 50H23.7344ZM28.0184 50C27.5237 50 27.0804 49.888 26.6884 49.664C26.3057 49.4307 26.0024 49.1133 25.7784 48.712C25.5637 48.3107 25.4564 47.858 25.4564 47.354H26.8564C26.8564 47.5967 26.8984 47.8347 26.9824 48.068C27.0664 48.3013 27.1924 48.4973 27.3604 48.656C27.5377 48.8147 27.757 48.894 28.0184 48.894H28.2424V50H28.0184ZM32.6104 50V48.894H32.8064C33.077 48.894 33.2964 48.8147 33.4644 48.656C33.6417 48.4973 33.7677 48.3013 33.8424 48.068C33.9264 47.8347 33.9684 47.5967 33.9684 47.354V43.98C33.9684 43.7467 34.029 43.574 34.1504 43.462C34.281 43.3407 34.4584 43.28 34.6824 43.28C34.897 43.28 35.065 43.3407 35.1864 43.462C35.317 43.574 35.3824 43.7467 35.3824 43.98V47.354C35.3824 47.858 35.2704 48.3107 35.0464 48.712C34.8317 49.1133 34.5284 49.4307 34.1364 49.664C33.7537 49.888 33.3104 50 32.8064 50H32.6104ZM32.2884 50C31.7937 50 31.3504 49.888 30.9584 49.664C30.5664 49.4307 30.2584 49.1133 30.0344 48.712C29.8197 48.3107 29.7124 47.858 29.7124 47.354H31.1264C31.1264 47.5967 31.1637 47.8347 31.2384 48.068C31.3224 48.3013 31.453 48.4973 31.6304 48.656C31.8077 48.8147 32.027 48.894 32.2884 48.894H32.6104V50H32.2884ZM28.2424 50V48.894H28.5504C28.821 48.894 29.0404 48.8147 29.2084 48.656C29.3764 48.4973 29.5024 48.3013 29.5864 48.068C29.6704 47.8347 29.7124 47.5967 29.7124 47.354V44.414C29.7124 44.1807 29.773 44.008 29.8944 43.896C30.025 43.7747 30.1977 43.714 30.4124 43.714C30.6364 43.714 30.809 43.7747 30.9304 43.896C31.061 44.008 31.1264 44.1807 31.1264 44.414V47.354C31.1264 47.858 31.0144 48.3107 30.7904 48.712C30.5664 49.1133 30.263 49.4307 29.8804 49.664C29.4977 49.888 29.0544 50 28.5504 50H28.2424ZM36.5444 50C36.0497 50 35.6064 49.888 35.2144 49.664C34.8317 49.4307 34.5284 49.1133 34.3044 48.712C34.0804 48.3107 33.9684 47.858 33.9684 47.354H35.3824C35.3824 47.5967 35.4244 47.8347 35.5084 48.068C35.5924 48.3013 35.7184 48.4973 35.8864 48.656C36.0637 48.8147 36.283 48.894 36.5444 48.894H37.1044V50H36.5444ZM37.1044 50V48.894C37.207 48.894 37.277 48.9407 37.3144 49.034C37.361 49.1273 37.3844 49.2627 37.3844 49.44C37.3844 49.608 37.361 49.7433 37.3144 49.846C37.277 49.9487 37.207 50 37.1044 50ZM23.7344 50C23.6317 50 23.5617 49.9487 23.5244 49.846C23.4777 49.7433 23.4544 49.608 23.4544 49.44C23.4544 49.2627 23.4777 49.1273 23.5244 49.034C23.5617 48.9407 23.6317 48.894 23.7344 48.894V50ZM31.4624 42.37C31.2384 42.37 31.0424 42.2907 30.8744 42.132C30.7157 41.964 30.6364 41.7633 30.6364 41.53C30.6364 41.306 30.7157 41.1147 30.8744 40.956C31.0424 40.788 31.2384 40.704 31.4624 40.704C31.6957 40.704 31.8917 40.788 32.0504 40.956C32.209 41.1147 32.2884 41.306 32.2884 41.53C32.2884 41.7633 32.209 41.964 32.0504 42.132C31.8917 42.2907 31.6957 42.37 31.4624 42.37ZM29.3624 42.37C29.1384 42.37 28.9424 42.2907 28.7744 42.132C28.6157 41.964 28.5364 41.7633 28.5364 41.53C28.5364 41.306 28.6157 41.1147 28.7744 40.956C28.9424 40.788 29.1384 40.704 29.3624 40.704C29.5957 40.704 29.7917 40.788 29.9504 40.956C30.109 41.1147 30.1884 41.306 30.1884 41.53C30.1884 41.7633 30.109 41.964 29.9504 42.132C29.7917 42.2907 29.5957 42.37 29.3624 42.37ZM30.4124 40.508C30.1977 40.508 30.0157 40.4333 29.8664 40.284C29.717 40.1253 29.6424 39.9433 29.6424 39.738C29.6424 39.5233 29.717 39.3413 29.8664 39.192C30.0157 39.0427 30.1977 38.968 30.4124 38.968C30.627 38.968 30.809 39.0427 30.9584 39.192C31.1077 39.3413 31.1824 39.5233 31.1824 39.738C31.1824 39.9433 31.1077 40.1253 30.9584 40.284C30.809 40.4333 30.627 40.508 30.4124 40.508ZM37.1055 50V48.894H40.2275C40.8155 48.894 41.2635 48.698 41.5715 48.306C41.8888 47.914 42.0475 47.354 42.0475 46.626C42.0475 45.87 41.8935 45.31 41.5855 44.946C41.2868 44.5727 40.8435 44.386 40.2555 44.386C39.9288 44.386 39.6815 44.428 39.5135 44.512C39.3455 44.5867 39.2521 44.694 39.2335 44.834V50H37.8335V44.834C37.8335 44.3767 38.0575 44.0033 38.5055 43.714C38.9628 43.4247 39.5461 43.28 40.2555 43.28C41.2355 43.28 42.0148 43.574 42.5935 44.162C43.1721 44.75 43.4615 45.5713 43.4615 46.626C43.4615 47.3353 43.3355 47.942 43.0835 48.446C42.8408 48.95 42.5001 49.3373 42.0615 49.608C41.6321 49.8693 41.1421 50 40.5915 50H37.1055ZM37.1055 50C37.0028 50 36.9328 49.9487 36.8955 49.846C36.8488 49.7433 36.8255 49.608 36.8255 49.44C36.8255 49.2627 36.8488 49.1273 36.8955 49.034C36.9328 48.9407 37.0028 48.894 37.1055 48.894V50Z" fill="#8B8D97"/>
</svg>
