<svg width="8" height="9" viewBox="0 0 8 9" fill="none" xmlns="http://www.w3.org/2000/svg">
<path id="Vector" d="M4.69105 1.07767L5.39498 2.49715C5.49097 2.69475 5.74694 2.88428 5.96291 2.92057L7.23877 3.1343C8.05468 3.27141 8.24666 3.86824 7.65873 4.457L6.66684 5.45709C6.49885 5.62645 6.40686 5.9531 6.45886 6.18699L6.74283 7.425C6.9668 8.40492 6.45086 8.78399 5.59095 8.27185L4.39509 7.55808C4.17911 7.42903 3.82315 7.42903 3.60317 7.55808L2.40731 8.27185C1.5514 8.78399 1.03146 8.40089 1.25543 7.425L1.5394 6.18699C1.5914 5.9531 1.49941 5.62645 1.33143 5.45709L0.339535 4.457C-0.2444 3.86824 -0.0564207 3.27141 0.759489 3.1343L2.03535 2.92057C2.24732 2.88428 2.5033 2.69475 2.59929 2.49715L3.30321 1.07767C3.68717 0.307443 4.3111 0.307443 4.69105 1.07767Z" fill="#F3D745"/>
</svg>
