<svg width="294" height="199" viewBox="0 0 294 199" fill="none" xmlns="http://www.w3.org/2000/svg">
<path d="M47.4091 189H56V194H42C42 193.343 42.1399 192.693 42.4117 192.087C42.6836 191.48 43.082 190.929 43.5843 190.464C44.0866 190 44.6829 189.632 45.3391 189.381C45.9954 189.129 46.6988 189 47.4091 189Z" fill="#2F2E41"/>
<path d="M84.7954 189H94V194H79C79 193.343 79.1499 192.693 79.4412 192.087C79.7324 191.48 80.1593 190.929 80.6974 190.464C81.2356 190 81.8745 189.632 82.5776 189.381C83.2808 189.129 84.0344 189 84.7954 189Z" fill="#2F2E41"/>
<path d="M140.632 195H0.368146C0.270508 195 0.176868 194.947 0.107827 194.854C0.0387864 194.76 0 194.633 0 194.5C0 194.367 0.0387864 194.24 0.107827 194.146C0.176868 194.053 0.270508 194 0.368146 194H140.632C140.729 194 140.823 194.053 140.892 194.146C140.961 194.24 141 194.367 141 194.5C141 194.633 140.961 194.76 140.892 194.854C140.823 194.947 140.729 195 140.632 195Z" fill="#2C2D33"/>
<path d="M264.172 61.3941C263.91 61.6031 263.647 61.8031 263.379 62H197.093C196.599 61.8031 196.108 61.6011 195.618 61.3941C188.621 58.4413 182.107 54.5095 176.286 49.7241C172.421 46.5491 168.865 43.2711 166.288 40.1991C162.691 35.9122 159.379 31.2406 157.839 25.9176C156.301 20.5947 156.761 14.4931 160.195 10.079C161.258 8.72111 162.565 7.56038 164.054 6.65249C164.3 6.50101 164.55 6.3556 164.806 6.21926C168.925 3.97737 174.121 3.43204 178.758 4.59237C185.398 6.25562 190.916 10.9 194.853 16.3472C198.79 21.7913 201.346 28.0444 203.864 34.2278C206.42 23.191 214.16 13.3055 224.615 8.27938C235.067 3.2533 248.053 3.31389 258.282 8.75806C261.501 10.4814 264.409 12.7019 266.891 15.3323C267.138 15.5898 267.378 15.8533 267.616 16.12C272.606 21.7217 275.727 28.8957 275.983 36.294C276.312 45.825 271.756 55.3985 264.172 61.3941Z" fill="#F2F2F2"/>
<path d="M186 61H185.238C185.228 60.7929 185.216 60.589 185.2 60.3819C184.934 56.3396 184.377 52.3335 183.535 48.4098C181.604 39.4521 178.305 31.0169 173.81 23.5447C169.329 16.0487 163.679 9.69992 157.183 4.86037C157.136 4.82723 157.095 4.78134 157.064 4.72618C157.034 4.67103 157.014 4.60806 157.006 4.54207C156.993 4.45577 157.001 4.36695 157.029 4.28595C157.056 4.20496 157.102 4.13513 157.161 4.0846C157.22 4.03408 157.289 4.00493 157.361 4.00057C157.433 3.99621 157.504 4.01681 157.567 4.05997C157.584 4.07226 157.601 4.08567 157.617 4.10014C161.298 6.83096 164.714 10.057 167.802 13.7174C173.325 20.277 177.779 28.0501 180.928 36.6263C183.706 44.1373 185.408 52.1719 185.959 60.3819C185.975 60.589 185.987 60.796 186 61Z" fill="white"/>
<path d="M265.694 14.9014C265.687 14.9049 265.68 14.907 265.673 14.9076C265.014 15.032 264.352 15.1627 263.696 15.3026C258.313 16.4456 253.044 18.0999 247.955 20.2445C242.88 22.386 237.998 24.9879 233.366 28.0196C228.729 31.0497 224.356 34.4921 220.297 38.3076C216.237 42.1177 212.514 46.2933 209.17 50.7852C206.67 54.1507 204.398 57.69 202.369 61.378C202.254 61.5833 202.143 61.7916 202.032 62H201C201.108 61.7916 201.22 61.5833 201.334 61.378C203.789 56.8591 206.604 52.5596 209.75 48.5242C213.229 44.0581 217.086 39.921 221.274 36.1617C225.436 32.4236 229.902 29.0647 234.624 26.1225C239.365 23.1683 244.35 20.6539 249.52 18.6086C254.537 16.6255 259.716 15.1142 264.996 14.0928C265.143 14.0648 265.288 14.0368 265.435 14.0088C265.997 13.9031 266.238 14.7801 265.694 14.9014Z" fill="white"/>
<path d="M65.4197 63.165C67.3891 59.2903 67.7142 54.2438 65.2654 50.6784C63.8077 48.556 61.5316 47.1628 59.1434 46.377C56.7552 45.5912 54.2359 45.3602 51.7382 45.1692C49.2657 44.9802 46.7493 44.8289 44.3341 45.4117C41.9189 45.9945 39.5794 47.4182 38.4029 49.6925C36.4153 53.5343 38.2259 58.4606 36.766 62.5516C35.4263 66.3058 31.6134 68.5007 27.8653 69.3864C24.1171 70.2722 20.2049 70.1779 16.4549 71.0551C12.7049 71.9322 8.88564 74.1067 7.52219 77.8517C6.53623 80.5598 7.0261 83.6792 8.32529 86.2398C9.62447 88.8003 11.6592 90.8733 13.819 92.6962C17.041 95.4158 20.8105 97.7449 24.9505 97.9806C29.3127 98.229 33.578 96.0649 36.7177 92.8989C39.8573 89.733 41.9948 85.6417 43.7026 81.4509C44.786 78.7923 45.8096 75.9311 47.9806 74.1358C49.576 72.8166 51.605 72.2387 53.5728 71.692L55.801 71.0731C57.8202 70.5225 59.7098 69.5472 61.3538 68.2071C62.9977 66.867 64.3612 65.1906 65.3603 63.2809C65.3802 63.2423 65.4 63.2037 65.4197 63.165Z" fill="#2F2E41"/>
<path d="M47.9988 190H43.2565L41 172H48L47.9988 190Z" fill="#F2F2F2"/>
<path d="M85.9988 190H81.2565L79 172H86L85.9988 190Z" fill="#F2F2F2"/>
<path d="M57.1164 176C57.0533 176 56.9903 175.996 56.9277 175.989L38.5447 173.925C38.3005 173.897 38.0647 173.816 37.853 173.685C37.6413 173.555 37.4585 173.379 37.3169 173.168C37.1752 172.958 37.0778 172.719 37.0313 172.466C36.9848 172.213 36.9902 171.953 37.0471 171.702L53.3238 106.804C53.4 106.474 53.5627 106.173 53.7936 105.934C54.0245 105.696 54.3144 105.53 54.6305 105.455L69.7298 101.042C70.0326 100.973 70.3476 100.989 70.6423 101.09C70.9371 101.19 71.2008 101.372 71.4063 101.615C81.1144 113.094 88.4303 138.541 93.9723 170.615C94.0141 170.857 94.0085 171.105 93.9558 171.345C93.9031 171.585 93.8044 171.81 93.6657 172.009C93.527 172.207 93.3513 172.374 93.1492 172.499C92.9471 172.624 92.7228 172.704 92.49 172.736L77.4277 174.752C77.0004 174.81 76.5679 174.698 76.2152 174.439C75.8625 174.18 75.6151 173.791 75.5219 173.35L68.1935 139.1C68.1261 138.784 67.9574 138.503 67.7157 138.302C67.4741 138.102 67.174 137.995 66.8659 137.998C66.5577 138.002 66.2601 138.117 66.0229 138.323C65.7857 138.529 65.6233 138.815 65.5629 139.131L58.807 174.542C58.7305 174.953 58.5199 175.324 58.2114 175.59C57.9029 175.856 57.5158 176.001 57.1164 176Z" fill="#2F2E41"/>
<path d="M54 72C58.9706 72 63 67.7467 63 62.5C63 57.2533 58.9706 53 54 53C49.0294 53 45 57.2533 45 62.5C45 67.7467 49.0294 72 54 72Z" fill="#F2F2F2"/>
<path d="M53.5667 107C53.1734 107 52.7913 106.87 52.4799 106.631C52.1684 106.392 51.9451 106.058 51.8446 105.68L46.2169 84.6514C45.8107 83.1404 45.9789 81.5335 46.6893 80.1381C47.3998 78.7428 48.6026 77.6569 50.0676 77.0884C54.5977 75.3296 58.9137 74.6771 62.8956 75.1484C66.4347 75.5679 70.8005 96.4072 70.5117 96.8518L71.9083 101.019C71.9875 101.255 72.0159 101.505 71.9916 101.753C71.9672 102.001 71.8908 102.241 71.7672 102.458C71.6435 102.675 71.4755 102.863 71.274 103.011C71.0724 103.159 70.8419 103.263 70.5973 103.316L53.9549 106.958C53.8274 106.986 53.6973 107 53.5667 107Z" fill="#CCCCCC"/>
<path d="M58.95 128.711C59.0266 128.311 59.0151 127.899 58.9162 127.504C58.8174 127.109 58.6336 126.74 58.3778 126.425C58.1221 126.109 57.8005 125.853 57.4359 125.676C57.0712 125.498 56.6723 125.403 56.2673 125.398L53.1678 116L50 120.041L53.429 128.345C53.4647 129.03 53.749 129.678 54.228 130.166C54.7071 130.654 55.3475 130.949 56.0281 130.994C56.7086 131.039 57.3819 130.831 57.9205 130.411C58.459 129.99 58.8253 129.385 58.95 128.711Z" fill="#F2F2F2"/>
<path d="M98.6743 104.705C98.4841 104.325 98.2153 103.994 97.8868 103.733C97.5583 103.472 97.1781 103.288 96.7731 103.194C96.368 103.101 95.9478 103.099 95.5422 103.191C95.1366 103.282 94.7554 103.463 94.4254 103.722L86.0077 98L86 103.39L93.9948 107.997C94.455 108.538 95.0922 108.887 95.7858 108.977C96.4793 109.067 97.1809 108.893 97.7578 108.487C98.3346 108.081 98.7465 107.472 98.9154 106.775C99.0843 106.078 98.9985 105.341 98.6743 104.705Z" fill="#F2F2F2"/>
<path d="M52.361 124C52.001 124 51.65 123.881 51.3581 123.66C51.0663 123.438 50.8483 123.126 50.7353 122.767L43.4507 106.589C43.1519 105.64 42.9998 104.648 43 103.65L45.1901 82.6217C45.19 81.4443 45.6179 80.3113 46.3865 79.454C47.1551 78.5967 48.2063 78.0796 49.3257 78.0085C50.445 77.9373 51.5481 78.3173 52.4096 79.071C53.2711 79.8246 53.8262 80.8951 53.9614 82.0638L50.6107 106.065L55.9577 120.797C56.0423 121.188 55.9992 121.599 55.8351 121.962C55.6711 122.325 55.3957 122.62 55.0531 122.799L53.1265 123.81C52.8889 123.935 52.6268 124 52.361 124Z" fill="#CCCCCC"/>
<path d="M91.5604 107C91.2875 107 91.0184 106.935 90.7748 106.809L76.0323 99.2216C75.168 98.7772 74.3793 98.1945 73.6962 97.4955L59.3068 82.7863C58.5012 81.9628 58.0345 80.857 58.0018 79.6947C57.9692 78.5324 58.3732 77.4013 59.1313 76.5322C59.8894 75.663 60.9444 75.1215 62.081 75.0181C63.2177 74.9147 64.3502 75.2572 65.2474 75.9757L80.8349 93.6146L93.1909 101.608C93.5201 101.821 93.7698 102.139 93.9 102.513C94.0302 102.887 94.0333 103.295 93.9089 103.671L93.2124 105.789C93.0963 106.142 92.8743 106.448 92.5779 106.666C92.2815 106.883 91.9256 107 91.5604 107Z" fill="#CCCCCC"/>
<path d="M44 57.4607C45.4957 59.663 47.6456 61.1858 50.0568 61.7506C52.5007 62.3191 55.0443 61.9088 57.2481 60.5908C59.0214 59.5124 60.4405 57.8937 61.8303 56.3001C62.4104 55.635 63.0282 54.868 62.999 53.9607C62.9538 52.555 61.4524 51.7865 60.1638 51.4799C55.9341 50.4867 51.533 51.0438 47.605 53.0697C45.8555 53.9844 44.0328 55.6392 44.2955 57.6963" fill="#2F2E41"/>
<path d="M280.74 60H103.26C101.6 60.0024 100.009 60.6871 98.836 61.9038C97.6626 63.1206 97.0023 64.7702 97 66.4909V137.509C97.0023 139.23 97.6626 140.879 98.836 142.096C100.009 143.313 101.6 143.998 103.26 144H280.74C282.4 143.998 283.991 143.313 285.164 142.096C286.337 140.879 286.998 139.23 287 137.509V66.4909C286.998 64.7702 286.337 63.1206 285.164 61.9038C283.991 60.6871 282.4 60.0024 280.74 60ZM286.264 137.509C286.262 139.027 285.679 140.483 284.644 141.557C283.608 142.631 282.205 143.235 280.74 143.236H103.26C101.795 143.235 100.392 142.631 99.3561 141.557C98.3207 140.483 97.7382 139.027 97.7364 137.509V66.4909C97.7382 64.9725 98.3207 63.5168 99.3561 62.4432C100.392 61.3695 101.795 60.7655 103.26 60.7636H280.74C282.205 60.7655 283.608 61.3695 284.644 62.4432C285.679 63.5168 286.262 64.9725 286.264 66.4909V137.509Z" fill="#2C2D33"/>
<path d="M135.5 124C131.248 124 127.091 122.71 123.555 120.292C120.02 117.875 117.264 114.439 115.637 110.419C114.009 106.399 113.584 101.976 114.413 97.708C115.243 93.4404 117.29 89.5204 120.297 86.4437C123.304 83.3669 127.135 81.2716 131.306 80.4227C135.476 79.5739 139.799 80.0095 143.728 81.6747C147.656 83.3398 151.014 86.1596 153.377 89.7775C155.739 93.3953 157 97.6488 157 102C156.994 107.833 154.726 113.425 150.696 117.549C146.665 121.673 141.2 123.993 135.5 124ZM135.5 80.7586C131.394 80.7586 127.381 82.0044 123.967 84.3384C120.553 86.6725 117.893 89.9899 116.322 93.8713C114.75 97.7526 114.339 102.024 115.14 106.144C115.941 110.264 117.918 114.049 120.821 117.02C123.725 119.991 127.423 122.014 131.45 122.833C135.477 123.653 139.651 123.232 143.444 121.624C147.237 120.017 150.479 117.294 152.76 113.801C155.041 110.308 156.259 106.201 156.259 102C156.252 96.3684 154.063 90.9693 150.172 86.9871C146.28 83.005 141.004 80.765 135.5 80.7586Z" fill="#2C2D33"/>
<path d="M265.361 88H179.639C178.441 88.0007 177.289 88.4512 176.426 89.2572C175.563 90.0632 175.054 91.1621 175.008 92.3236C175.002 92.3822 174.999 92.4411 175 92.5C175.002 93.693 175.491 94.8366 176.361 95.6801C177.23 96.5237 178.409 96.9983 179.639 97H265.361C266.592 97 267.771 96.5259 268.641 95.682C269.511 94.8381 270 93.6935 270 92.5C270 91.3065 269.511 90.1619 268.641 89.318C267.771 88.4741 266.592 88 265.361 88Z" fill="#FF00E6"/>
<path d="M265.361 107H179.639C178.441 107.001 177.289 107.451 176.426 108.257C175.563 109.063 175.054 110.162 175.008 111.324C175.002 111.382 174.999 111.441 175 111.5C175.002 112.693 175.491 113.837 176.361 114.68C177.23 115.524 178.409 115.998 179.639 116H265.361C266.592 116 267.771 115.526 268.641 114.682C269.511 113.838 270 112.693 270 111.5C270 110.307 269.511 109.162 268.641 108.318C267.771 107.474 266.592 107 265.361 107Z" fill="#FF00E6"/>
<path d="M133.003 112C132.407 112.001 131.826 111.8 131.348 111.428L131.318 111.404L125.085 106.436C124.796 106.206 124.554 105.919 124.372 105.591C124.19 105.263 124.072 104.901 124.024 104.526C123.976 104.151 124 103.769 124.094 103.404C124.188 103.038 124.35 102.695 124.571 102.394C124.792 102.094 125.068 101.842 125.383 101.652C125.698 101.463 126.045 101.34 126.406 101.29C126.767 101.24 127.133 101.265 127.484 101.363C127.836 101.46 128.165 101.629 128.454 101.859L132.491 105.082L142.033 92.1287C142.254 91.8283 142.53 91.5762 142.845 91.3867C143.16 91.1973 143.507 91.0743 143.868 91.0248C144.228 90.9752 144.595 91.0001 144.946 91.098C145.298 91.1959 145.627 91.3648 145.915 91.5952L145.856 91.679L145.917 91.5964C146.499 92.0622 146.88 92.7493 146.976 93.5071C147.072 94.2648 146.876 95.0313 146.43 95.6384L135.207 110.875C134.947 111.226 134.613 111.51 134.231 111.705C133.849 111.9 133.429 112.001 133.003 112Z" fill="#FF00E6"/>
<path d="M243.72 52.3622C238.401 51.7993 232.999 51.893 227.718 52.6398C222.452 53.3805 217.369 54.7479 212.65 56.6929C209.999 57.7892 207.482 59.0685 205.131 60.5151C204.747 60.7511 205.291 61.1645 205.671 60.9306C209.796 58.4061 214.42 56.4062 219.367 55.0071C224.275 53.6105 229.434 52.8053 234.662 52.6199C237.619 52.5154 240.584 52.6188 243.517 52.929C243.614 52.9469 243.717 52.9357 243.804 52.8976C243.892 52.8595 243.957 52.7974 243.987 52.7237C244.013 52.6486 244 52.5685 243.95 52.5008C243.9 52.4331 243.817 52.3833 243.72 52.3622Z" fill="white"/>
</svg>
